#N canvas 0 69 450 300 10;
#X obj 51 237 t f b;
#X obj 51 273 tabwrite \$1;
#X obj 100 100 tgl 20 0 \$1-out-\$2 \$1-in-\$2 empty 0 7 0 10 -99865
-258113 -1 0 1;
#X obj 103 252 \$2;
#X connect 0 0 1 0;
#X connect 0 1 3 0;
#X connect 2 0 0 0;
#X connect 3 0 1 1;
#X coords 0 -1 1 1 20 20 2 100 100;
