#N canvas 729 308 450 424 10;
#X obj 151 9 inlet;
#X obj 306 40 inlet;
#X text 302 22 table name;
#X obj 306 63 symbol \$1;
#X obj 99 336 tabwrite \$1;
#X obj 74 66 list split 1;
#X obj 80 129 t b f b;
#X obj 151 37 t a b;
#X obj 145 171 f;
#X obj 174 169 + 1;
#X msg 201 127 0;
#X msg 306 135 set \$1;
#X obj 157 127 list;
#X obj 114 239 tabread \$1;
#X obj 145 192 t f f;
#X obj 99 271 +;
#X connect 0 0 7 0;
#X connect 1 0 3 0;
#X connect 3 0 11 0;
#X connect 5 0 6 0;
#X connect 5 1 12 1;
#X connect 6 0 12 0;
#X connect 6 1 15 0;
#X connect 6 2 8 0;
#X connect 7 0 5 0;
#X connect 7 1 10 0;
#X connect 8 0 9 0;
#X connect 8 0 14 0;
#X connect 9 0 8 1;
#X connect 10 0 8 1;
#X connect 11 0 4 0;
#X connect 11 0 13 0;
#X connect 12 0 5 0;
#X connect 13 0 15 1;
#X connect 14 0 4 1;
#X connect 14 1 13 0;
#X connect 15 0 4 0;
