#N canvas 114 142 660 225 10;
#X obj 187 21 inlet;
#X obj 187 153 outlet;
#X msg 187 92 a;
#X msg 215 92 b;
#X msg 242 93 c;
#X msg 541 94 n;
#X msg 570 94 o;
#X msg 596 94 p;
#X obj 187 130 symbol;
#X obj 187 41 sel 0 1 2 3 4 5 6 7 8 9 10 11 12 13 14 15 16;
#X msg 189 188 a;
#X msg 217 188 b;
#X msg 244 189 c;
#X msg 269 190 f;
#X msg 295 190 d;
#X msg 324 189 g;
#X msg 352 188 i;
#X msg 379 188 l;
#X msg 407 187 e;
#X msg 436 188 h;
#X msg 463 188 j;
#X msg 492 189 m;
#X msg 518 189 k;
#X msg 543 190 n;
#X msg 572 190 o;
#X msg 598 190 p;
#X msg 267 94 d;
#X msg 293 94 e;
#X msg 322 93 f;
#X msg 350 92 g;
#X msg 377 92 h;
#X msg 405 91 i;
#X msg 434 92 j;
#X msg 461 92 k;
#X msg 490 93 l;
#X msg 516 93 m;
#X connect 0 0 9 0;
#X connect 2 0 8 0;
#X connect 3 0 8 0;
#X connect 4 0 8 0;
#X connect 5 0 8 0;
#X connect 6 0 8 0;
#X connect 7 0 8 0;
#X connect 8 0 1 0;
#X connect 9 0 2 0;
#X connect 9 1 3 0;
#X connect 9 2 4 0;
#X connect 9 3 26 0;
#X connect 9 4 27 0;
#X connect 9 5 28 0;
#X connect 9 6 29 0;
#X connect 9 7 30 0;
#X connect 9 8 31 0;
#X connect 9 9 32 0;
#X connect 9 10 33 0;
#X connect 9 11 34 0;
#X connect 9 12 35 0;
#X connect 9 13 5 0;
#X connect 9 14 6 0;
#X connect 9 15 7 0;
#X connect 26 0 8 0;
#X connect 27 0 8 0;
#X connect 28 0 8 0;
#X connect 29 0 8 0;
#X connect 30 0 8 0;
#X connect 31 0 8 0;
#X connect 32 0 8 0;
#X connect 33 0 8 0;
#X connect 34 0 8 0;
#X connect 35 0 8 0;
