#N canvas 361 126 450 300 10;
#X obj 138 51 t f f;
#X obj 69 94 % 16;
#X obj 170 83 / 16;
#X obj 170 103 int;
#N canvas 574 283 658 372 f2s 0;
#X obj 198 214 sel 0 1 2 3 4 5 6 7 8 9 10 11 12 13 14 15;
#X msg 68 251 a;
#X msg 96 251 b;
#X msg 123 252 c;
#X msg 148 253 d;
#X msg 174 253 e;
#X msg 203 252 f;
#X msg 231 251 g;
#X msg 258 251 h;
#X msg 286 250 i;
#X msg 315 251 j;
#X msg 342 251 k;
#X msg 370 252 l;
#X msg 397 252 m;
#X msg 422 253 n;
#X msg 450 253 o;
#X msg 476 253 p;
#X obj 169 54 inlet;
#X obj 406 304 symbol;
#X obj 405 334 outlet;
#X connect 0 0 1 0;
#X connect 0 1 2 0;
#X connect 0 2 3 0;
#X connect 0 3 4 0;
#X connect 0 4 5 0;
#X connect 0 5 6 0;
#X connect 0 6 7 0;
#X connect 0 7 8 0;
#X connect 0 8 9 0;
#X connect 0 9 10 0;
#X connect 0 10 11 0;
#X connect 0 11 12 0;
#X connect 0 12 13 0;
#X connect 0 13 14 0;
#X connect 0 14 15 0;
#X connect 0 15 16 0;
#X connect 1 0 18 0;
#X connect 2 0 18 0;
#X connect 3 0 18 0;
#X connect 4 0 18 0;
#X connect 5 0 18 0;
#X connect 6 0 18 0;
#X connect 7 0 18 0;
#X connect 8 0 18 0;
#X connect 9 0 18 0;
#X connect 10 0 18 0;
#X connect 11 0 18 0;
#X connect 12 0 18 0;
#X connect 13 0 18 0;
#X connect 14 0 18 0;
#X connect 15 0 18 0;
#X connect 16 0 18 0;
#X connect 17 0 0 0;
#X connect 18 0 19 0;
#X restore 69 115 pd f2s;
#N canvas 571 281 658 372 f2s 0;
#X obj 169 75 sel 0 1 2 3 4 5 6 7 8 9 10 11 12 13 14 15;
#X msg 68 251 a;
#X msg 96 251 b;
#X msg 123 252 c;
#X msg 148 253 d;
#X msg 174 253 e;
#X msg 203 252 f;
#X msg 231 251 g;
#X msg 258 251 h;
#X msg 286 250 i;
#X msg 315 251 j;
#X msg 342 251 k;
#X msg 370 252 l;
#X msg 397 252 m;
#X msg 422 253 n;
#X msg 450 253 o;
#X msg 476 253 p;
#X obj 169 54 inlet;
#X obj 406 304 symbol;
#X obj 405 334 outlet;
#X connect 0 0 1 0;
#X connect 0 1 2 0;
#X connect 0 2 3 0;
#X connect 0 3 4 0;
#X connect 0 4 5 0;
#X connect 0 5 6 0;
#X connect 0 6 7 0;
#X connect 0 7 8 0;
#X connect 0 8 9 0;
#X connect 0 9 10 0;
#X connect 0 10 11 0;
#X connect 0 11 12 0;
#X connect 0 12 13 0;
#X connect 0 13 14 0;
#X connect 0 14 15 0;
#X connect 0 15 16 0;
#X connect 1 0 18 0;
#X connect 2 0 18 0;
#X connect 3 0 18 0;
#X connect 4 0 18 0;
#X connect 5 0 18 0;
#X connect 6 0 18 0;
#X connect 7 0 18 0;
#X connect 8 0 18 0;
#X connect 9 0 18 0;
#X connect 10 0 18 0;
#X connect 11 0 18 0;
#X connect 12 0 18 0;
#X connect 13 0 18 0;
#X connect 14 0 18 0;
#X connect 15 0 18 0;
#X connect 16 0 18 0;
#X connect 17 0 0 0;
#X connect 18 0 19 0;
#X restore 170 128 pd f2s;
#X obj 137 205 l2s;
#X obj 263 154 loadbang;
#X msg 263 173 symbol;
#X obj 137 160 list;
#X obj 138 29 inlet;
#X obj 137 228 outlet;
#X connect 0 0 1 0;
#X connect 0 1 2 0;
#X connect 1 0 4 0;
#X connect 2 0 3 0;
#X connect 3 0 5 0;
#X connect 4 0 9 0;
#X connect 5 0 9 1;
#X connect 6 0 11 0;
#X connect 7 0 8 0;
#X connect 8 0 6 1;
#X connect 9 0 6 0;
#X connect 10 0 0 0;
