#N canvas 442 109 876 586 10;
#X obj 49 22 inlet a long list;
#X obj 282 231 table \$0-histogram 1;
#X obj 104 116 unique;
#X obj 236 192 list length;
#X obj 236 211 t b f;
#X obj 236 230 \$0;
#X obj 236 249 pack;
#X msg 236 268 \; \$1-histogram resize \$2;
#X text 145 116 find uniques in a list;
#N canvas 575 294 450 300 drip 0;
#X obj 40 41 inlet;
#X obj 45 82 list split 1;
#X obj 39 114 t b a;
#X obj 108 139 list;
#X obj 66 195 outlet;
#X connect 0 0 1 0;
#X connect 1 0 2 0;
#X connect 1 1 3 1;
#X connect 2 0 3 0;
#X connect 2 1 4 0;
#X connect 3 0 1 0;
#X restore 121 184 pd drip;
#N canvas 575 294 450 300 drip 0;
#X obj 40 41 inlet;
#X obj 45 82 list split 1;
#X obj 39 114 t b a;
#X obj 108 139 list;
#X obj 66 195 outlet;
#X connect 0 0 1 0;
#X connect 1 0 2 0;
#X connect 1 1 3 1;
#X connect 2 0 3 0;
#X connect 2 1 4 0;
#X connect 3 0 1 0;
#X restore 136 268 pd drip;
#X obj 136 300 sel x;
#X obj 254 360 f;
#X obj 279 360 + 1;
#X obj 209 51 t a a b;
#X obj 136 248 list;
#X obj 248 71 s \$0-resetcount;
#X obj 269 309 r \$0-resetcount;
#X obj 136 332 f;
#X obj 161 332 + 1;
#X obj 121 372 f;
#X msg 269 328 0;
#X obj 121 210 t b b a b b;
#X msg 203 306 1;
#X obj 211 422 pack;
#X obj 211 442 tabwrite \$0-histogram;
#X obj 614 248 outlet listunique;
#X msg 121 467 merge 0 \$1;
#X obj 86 519 coll \$0-histogramout;
#C restore;
#X msg 72 465 dump;
#X obj 104 135 t b a a a;
#X obj 210 469 r \$0-resetcount;
#X msg 210 489 clear;
#X msg 224 17 b b c d a c c a ac a b d;
#X obj 86 541 outlet counts per unique element;
#X text 461 79 input a list and output a histogram of the unique elements.
the nique elements are ordered ascendent. the outputs are the list
of the unique lements and the count for each item.;
#X connect 0 0 14 0;
#X connect 2 0 30 0;
#X connect 3 0 4 0;
#X connect 4 0 5 0;
#X connect 4 1 6 1;
#X connect 5 0 6 0;
#X connect 6 0 7 0;
#X connect 9 0 22 0;
#X connect 10 0 11 0;
#X connect 11 0 18 0;
#X connect 12 0 13 0;
#X connect 12 0 24 1;
#X connect 13 0 12 1;
#X connect 14 0 2 0;
#X connect 14 1 15 1;
#X connect 14 2 16 0;
#X connect 15 0 10 0;
#X connect 17 0 21 0;
#X connect 18 0 19 0;
#X connect 18 0 20 1;
#X connect 19 0 18 1;
#X connect 20 0 24 0;
#X connect 20 0 27 0;
#X connect 21 0 12 1;
#X connect 22 0 20 0;
#X connect 22 1 15 0;
#X connect 22 2 11 1;
#X connect 22 3 23 0;
#X connect 22 4 12 0;
#X connect 23 0 18 1;
#X connect 24 0 25 0;
#X connect 27 0 28 0;
#X connect 28 0 34 0;
#X connect 29 0 28 0;
#X connect 30 0 29 0;
#X connect 30 1 9 0;
#X connect 30 2 3 0;
#X connect 30 3 26 0;
#X connect 31 0 32 0;
#X connect 32 0 28 0;
#X connect 33 0 14 0;
