#N canvas 441 279 450 300 10;
#X obj 62 16 inlet;
#X obj 62 43 route bang;
#X obj 119 83 until;
#X obj 119 102 f;
#X obj 151 117 + 1;
#X obj 125 157 outlet;
#X msg 171 79 0;
#X obj 119 64 t f b;
#X connect 0 0 1 0;
#X connect 1 1 7 0;
#X connect 2 0 3 0;
#X connect 3 0 4 0;
#X connect 3 0 5 0;
#X connect 4 0 3 1;
#X connect 6 0 3 1;
#X connect 7 0 2 0;
#X connect 7 1 6 0;
