#N canvas 440 206 450 300 10;
#X obj 78 81 list split 4;
#X obj 112 128 list split 4;
#X obj 160 155 list split 4;
#X obj 78 254 l2s;
#X obj 303 218 loadbang;
#X msg 303 237 symbol;
#X obj 78 232 pack s s s s;
#N canvas 586 291 675 467 p42s 0;
#X obj 223 143 +;
#X obj 169 161 * 8;
#X obj 188 138 * 4;
#X obj 206 119 * 2;
#X obj 225 100 * 1;
#X obj 209 171 +;
#X obj 198 195 +;
#X obj 169 72 unpack f f f f;
#X obj 198 214 sel 0 1 2 3 4 5 6 7 8 9 10 11 12 13 14 15;
#X msg 92 284 a;
#X msg 120 284 b;
#X msg 147 285 c;
#X msg 172 286 d;
#X msg 198 286 e;
#X msg 227 285 f;
#X msg 255 284 g;
#X msg 282 284 h;
#X msg 310 283 i;
#X msg 339 284 j;
#X msg 366 284 k;
#X msg 394 285 l;
#X msg 421 285 m;
#X msg 446 286 n;
#X msg 474 286 o;
#X msg 500 286 p;
#X obj 169 54 inlet;
#X obj 430 337 symbol;
#X obj 429 367 outlet;
#X connect 0 0 5 1;
#X connect 1 0 6 0;
#X connect 2 0 5 0;
#X connect 3 0 0 0;
#X connect 4 0 0 1;
#X connect 5 0 6 1;
#X connect 6 0 8 0;
#X connect 7 0 1 0;
#X connect 7 1 2 0;
#X connect 7 2 3 0;
#X connect 7 3 4 0;
#X connect 8 0 9 0;
#X connect 8 1 10 0;
#X connect 8 2 11 0;
#X connect 8 3 12 0;
#X connect 8 4 13 0;
#X connect 8 5 14 0;
#X connect 8 6 15 0;
#X connect 8 7 16 0;
#X connect 8 8 17 0;
#X connect 8 9 18 0;
#X connect 8 10 19 0;
#X connect 8 11 20 0;
#X connect 8 12 21 0;
#X connect 8 13 22 0;
#X connect 8 14 23 0;
#X connect 8 15 24 0;
#X connect 9 0 26 0;
#X connect 10 0 26 0;
#X connect 11 0 26 0;
#X connect 12 0 26 0;
#X connect 13 0 26 0;
#X connect 14 0 26 0;
#X connect 15 0 26 0;
#X connect 16 0 26 0;
#X connect 17 0 26 0;
#X connect 18 0 26 0;
#X connect 19 0 26 0;
#X connect 20 0 26 0;
#X connect 21 0 26 0;
#X connect 22 0 26 0;
#X connect 23 0 26 0;
#X connect 24 0 26 0;
#X connect 25 0 7 0;
#X connect 26 0 27 0;
#X restore 78 103 pd p42s;
#N canvas 586 291 658 372 p42s 0;
#X obj 223 143 +;
#X obj 169 161 * 8;
#X obj 188 138 * 4;
#X obj 206 119 * 2;
#X obj 225 100 * 1;
#X obj 209 171 +;
#X obj 198 195 +;
#X obj 169 72 unpack f f f f;
#X obj 198 214 sel 0 1 2 3 4 5 6 7 8 9 10 11 12 13 14 15;
#X msg 68 251 a;
#X msg 96 251 b;
#X msg 123 252 c;
#X msg 148 253 d;
#X msg 174 253 e;
#X msg 203 252 f;
#X msg 231 251 g;
#X msg 258 251 h;
#X msg 286 250 i;
#X msg 315 251 j;
#X msg 342 251 k;
#X msg 370 252 l;
#X msg 397 252 m;
#X msg 422 253 n;
#X msg 450 253 o;
#X msg 476 253 p;
#X obj 169 54 inlet;
#X obj 406 304 symbol;
#X obj 405 334 outlet;
#X connect 0 0 5 1;
#X connect 1 0 6 0;
#X connect 2 0 5 0;
#X connect 3 0 0 0;
#X connect 4 0 0 1;
#X connect 5 0 6 1;
#X connect 6 0 8 0;
#X connect 7 0 1 0;
#X connect 7 1 2 0;
#X connect 7 2 3 0;
#X connect 7 3 4 0;
#X connect 8 0 9 0;
#X connect 8 1 10 0;
#X connect 8 2 11 0;
#X connect 8 3 12 0;
#X connect 8 4 13 0;
#X connect 8 5 14 0;
#X connect 8 6 15 0;
#X connect 8 7 16 0;
#X connect 8 8 17 0;
#X connect 8 9 18 0;
#X connect 8 10 19 0;
#X connect 8 11 20 0;
#X connect 8 12 21 0;
#X connect 8 13 22 0;
#X connect 8 14 23 0;
#X connect 8 15 24 0;
#X connect 9 0 26 0;
#X connect 10 0 26 0;
#X connect 11 0 26 0;
#X connect 12 0 26 0;
#X connect 13 0 26 0;
#X connect 14 0 26 0;
#X connect 15 0 26 0;
#X connect 16 0 26 0;
#X connect 17 0 26 0;
#X connect 18 0 26 0;
#X connect 19 0 26 0;
#X connect 20 0 26 0;
#X connect 21 0 26 0;
#X connect 22 0 26 0;
#X connect 23 0 26 0;
#X connect 24 0 26 0;
#X connect 25 0 7 0;
#X connect 26 0 27 0;
#X restore 107 165 pd p42s;
#N canvas 589 293 684 395 p42s 0;
#X obj 223 143 +;
#X obj 169 161 * 8;
#X obj 188 138 * 4;
#X obj 206 119 * 2;
#X obj 225 100 * 1;
#X obj 209 171 +;
#X obj 198 195 +;
#X obj 169 72 unpack f f f f;
#X obj 198 214 sel 0 1 2 3 4 5 6 7 8 9 10 11 12 13 14 15;
#X msg 68 251 a;
#X msg 96 251 b;
#X msg 123 252 c;
#X msg 148 253 d;
#X msg 174 253 e;
#X msg 203 252 f;
#X msg 231 251 g;
#X msg 258 251 h;
#X msg 286 250 i;
#X msg 315 251 j;
#X msg 342 251 k;
#X msg 370 252 l;
#X msg 397 252 m;
#X msg 422 253 n;
#X msg 450 253 o;
#X msg 476 253 p;
#X obj 169 54 inlet;
#X obj 406 304 symbol;
#X obj 405 334 outlet;
#X connect 0 0 5 1;
#X connect 1 0 6 0;
#X connect 2 0 5 0;
#X connect 3 0 0 0;
#X connect 4 0 0 1;
#X connect 5 0 6 1;
#X connect 6 0 8 0;
#X connect 7 0 1 0;
#X connect 7 1 2 0;
#X connect 7 2 3 0;
#X connect 7 3 4 0;
#X connect 8 0 9 0;
#X connect 8 1 10 0;
#X connect 8 2 11 0;
#X connect 8 3 12 0;
#X connect 8 4 13 0;
#X connect 8 5 14 0;
#X connect 8 6 15 0;
#X connect 8 7 16 0;
#X connect 8 8 17 0;
#X connect 8 9 18 0;
#X connect 8 10 19 0;
#X connect 8 11 20 0;
#X connect 8 12 21 0;
#X connect 8 13 22 0;
#X connect 8 14 23 0;
#X connect 8 15 24 0;
#X connect 9 0 26 0;
#X connect 10 0 26 0;
#X connect 11 0 26 0;
#X connect 12 0 26 0;
#X connect 13 0 26 0;
#X connect 14 0 26 0;
#X connect 15 0 26 0;
#X connect 16 0 26 0;
#X connect 17 0 26 0;
#X connect 18 0 26 0;
#X connect 19 0 26 0;
#X connect 20 0 26 0;
#X connect 21 0 26 0;
#X connect 22 0 26 0;
#X connect 23 0 26 0;
#X connect 24 0 26 0;
#X connect 25 0 7 0;
#X connect 26 0 27 0;
#X restore 137 190 pd p42s;
#N canvas 589 293 615 391 p42s 0;
#X obj 223 143 +;
#X obj 169 161 * 8;
#X obj 188 138 * 4;
#X obj 206 119 * 2;
#X obj 225 100 * 1;
#X obj 209 171 +;
#X obj 198 195 +;
#X obj 169 72 unpack f f f f;
#X obj 198 214 sel 0 1 2 3 4 5 6 7 8 9 10 11 12 13 14 15;
#X msg 68 251 a;
#X msg 96 251 b;
#X msg 123 252 c;
#X msg 148 253 d;
#X msg 174 253 e;
#X msg 203 252 f;
#X msg 231 251 g;
#X msg 258 251 h;
#X msg 286 250 i;
#X msg 315 251 j;
#X msg 342 251 k;
#X msg 370 252 l;
#X msg 397 252 m;
#X msg 422 253 n;
#X msg 450 253 o;
#X msg 476 253 p;
#X obj 169 54 inlet;
#X obj 406 304 symbol;
#X obj 405 334 outlet;
#X connect 0 0 5 1;
#X connect 1 0 6 0;
#X connect 2 0 5 0;
#X connect 3 0 0 0;
#X connect 4 0 0 1;
#X connect 5 0 6 1;
#X connect 6 0 8 0;
#X connect 7 0 1 0;
#X connect 7 1 2 0;
#X connect 7 2 3 0;
#X connect 7 3 4 0;
#X connect 8 0 9 0;
#X connect 8 1 10 0;
#X connect 8 2 11 0;
#X connect 8 3 12 0;
#X connect 8 4 13 0;
#X connect 8 5 14 0;
#X connect 8 6 15 0;
#X connect 8 7 16 0;
#X connect 8 8 17 0;
#X connect 8 9 18 0;
#X connect 8 10 19 0;
#X connect 8 11 20 0;
#X connect 8 12 21 0;
#X connect 8 13 22 0;
#X connect 8 14 23 0;
#X connect 8 15 24 0;
#X connect 9 0 26 0;
#X connect 10 0 26 0;
#X connect 11 0 26 0;
#X connect 12 0 26 0;
#X connect 13 0 26 0;
#X connect 14 0 26 0;
#X connect 15 0 26 0;
#X connect 16 0 26 0;
#X connect 17 0 26 0;
#X connect 18 0 26 0;
#X connect 19 0 26 0;
#X connect 20 0 26 0;
#X connect 21 0 26 0;
#X connect 22 0 26 0;
#X connect 23 0 26 0;
#X connect 24 0 26 0;
#X connect 25 0 7 0;
#X connect 26 0 27 0;
#X restore 184 213 pd p42s;
#X obj 78 4 inlet;
#X obj 78 273 outlet;
#X obj 359 45 length;
#X obj 78 28 t a b;
#X msg 339 117 symbol a;
#X connect 0 0 7 0;
#X connect 0 1 1 0;
#X connect 1 0 8 0;
#X connect 1 1 2 0;
#X connect 2 0 9 0;
#X connect 2 1 10 0;
#X connect 3 0 12 0;
#X connect 4 0 5 0;
#X connect 5 0 3 1;
#X connect 6 0 3 0;
#X connect 7 0 6 0;
#X connect 8 0 6 1;
#X connect 9 0 6 2;
#X connect 10 0 6 3;
#X connect 11 0 14 0;
#X connect 13 0 15 0;
#X connect 14 0 0 0;
#X connect 14 1 13 0;
#X connect 15 0 6 0;
#X connect 15 0 6 1;
#X connect 15 0 6 2;
#X connect 15 0 6 3;
