#N canvas 0 69 450 300 10;
#X obj 53 23 inlet list;
#X obj 53 46 t b a a;
#X obj 214 148 sum;
#X obj 78 96 list split 1;
#X obj 130 137 list;
#X obj 78 119 t b f;
#X obj 105 188 /;
#N canvas 544 469 450 300 makelist 0;
#X obj 241 28 inlet values;
#X obj 52 29 inlet bang to output and reset;
#X obj 321 90 loadbang;
#X msg 321 112 bang;
#X obj 175 145 list;
#X obj 74 202 list;
#X obj 69 74 t b b;
#X obj 73 247 outlet;
#X obj 147 115 list prepend;
#X connect 0 0 8 0;
#X connect 1 0 6 0;
#X connect 2 0 3 0;
#X connect 3 0 5 1;
#X connect 3 0 8 1;
#X connect 4 0 8 1;
#X connect 5 0 7 0;
#X connect 6 0 3 0;
#X connect 6 1 5 0;
#X connect 8 0 4 0;
#X connect 8 0 5 1;
#X restore 53 232 pd makelist;
#X obj 56 262 outlet;
#X connect 0 0 1 0;
#X connect 1 0 7 0;
#X connect 1 1 3 0;
#X connect 1 2 2 0;
#X connect 2 0 6 1;
#X connect 3 0 5 0;
#X connect 3 1 4 1;
#X connect 4 0 3 0;
#X connect 5 0 4 0;
#X connect 5 1 6 0;
#X connect 6 0 7 1;
#X connect 7 0 8 0;
