#N canvas 76 123 1117 527 10;
#X obj 378 39 inlet bang to generate;
#X msg 378 59 32;
#X obj 378 78 iterate;
#X obj 487 144 sel 0;
#X obj 811 129 s \$0-styleandorder;
#X obj 522 175 r \$0-styleandorder;
#X obj 487 195 symbol;
#X msg 811 108 symbol newstyles/\$1-\$2;
#N canvas 490 150 780 581 selectfirst 0;
#X obj 95 24 inlet;
#X obj 95 44 t b b a;
#X text 339 204 one of the possible methods dor selecting a first element
frorm a coll of style for a given step.;
#X text 343 256 the other posssible method is to generate an event
based on the transformations. obviousyu this one is best \, bus still
need to find out how those transformations are going to be. this new
will be called "selecetfirst "b;
#X msg 114 73 length;
#X msg 137 142 dump;
#X obj 245 163 random;
#X obj 137 181 t b a;
#X obj 139 262 list;
#X obj 139 223 sel;
#X obj 278 144 - 2;
#X obj 245 179 + 2;
#X obj 139 204 f;
#X obj 165 201 + 1;
#X msg 198 182 0;
#X obj 137 123 t b b f b;
#X obj 158 300 list length;
#X obj 139 434 packel;
#X obj 158 357 random;
#X obj 158 376 + 1;
#X obj 158 338 t b f;
#X obj 158 319 / 2;
#X obj 158 395 * 2;
#X obj 158 414 - 1;
#X obj 202 260 symbol;
#X obj 139 243 t b b;
#X obj 184 512 outlet;
#X obj 139 453 t a a;
#X msg 139 493 \$2\$1;
#X obj 139 473 list;
#X obj 139 532 outlet;
#X obj 139 281 t a a;
#X obj 139 513 l2s;
#X obj 137 102 coll \$0-first;
#C restore;
#X obj 137 162 coll \$0-first;
#C restore;
#X msg 270 333 symbol;
#X obj 270 313 loadbang;
#X obj 255 384 list split 2;
#X obj 255 364 s2l;
#X obj 289 425 l2s;
#X obj 349 388 loadbang;
#X msg 350 408 symbol;
#X connect 0 0 1 0;
#X connect 1 1 4 0;
#X connect 1 2 33 0;
#X connect 4 0 33 0;
#X connect 5 0 34 0;
#X connect 6 0 11 0;
#X connect 7 0 12 0;
#X connect 7 1 8 1;
#X connect 8 0 31 0;
#X connect 9 0 25 0;
#X connect 10 0 6 1;
#X connect 11 0 9 1;
#X connect 12 0 13 0;
#X connect 12 0 9 0;
#X connect 13 0 12 1;
#X connect 14 0 12 1;
#X connect 15 0 5 0;
#X connect 15 1 6 0;
#X connect 15 2 10 0;
#X connect 15 3 14 0;
#X connect 16 0 21 0;
#X connect 17 0 27 0;
#X connect 18 0 19 0;
#X connect 19 0 22 0;
#X connect 20 0 18 0;
#X connect 20 1 18 1;
#X connect 21 0 20 0;
#X connect 22 0 23 0;
#X connect 23 0 17 1;
#X connect 24 0 38 0;
#X connect 25 0 8 0;
#X connect 25 1 24 0;
#X connect 27 0 29 0;
#X connect 27 1 26 0;
#X connect 28 0 32 0;
#X connect 29 0 28 0;
#X connect 31 0 17 0;
#X connect 31 1 16 0;
#X connect 32 0 30 0;
#X connect 33 0 15 0;
#X connect 34 0 7 0;
#X connect 34 1 24 1;
#X connect 35 0 38 1;
#X connect 36 0 35 0;
#X connect 37 1 39 0;
#X connect 38 0 37 0;
#X connect 39 0 29 1;
#X connect 40 0 41 0;
#X connect 41 0 39 1;
#X restore 487 264 pd selectfirst a;
#X symbolatom 580 305 10 0 0 0 - - -;
#X symbolatom 487 303 10 0 0 0 - - -;
#X text 578 320 first element;
#X text 487 318 first past;
#X obj 239 274 coll \$0-step;
#C restore;
#X obj 93 194 symbol;
#X text 524 141 select first element;
#X text 254 147 load the >0 styles in the coll;
#X obj 212 160 sel 0;
#N canvas 504 239 450 300 newpast 0;
#X msg 43 69 symbol;
#X obj 43 49 loadbang;
#X obj 28 120 list split 2;
#X obj 28 100 s2l;
#X obj 62 174 l2s;
#X obj 123 140 loadbang;
#X msg 123 157 symbol;
#X obj 62 270 outlet;
#X obj 62 216 list;
#X obj 28 27 inlet previous past;
#X obj 207 199 inlet selected event;
#X msg 62 237 symbol \$1\$2;
#X connect 0 0 3 1;
#X connect 1 0 0 0;
#X connect 2 1 4 0;
#X connect 3 0 2 0;
#X connect 4 0 8 0;
#X connect 5 0 6 0;
#X connect 6 0 4 1;
#X connect 8 0 11 0;
#X connect 9 0 3 0;
#X connect 10 0 8 1;
#X connect 11 0 7 0;
#X restore 93 430 pd newpast;
#X text 251 256 search in the coll;
#X obj 93 499 s \$0-past;
#X obj 66 152 sel 0;
#X msg 93 171 bang;
#X obj 126 171 r \$0-past;
#X obj 493 283 s \$0-past;
#X obj 93 257 t s s;
#X obj 266 404 s \$0-selected;
#X obj 586 285 s \$0-selected;
#X obj 268 426 r \$0-selected;
#X obj 378 99 t f f f f;
#X obj 489 116 s \$0-creationindex;
#X obj 360 428 r \$0-creationindex;
#X obj 268 445 pack s f;
#X msg 268 464 \$2 \$1;
#N canvas 803 430 329 300 select 0;
#X obj 34 16 inlet line from coll;
#X obj 34 40 t a a;
#X obj 61 59 list length;
#X obj 61 79 / 2;
#X obj 61 125 random;
#X obj 61 145 + 1;
#X obj 61 165 * 2;
#X obj 34 221 packel;
#X obj 61 190 - 1;
#X obj 34 246 outlet;
#X obj 74 105 t b f;
#X connect 0 0 1 0;
#X connect 1 0 7 0;
#X connect 1 1 2 0;
#X connect 2 0 3 0;
#X connect 3 0 10 0;
#X connect 4 0 5 0;
#X connect 5 0 6 0;
#X connect 6 0 8 0;
#X connect 7 0 9 0;
#X connect 8 0 7 1;
#X connect 10 0 4 0;
#X connect 10 1 4 1;
#X restore 239 364 pd select one randomly;
#X obj 239 383 t s s;
#X obj 317 181 r \$0-styleandorder;
#X obj 284 201 symbol;
#X obj 239 179 t f b;
#X obj 239 223 pack f s;
#X obj 221 298 cnv 15 250 60 empty empty empty 20 12 0 14 -128992 -66577
0;
#N canvas 469 156 632 441 extract 0;
#X obj 22 14 inlet line from coll;
#X obj 49 54 list split 2;
#X obj 49 92 t b a;
#X obj 130 109 list;
#X obj 76 145 list split 1;
#X text 165 79 drop in pairs;
#X text 161 143 pack in separate lists;
#X obj 194 183 list;
#X obj 228 183 list;
#X obj 173 228 list;
#X obj 145 184 t b b;
#X obj 22 34 t b a;
#X msg 22 167 bang;
#X obj 65 212 list;
#X obj 99 212 list;
#X obj 43 254 list;
#X obj 16 213 t b b;
#X obj 43 276 outlet events;
#X obj 173 274 outlet probabilties;
#X connect 0 0 11 0;
#X connect 1 0 2 0;
#X connect 1 1 3 1;
#X connect 2 0 3 0;
#X connect 2 1 4 0;
#X connect 3 0 1 0;
#X connect 4 0 13 0;
#X connect 4 1 7 0;
#X connect 7 0 8 0;
#X connect 7 0 9 1;
#X connect 8 0 7 1;
#X connect 9 0 18 0;
#X connect 10 0 7 1;
#X connect 10 1 9 0;
#X connect 11 0 12 0;
#X connect 11 1 1 0;
#X connect 12 0 10 0;
#X connect 12 0 16 0;
#X connect 13 0 14 0;
#X connect 13 0 15 1;
#X connect 14 0 13 1;
#X connect 15 0 17 0;
#X connect 16 0 13 1;
#X connect 16 1 15 0;
#X restore 246 307 pd extract probabilities;
#X obj 246 329 print events;
#X obj 387 329 print probs;
#X obj 811 88 inlet message with style and order;
#X obj 268 485 outlet;
#X msg 239 243 read ../\$2-\$1;
#X msg 487 215 read ../\$1-0;
#X text 734 209 this patch must be saved in the /abstractions forlder.
The styles must be saved in the /newstyles folder parallel to /abstractions.
;
#X text 784 476 daniel.gomez@upf.edu 2015;
#X connect 0 0 1 0;
#X connect 1 0 2 0;
#X connect 2 0 29 0;
#X connect 3 0 6 0;
#X connect 5 0 6 1;
#X connect 6 0 47 0;
#X connect 7 0 4 0;
#X connect 8 0 10 0;
#X connect 8 0 24 0;
#X connect 8 1 9 0;
#X connect 8 1 27 0;
#X connect 13 0 34 0;
#X connect 13 0 41 0;
#X connect 14 0 25 0;
#X connect 17 1 38 0;
#X connect 18 0 20 0;
#X connect 21 1 22 0;
#X connect 22 0 14 0;
#X connect 23 0 14 1;
#X connect 25 0 18 0;
#X connect 25 1 13 0;
#X connect 28 0 32 0;
#X connect 29 0 21 0;
#X connect 29 1 17 0;
#X connect 29 2 3 0;
#X connect 29 3 30 0;
#X connect 31 0 32 1;
#X connect 32 0 33 0;
#X connect 33 0 45 0;
#X connect 34 0 35 0;
#X connect 35 0 18 1;
#X connect 35 1 26 0;
#X connect 36 0 37 1;
#X connect 37 0 39 1;
#X connect 38 0 39 0;
#X connect 38 1 37 0;
#X connect 39 0 46 0;
#X connect 41 0 42 0;
#X connect 41 1 43 0;
#X connect 44 0 7 0;
#X connect 46 0 13 0;
#X connect 47 0 8 0;
