#N canvas 267 274 401 403 10;
#X floatatom -768 -1084 5 0 0 0 - - -;
#X obj -794 -1060 tgl 15 0 empty empty empty 17 7 0 10 -262144 -1 -1
0 1;
#X text -731 -1085 bmp;
#X text -772 -1063 play/stop;
#X obj -819 -1035 bng 15 250 50 0 empty empty empty 17 7 0 10 -262144
-1 -1;
#X text -795 -1036 steps (to use instead of metro);
#X obj -819 -1011 f 0;
#X obj -789 -1011 + 1;
#X obj -819 -966 hradio 15 1 0 16 empty empty empty 0 -8 0 10 -262144
-1 -1 10;
#X msg -819 -1148 resolution 16;
#X obj -819 -988 mod 16;
#X msg -819 -1168 resolution 8;
#X msg -819 -1127 resolution 32;
#X msg -819 -1188 resolution 4;
#X text -822 -1272 [midi_sync] recibes play/stop messages and bangs-on-step
from an external midi-clock. The quantization factor of the tempo can
be adjusted manually with the method "resolution" (default = 16 = semiquaver
= 16th note). On the third inlet estimates the tempo of the external
source.;
#X text -819 -942 https://github.com/angelfaraldo/pd-symbolic;
#X text -819 -927 angel.faraldo@upf.edu ----- Barcelona \, 2015;
#X obj -819 -1107 midi_sync;
#X connect 4 0 6 0;
#X connect 6 0 7 0;
#X connect 6 0 10 0;
#X connect 7 0 6 1;
#X connect 9 0 17 0;
#X connect 10 0 8 0;
#X connect 11 0 17 0;
#X connect 12 0 17 0;
#X connect 13 0 17 0;
#X connect 17 0 4 0;
#X connect 17 1 1 0;
#X connect 17 2 0 0;
