#N canvas 814 210 450 300 10;
#X obj 156 106 inlet;
#X text 142 88 entra una lista;
#X obj 156 130 t a a;
#X obj 249 147 sum;
#N canvas 279 174 450 471 list_divide_f 0;
#X obj 65 39 inlet;
#X obj 301 38 inlet;
#X text 41 19 list with weights;
#X obj 127 116 list split 1;
#X obj 172 196 list;
#X obj 104 141 t b b f;
#X obj 303 283 list;
#X obj 90 366 list;
#X obj 89 386 outlet;
#X msg 410 92 bang;
#X obj 90 82 t b a b b;
#X obj 235 275 t a a;
#X obj 235 254 list prepend;
#X obj 87 61 list;
#X obj 236 72 t b a;
#X obj 235 187 /;
#X text 299 20 float;
#X obj 250 124 f;
#X connect 0 0 10 0;
#X connect 0 0 13 1;
#X connect 1 0 14 0;
#X connect 3 0 5 0;
#X connect 3 1 4 1;
#X connect 4 0 3 0;
#X connect 5 0 4 0;
#X connect 5 2 15 0;
#X connect 6 0 12 1;
#X connect 7 0 8 0;
#X connect 9 0 12 1;
#X connect 10 0 7 0;
#X connect 10 1 3 0;
#X connect 10 2 9 0;
#X connect 10 3 17 0;
#X connect 11 0 7 1;
#X connect 11 1 6 0;
#X connect 12 0 11 0;
#X connect 13 0 10 0;
#X connect 14 0 13 0;
#X connect 14 1 17 1;
#X connect 15 0 12 0;
#X connect 17 0 15 1;
#X restore 156 177 pd list_divide_f;
#X obj 156 216 outlet;
#X text 156 233 sale normalizada;
#X connect 0 0 2 0;
#X connect 2 0 4 0;
#X connect 2 1 3 0;
#X connect 3 0 4 1;
#X connect 4 0 5 0;
