#N canvas 1 124 1243 644 10;
#X obj 160 100 tgl 20 1 no not kick -59 10 0 10 -262144 -1 -1 0 1;
#X obj 180 100 tgl 20 1 no noo empty 17 7 0 10 -262144 -1 -1 0 1;
#X obj 200 100 tgl 20 1 no noo empty 17 7 0 10 -262144 -1 -1 0 1;
#X obj 220 100 tgl 20 1 no noo empty 17 7 0 10 -262144 -1 -1 0 1;
#X obj 240 100 tgl 20 1 no noo empty 17 7 0 10 -262144 -1 -1 0 1;
#X obj 260 100 tgl 20 1 no noo empty 17 7 0 10 -262144 -1 -1 0 1;
#X obj 280 100 tgl 20 1 no noo empty 17 7 0 10 -262144 -1 -1 0 1;
#X obj 300 100 tgl 20 1 no noo empty 17 7 0 10 -262144 -1 -1 0 1;
#X msg 198 252 1;
#X obj 159 235 t f b;
#X obj 180 135 t f b;
#X msg 217 195 2;
#X obj 161 290 t f b;
#X msg 199 306 3;
#X obj 163 345 t f b;
#X msg 201 362 4;
#X obj 249 186 t f b;
#X msg 285 201 5;
#X obj 250 239 t f b;
#X msg 289 258 6;
#X obj 251 296 t f b;
#X msg 289 313 7;
#X obj 251 351 t f b;
#X msg 289 367 8;
#X msg 986 120 bang;
#X obj 320 100 tgl 20 1 no noo empty 17 7 0 10 -262144 -1 -1 0 1;
#X obj 340 100 tgl 20 1 no noo empty 17 7 0 10 -262144 -1 -1 0 1;
#X obj 360 100 tgl 20 1 no noo empty 17 7 0 10 -262144 -1 -1 0 1;
#X obj 380 100 tgl 20 1 no noo empty 17 7 0 10 -262144 -1 -1 0 1;
#X obj 400 100 tgl 20 1 no noo empty 17 7 0 10 -262144 -1 -1 0 1;
#X obj 420 100 tgl 20 1 no noo empty 17 7 0 10 -262144 -1 -1 0 1;
#X obj 440 100 tgl 20 1 no noo empty 17 7 0 10 -262144 -1 -1 0 1;
#X obj 460 100 tgl 20 1 no noo empty 17 7 0 10 -262144 -1 -1 0 1;
#X obj 321 204 t f b;
#X obj 320 258 t f b;
#X obj 322 323 t f b;
#X obj 326 382 t f b;
#X obj 395 222 t f b;
#X obj 397 274 t f b;
#X obj 400 328 t f b;
#X obj 403 386 t f b;
#X msg 1029 120 bang;
#X msg 360 221 9;
#X msg 358 275 10;
#X msg 360 340 11;
#X msg 364 399 12;
#X msg 431 237 13;
#X msg 460 291 14;
#X msg 438 345 15;
#X msg 441 403 16;
#X obj 869 21 loadbang;
#X obj 179 217 tabwrite \$1;
#X obj 159 271 tabwrite \$1;
#X obj 161 327 tabwrite \$1;
#X obj 163 383 tabwrite \$1;
#X obj 249 222 tabwrite \$1;
#X obj 251 279 tabwrite \$1;
#X obj 251 334 tabwrite \$1;
#X obj 251 388 tabwrite \$1;
#X obj 321 243 tabwrite \$1;
#X obj 320 297 tabwrite \$1;
#X obj 322 361 tabwrite \$1;
#X obj 326 420 tabwrite \$1;
#X obj 395 254 tabwrite \$1;
#X obj 397 309 tabwrite \$1;
#X obj 400 362 tabwrite \$1;
#X obj 403 420 tabwrite \$1;
#X obj 970 550 s;
#X obj 948 57 symbol \$1-change;
#X obj 160 57 symbol \$1;
#X msg 160 77 label \$1;
#X msg 915 499 set \$1;
#X obj 888 465 symbol \$1;
#X text 997 528 send a message called \$1-change;
#X text 997 546 with the array name and the string;
#X obj 887 533 list prepend;
#X obj 888 482 t a a;
#X obj 869 40 t b b b;
#X obj 887 516 tabdump \$1;
#X obj 887 569 outlet;
#X text 928 569 output array name and the string;
#X obj 208 17 inlet;
#X obj 293 36 r \$1-string;
#X text 1065 26 Make a table called \$1;
#X text 1064 37 And write the string;
#X text 1064 47 with a 0 prepending;
#X obj 341 501 table \$1 33;
#X obj 208 36 list split 32;
#X obj 480 100 tgl 20 1 no not empty 4 -9 0 10 -262144 -1 -1 0 1;
#X obj 500 100 tgl 20 1 no noo empty 17 7 0 10 -262144 -1 -1 0 1;
#X obj 520 100 tgl 20 1 no noo empty 17 7 0 10 -262144 -1 -1 0 1;
#X obj 540 100 tgl 20 1 no noo empty 17 7 0 10 -262144 -1 -1 0 1;
#X obj 560 100 tgl 20 1 no noo empty 17 7 0 10 -262144 -1 -1 0 1;
#X obj 580 100 tgl 20 1 no noo empty 17 7 0 10 -262144 -1 -1 0 1;
#X obj 600 100 tgl 20 1 no noo empty 17 7 0 10 -262144 -1 -1 0 1;
#X obj 620 100 tgl 20 1 no noo empty 17 7 0 10 -262144 -1 -1 0 1;
#X obj 479 235 t f b;
#X obj 500 135 t f b;
#X obj 481 290 t f b;
#X obj 483 345 t f b;
#X obj 569 186 t f b;
#X obj 570 239 t f b;
#X obj 571 296 t f b;
#X obj 571 351 t f b;
#X obj 640 100 tgl 20 1 no noo empty 17 7 0 10 -262144 -1 -1 0 1;
#X obj 660 100 tgl 20 1 no noo empty 17 7 0 10 -262144 -1 -1 0 1;
#X obj 680 100 tgl 20 1 no noo empty 17 7 0 10 -262144 -1 -1 0 1;
#X obj 700 100 tgl 20 1 no noo empty 17 7 0 10 -262144 -1 -1 0 1;
#X obj 720 100 tgl 20 1 no noo empty 17 7 0 10 -262144 -1 -1 0 1;
#X obj 740 100 tgl 20 1 no noo empty 17 7 0 10 -262144 -1 -1 0 1;
#X obj 760 100 tgl 20 1 no noo empty 17 7 0 10 -262144 -1 -1 0 1;
#X obj 780 100 tgl 20 1 no noo empty 17 7 0 10 -262144 -1 -1 0 1;
#X obj 641 204 t f b;
#X obj 640 258 t f b;
#X obj 642 323 t f b;
#X obj 646 382 t f b;
#X obj 715 222 t f b;
#X obj 717 274 t f b;
#X obj 720 328 t f b;
#X obj 723 386 t f b;
#X obj 499 217 tabwrite \$1;
#X obj 479 271 tabwrite \$1;
#X obj 481 327 tabwrite \$1;
#X obj 483 383 tabwrite \$1;
#X obj 569 222 tabwrite \$1;
#X obj 571 279 tabwrite \$1;
#X obj 571 334 tabwrite \$1;
#X obj 571 388 tabwrite \$1;
#X obj 641 243 tabwrite \$1;
#X obj 640 297 tabwrite \$1;
#X obj 642 361 tabwrite \$1;
#X obj 646 420 tabwrite \$1;
#X obj 715 254 tabwrite \$1;
#X obj 717 309 tabwrite \$1;
#X obj 720 362 tabwrite \$1;
#X obj 723 420 tabwrite \$1;
#X obj 293 57 unpack f f f f f f f f f f f f f f f f f f f f f f f
f f f f f f f f f;
#X msg 518 252 17;
#X msg 537 195 18;
#X msg 519 306 19;
#X msg 521 362 20;
#X msg 605 201 21;
#X msg 609 258 22;
#X msg 609 313 23;
#X msg 609 367 24;
#X msg 680 221 25;
#X msg 678 275 26;
#X msg 680 340 27;
#X msg 684 399 28;
#X msg 751 237 29;
#X msg 780 291 30;
#X msg 758 345 31;
#X msg 761 403 32;
#X obj 446 2 r \$1-allocate;
#X obj 446 21 route 0 1 2 3 4 5 6 7 8 9 10 11 12 13 14 15 16 17 18
19 20 21 22 23 24 25 26 27 28 29 30 31;
#X connect 0 0 9 0;
#X connect 0 0 24 0;
#X connect 1 0 10 0;
#X connect 1 0 24 0;
#X connect 2 0 12 0;
#X connect 2 0 24 0;
#X connect 3 0 14 0;
#X connect 3 0 24 0;
#X connect 4 0 16 0;
#X connect 4 0 24 0;
#X connect 5 0 18 0;
#X connect 5 0 24 0;
#X connect 6 0 20 0;
#X connect 6 0 24 0;
#X connect 7 0 22 0;
#X connect 7 0 24 0;
#X connect 8 0 52 1;
#X connect 9 0 52 0;
#X connect 9 1 8 0;
#X connect 10 0 51 0;
#X connect 10 1 11 0;
#X connect 11 0 51 1;
#X connect 12 0 53 0;
#X connect 12 1 13 0;
#X connect 13 0 53 1;
#X connect 14 0 54 0;
#X connect 14 1 15 0;
#X connect 15 0 54 1;
#X connect 16 0 55 0;
#X connect 16 1 17 0;
#X connect 17 0 55 1;
#X connect 18 0 56 0;
#X connect 18 1 19 0;
#X connect 19 0 56 1;
#X connect 20 0 57 0;
#X connect 20 1 21 0;
#X connect 21 0 57 1;
#X connect 22 0 58 0;
#X connect 22 1 23 0;
#X connect 23 0 58 1;
#X connect 24 0 78 0;
#X connect 25 0 33 0;
#X connect 25 0 41 0;
#X connect 26 0 34 0;
#X connect 26 0 41 0;
#X connect 27 0 35 0;
#X connect 27 0 41 0;
#X connect 28 0 36 0;
#X connect 28 0 41 0;
#X connect 29 0 37 0;
#X connect 29 0 41 0;
#X connect 30 0 38 0;
#X connect 30 0 41 0;
#X connect 31 0 39 0;
#X connect 31 0 41 0;
#X connect 32 0 40 0;
#X connect 32 0 41 0;
#X connect 33 0 59 0;
#X connect 33 1 42 0;
#X connect 34 0 60 0;
#X connect 34 1 43 0;
#X connect 35 0 61 0;
#X connect 35 1 44 0;
#X connect 36 0 62 0;
#X connect 36 1 45 0;
#X connect 37 0 63 0;
#X connect 37 1 46 0;
#X connect 38 0 64 0;
#X connect 38 1 47 0;
#X connect 39 0 65 0;
#X connect 39 1 48 0;
#X connect 40 0 66 0;
#X connect 40 1 49 0;
#X connect 41 0 78 0;
#X connect 42 0 59 1;
#X connect 43 0 60 1;
#X connect 44 0 61 1;
#X connect 45 0 62 1;
#X connect 46 0 63 1;
#X connect 47 0 64 1;
#X connect 48 0 65 1;
#X connect 49 0 66 1;
#X connect 50 0 77 0;
#X connect 68 0 67 1;
#X connect 69 0 70 0;
#X connect 70 0 0 0;
#X connect 71 0 78 0;
#X connect 72 0 76 0;
#X connect 75 0 67 0;
#X connect 75 0 79 0;
#X connect 76 0 75 1;
#X connect 76 1 71 0;
#X connect 77 0 69 0;
#X connect 77 1 72 0;
#X connect 77 2 68 0;
#X connect 78 0 75 0;
#X connect 81 0 87 0;
#X connect 82 0 136 0;
#X connect 87 0 136 0;
#X connect 88 0 96 0;
#X connect 89 0 97 0;
#X connect 90 0 98 0;
#X connect 91 0 99 0;
#X connect 92 0 100 0;
#X connect 93 0 101 0;
#X connect 94 0 102 0;
#X connect 95 0 103 0;
#X connect 96 0 121 0;
#X connect 96 1 137 0;
#X connect 97 0 120 0;
#X connect 97 1 138 0;
#X connect 98 0 122 0;
#X connect 98 1 139 0;
#X connect 99 0 123 0;
#X connect 99 1 140 0;
#X connect 100 0 124 0;
#X connect 100 1 141 0;
#X connect 101 0 125 0;
#X connect 101 1 142 0;
#X connect 102 0 126 0;
#X connect 102 1 143 0;
#X connect 103 0 127 0;
#X connect 103 1 144 0;
#X connect 104 0 112 0;
#X connect 105 0 113 0;
#X connect 106 0 114 0;
#X connect 107 0 115 0;
#X connect 108 0 116 0;
#X connect 109 0 117 0;
#X connect 110 0 118 0;
#X connect 111 0 119 0;
#X connect 112 0 128 0;
#X connect 112 1 145 0;
#X connect 113 0 129 0;
#X connect 113 1 146 0;
#X connect 114 0 130 0;
#X connect 114 1 147 0;
#X connect 115 0 131 0;
#X connect 115 1 148 0;
#X connect 116 0 132 0;
#X connect 116 1 149 0;
#X connect 117 0 133 0;
#X connect 117 1 150 0;
#X connect 118 0 134 0;
#X connect 118 1 151 0;
#X connect 119 0 135 0;
#X connect 119 1 152 0;
#X connect 136 0 0 0;
#X connect 136 1 1 0;
#X connect 136 2 2 0;
#X connect 136 3 3 0;
#X connect 136 4 4 0;
#X connect 136 5 5 0;
#X connect 136 6 6 0;
#X connect 136 7 7 0;
#X connect 136 8 25 0;
#X connect 136 9 26 0;
#X connect 136 10 27 0;
#X connect 136 11 28 0;
#X connect 136 12 29 0;
#X connect 136 13 30 0;
#X connect 136 14 31 0;
#X connect 136 15 32 0;
#X connect 136 16 88 0;
#X connect 136 17 89 0;
#X connect 136 18 90 0;
#X connect 136 19 91 0;
#X connect 136 20 92 0;
#X connect 136 21 93 0;
#X connect 136 22 94 0;
#X connect 136 23 95 0;
#X connect 136 24 104 0;
#X connect 136 25 105 0;
#X connect 136 26 106 0;
#X connect 136 27 107 0;
#X connect 136 28 108 0;
#X connect 136 29 109 0;
#X connect 136 30 110 0;
#X connect 136 31 111 0;
#X connect 137 0 121 1;
#X connect 138 0 120 1;
#X connect 139 0 122 1;
#X connect 140 0 123 1;
#X connect 141 0 124 1;
#X connect 142 0 125 1;
#X connect 143 0 126 1;
#X connect 144 0 127 1;
#X connect 145 0 128 1;
#X connect 146 0 129 1;
#X connect 147 0 130 1;
#X connect 148 0 131 1;
#X connect 149 0 132 1;
#X connect 150 0 133 1;
#X connect 151 0 134 1;
#X connect 152 0 135 1;
#X connect 153 0 154 0;
#X connect 154 0 0 0;
#X connect 154 1 1 0;
#X connect 154 2 2 0;
#X connect 154 3 3 0;
#X connect 154 4 4 0;
#X connect 154 5 5 0;
#X connect 154 6 6 0;
#X connect 154 7 7 0;
#X connect 154 8 25 0;
#X connect 154 9 26 0;
#X connect 154 10 27 0;
#X connect 154 11 28 0;
#X connect 154 12 29 0;
#X connect 154 13 30 0;
#X connect 154 14 31 0;
#X connect 154 15 32 0;
#X connect 154 16 88 0;
#X connect 154 17 89 0;
#X connect 154 18 90 0;
#X connect 154 19 91 0;
#X connect 154 20 92 0;
#X connect 154 21 93 0;
#X connect 154 22 94 0;
#X connect 154 23 95 0;
#X connect 154 24 104 0;
#X connect 154 25 105 0;
#X connect 154 26 106 0;
#X connect 154 27 107 0;
#X connect 154 28 108 0;
#X connect 154 29 109 0;
#X connect 154 30 110 0;
#X connect 154 31 111 0;
#X coords 0 -1 1 1 700 20 2 100 100;
