#N canvas 0 54 1280 746 10;
#X obj 878 -25 loadbang;
#X obj 970 550 s;
#X obj 948 57 symbol \$1-change;
#X msg 915 499 set \$1;
#X obj 888 465 symbol \$1;
#X text 997 528 send a message called \$1-change;
#X text 997 546 with the array name and the string;
#X obj 887 533 list prepend;
#X obj 888 482 t a a;
#X obj 869 40 t b b b;
#X obj 887 516 tabdump \$1;
#X obj 887 569 outlet;
#X text 928 569 output array name and the string;
#X obj 168 -137 inlet;
#X obj 261 -95 r \$1-string;
#X text 1065 26 Make a table called \$1;
#X text 1064 37 And write the string;
#X text 1064 47 with a 0 prepending;
#X obj 341 501 table \$1 33;
#X obj 168 -118 list split 32;
#X obj 11 128 s;
#X msg 152 71 \$2 \$1;
#X obj 29 -13 r \$1-allocate;
#X obj 17 45 unpack 0 0;
#X msg 30 8 \$2 \$1;
#X obj 213 -8 f 0;
#X msg 256 -62 0;
#X obj 260 -10 + 1;
#X obj 47 71 sprintf symbol \$1-in-%d;
#X obj 190 18 pack 0 0;
#X msg 141 13 1 1;
#X obj 103 123 cnv 15 40 15 empty empty \$1 0 8 1 16 -128992 -228856
0;
#N canvas 423 460 450 300 drip 0;
#X obj 93 10 inlet;
#X obj 50 224 outlet;
#X obj 44 90 list split 1;
#X obj 43 116 t b a;
#X obj 83 140 list;
#X connect 0 0 2 0;
#X connect 2 0 3 0;
#X connect 2 1 4 1;
#X connect 3 0 4 0;
#X connect 3 1 1 0;
#X connect 4 0 2 0;
#X restore 180 -60 pd drip;
#X obj 186 -84 t l b;
#X obj 178 -37 t f b;
#X obj 160 121 1-toggle \$1 0;
#X obj 200 121 1-toggle \$1 1;
#X obj 240 121 1-toggle \$1 2;
#X obj 280 121 1-toggle \$1 3;
#X obj 320 121 1-toggle \$1 4;
#X obj 360 121 1-toggle \$1 5;
#X obj 400 121 1-toggle \$1 6;
#X obj 440 121 1-toggle \$1 7;
#X obj 480 121 1-toggle \$1 8;
#X obj 520 121 1-toggle \$1 9;
#X obj 560 121 1-toggle \$1 10;
#X obj 600 121 1-toggle \$1 11;
#X obj 640 121 1-toggle \$1 12;
#X obj 680 121 1-toggle \$1 13;
#X obj 720 121 1-toggle \$1 14;
#X obj 760 121 1-toggle \$1 15;
#X obj 800 121 1-toggle \$1 16;
#X obj 840 121 1-toggle \$1 17;
#X obj 880 121 1-toggle \$1 18;
#X obj 920 121 1-toggle \$1 19;
#X obj 960 121 1-toggle \$1 20;
#X obj 1000 121 1-toggle \$1 21;
#X obj 1040 121 1-toggle \$1 22;
#X obj 1080 121 1-toggle \$1 23;
#X obj 1120 121 1-toggle \$1 24;
#X obj 1160 121 1-toggle \$1 25;
#X obj 1200 121 1-toggle \$1 26;
#X obj 1240 121 1-toggle \$1 27;
#X obj 1280 121 1-toggle \$1 28;
#X obj 1320 121 1-toggle \$1 29;
#X obj 1360 121 1-toggle \$1 30;
#X obj 1400 121 1-toggle \$1 31;
#X connect 2 0 1 1;
#X connect 3 0 10 0;
#X connect 4 0 8 0;
#X connect 7 0 1 0;
#X connect 7 0 11 0;
#X connect 8 0 7 1;
#X connect 8 1 3 0;
#X connect 9 1 4 0;
#X connect 9 2 2 0;
#X connect 10 0 7 0;
#X connect 13 0 19 0;
#X connect 14 0 33 0;
#X connect 19 0 33 0;
#X connect 22 0 24 0;
#X connect 23 0 20 0;
#X connect 23 1 28 0;
#X connect 24 0 23 0;
#X connect 25 0 27 0;
#X connect 25 0 29 1;
#X connect 26 0 25 1;
#X connect 27 0 25 1;
#X connect 28 0 20 1;
#X connect 29 0 23 0;
#X connect 30 0 23 0;
#X connect 32 0 34 0;
#X connect 33 0 32 0;
#X connect 33 1 26 0;
#X connect 34 0 29 0;
#X connect 34 1 25 0;
#X coords 0 -1 1 1 1340 40 2 100 121;
