#N canvas 171 129 604 343 10;
#X obj 181 83 +;
#X obj 166 111 +;
#X obj 151 129 +;
#X obj 127 12 unpack f f f f;
#X obj 151 154 sel 0 1 2 3 4 5 6 7 8 9 10 11 12 13 14 15;
#X msg 21 191 a;
#X msg 49 191 b;
#X msg 76 192 c;
#X msg 375 193 n;
#X msg 403 193 o;
#X msg 429 193 p;
#X obj 127 -21 inlet;
#X obj 21 225 symbol;
#X obj 21 247 outlet;
#X obj 127 101 * 1;
#X obj 154 70 * 2;
#X obj 181 40 * 4;
#X obj 208 44 * 8;
#X text 233 18 this order of the letters optimizes the combos to be
more to the right. The higher the letter \, the highet the combo.;
#X floatatom 226 119 5 0 0 0 - - -;
#X msg 86 277 a;
#X msg 114 277 b;
#X msg 141 278 c;
#X msg 440 279 n;
#X msg 468 279 o;
#X msg 494 279 p;
#X msg 192 279 d;
#X msg 304 276 e;
#X msg 166 279 f;
#X msg 221 278 g;
#X msg 333 277 h;
#X msg 249 277 i;
#X msg 277 277 l;
#X msg 360 277 j;
#X msg 415 278 k;
#X msg 388 278 m;
#X text 168 -22 inlet a pattern;
#X msg 101 193 f;
#X msg 127 193 d;
#X msg 156 192 g;
#X msg 184 191 i;
#X msg 212 191 l;
#X msg 239 190 e;
#X msg 268 191 h;
#X msg 295 191 j;
#X msg 323 192 m;
#X msg 350 192 k;
#X connect 0 0 1 1;
#X connect 1 0 2 1;
#X connect 2 0 4 0;
#X connect 3 0 14 0;
#X connect 3 1 15 0;
#X connect 3 2 16 0;
#X connect 3 3 17 0;
#X connect 4 0 5 0;
#X connect 4 1 6 0;
#X connect 4 2 7 0;
#X connect 4 3 37 0;
#X connect 4 4 38 0;
#X connect 4 5 39 0;
#X connect 4 6 40 0;
#X connect 4 7 41 0;
#X connect 4 8 42 0;
#X connect 4 9 43 0;
#X connect 4 10 44 0;
#X connect 4 11 45 0;
#X connect 4 12 46 0;
#X connect 4 13 8 0;
#X connect 4 14 9 0;
#X connect 4 15 10 0;
#X connect 5 0 12 0;
#X connect 6 0 12 0;
#X connect 7 0 12 0;
#X connect 8 0 12 0;
#X connect 9 0 12 0;
#X connect 10 0 12 0;
#X connect 11 0 3 0;
#X connect 12 0 13 0;
#X connect 14 0 2 0;
#X connect 15 0 1 0;
#X connect 16 0 0 0;
#X connect 17 0 0 1;
#X connect 19 0 4 0;
#X connect 37 0 12 0;
#X connect 38 0 12 0;
#X connect 39 0 12 0;
#X connect 40 0 12 0;
#X connect 41 0 12 0;
#X connect 42 0 12 0;
#X connect 43 0 12 0;
#X connect 44 0 12 0;
#X connect 45 0 12 0;
#X connect 46 0 12 0;
