#N canvas 346 26 779 682 10;
#X obj 98 93 t a a;
#X obj 98 37 inlet;
#X obj 32 40 inlet;
#X obj 32 628 outlet;
#X obj 32 256 int;
#X text 91 21 pattern;
#X text 29 23 density;
#N canvas 56 125 1188 660 cooked_salience 1;
#X obj 30 33 inlet;
#X obj 148 136 list split 1;
#X obj 278 164 list split 1;
#X obj 187 180 == 1;
#X obj 214 226 &&;
#X obj 196 157 list;
#X obj 211 98 list split 1;
#X obj 148 116 list append;
#X obj 265 396 list;
#X obj 166 486 list;
#X obj 187 396 list prepend;
#X obj 166 558 list split 1;
#X msg 630 134 bang;
#X obj 235 520 list length;
#X obj 166 503 t a a;
#X obj 235 539 - 1;
#X obj 265 281 f;
#X obj 300 280 + 1;
#X msg 556 69 0;
#X msg 265 262 bang;
#N canvas 0 22 450 300 (subpatch) 0;
#X array \$0-salience 32 float 1;
#A 0 -1 15 -2 16 -13 3 -14 4 -5 11 -6 12 -9 7 -10 8 -3 13 -4 14 -15
1 -16 2 -7 9 -8 10 -11 5 -12 6;
#X coords 0 16 31 -16 200 140 1 0 0;
#X restore 778 31 graph;
#X obj 214 326 *;
#X obj 166 586 outlet;
#X text 409 19 find the salient notes of a rhythmic phrase;
#X obj 531 586 outlet;
#X text 512 603 solo positivos;
#X text 511 617 (syncopations);
#X obj 350 590 outlet;
#X text 331 603 solo negativos;
#X text 327 614 (reinforcements);
#X obj 632 456 list;
#X obj 531 482 list;
#X obj 552 456 list prepend;
#X obj 531 556 list split 1;
#X obj 600 518 list length;
#X obj 531 501 t a a;
#X obj 600 537 - 1;
#X obj 265 300 tabread \$0-salience;
#X obj 457 458 list;
#X obj 350 482 list;
#X obj 371 457 list prepend;
#X obj 350 571 list split 1;
#X obj 419 533 list length;
#X obj 350 516 t a a;
#X obj 419 552 - 1;
#X text 137 607 notas que no son sync o reinf;
#X obj 214 245 t f b;
#X obj 278 183 t f f;
#X obj 308 202 == 0;
#X obj 278 202 == 1;
#X obj 187 226 &&;
#X obj 187 199 t f f;
#X msg 390 413 0;
#X obj 432 370 moses 0;
#X msg 490 416 0;
#X obj 432 343 int;
#X obj 887 589 outlet;
#X text 870 606 How many syncopations?;
#X obj 902 458 f;
#X obj 927 458 + 1;
#X obj 887 483 f;
#X obj 857 404 sel 0;
#X msg 884 431 bang;
#X obj 711 595 outlet;
#X obj 711 465 f;
#X obj 733 465 + 1;
#X obj 711 483 f;
#X obj 684 422 sel 0;
#X msg 711 441 bang;
#X text 702 612 How many reinforcements?;
#X obj 166 465 t b b b b b;
#X obj 187 324 *;
#X obj 129 396 list;
#X obj 30 443 list;
#X obj 51 396 list prepend;
#X obj 30 517 list split 1;
#X obj 78 477 list length;
#X obj 30 460 t a a;
#X obj 78 496 - 1;
#X obj 30 596 outlet;
#X text 7 608 weighted silences;
#X obj 51 297 != 1;
#X obj 148 157 t b f f;
#X obj 30 52 t b b a a b b;
#X obj 51 317 *;
#X obj 51 345 int;
#X text 238 327 note (pre 0) weighted;
#X obj 490 387 t b f f;
#X obj 371 387 t f b f;
#X msg 744 441 1;
#X msg 917 431 1;
#X msg 1075 466 0;
#X obj 477 278 t b b b b b b b;
#X msg 721 192 \; salience 0 -1 4 -3 6 -6 0.5 -6.5 1 -6 0.5 -6.5 1
-4 1.5 -5.5 3 -1 4 -3 6 -6 0.5 -6.5 1 -6 0.5 -6.5 1 -4 1.5 -5.5 3;
#X msg 751 260 -1 15 -2 16 -13 3 -14 4 -5 11 -6 12 -9 7 -10 8 -3 13
-4 14 -15 1 -16 2 -7 9 -8 10 -11 5 -12 6;
#X obj 751 301 tabset \$0-salience;
#X text 1078 203 16x2;
#X text 1121 262 32;
#X connect 0 0 83 0;
#X connect 1 0 82 0;
#X connect 1 1 2 0;
#X connect 1 1 5 1;
#X connect 2 0 47 0;
#X connect 3 0 51 0;
#X connect 4 0 46 0;
#X connect 5 0 1 0;
#X connect 6 0 7 1;
#X connect 7 0 1 0;
#X connect 8 0 10 1;
#X connect 9 0 14 0;
#X connect 10 0 8 0;
#X connect 10 0 9 1;
#X connect 11 0 22 0;
#X connect 12 0 92 0;
#X connect 13 0 15 0;
#X connect 14 0 11 0;
#X connect 14 1 13 0;
#X connect 15 0 11 1;
#X connect 16 0 17 0;
#X connect 16 0 37 0;
#X connect 17 0 16 1;
#X connect 18 0 16 1;
#X connect 19 0 16 0;
#X connect 21 0 55 0;
#X connect 30 0 32 1;
#X connect 31 0 35 0;
#X connect 32 0 30 0;
#X connect 32 0 31 1;
#X connect 33 0 24 0;
#X connect 34 0 36 0;
#X connect 35 0 33 0;
#X connect 35 1 34 0;
#X connect 36 0 33 1;
#X connect 37 0 21 1;
#X connect 37 0 71 1;
#X connect 37 0 84 1;
#X connect 38 0 40 1;
#X connect 39 0 43 0;
#X connect 40 0 38 0;
#X connect 40 0 39 1;
#X connect 41 0 27 0;
#X connect 42 0 44 0;
#X connect 43 0 41 0;
#X connect 43 1 42 0;
#X connect 44 0 41 1;
#X connect 46 0 21 0;
#X connect 46 1 19 0;
#X connect 47 0 49 0;
#X connect 47 1 48 0;
#X connect 48 0 4 1;
#X connect 49 0 50 1;
#X connect 50 0 71 0;
#X connect 51 0 50 0;
#X connect 51 1 4 0;
#X connect 52 0 32 0;
#X connect 53 0 88 0;
#X connect 53 1 87 0;
#X connect 54 0 40 0;
#X connect 55 0 53 0;
#X connect 58 0 59 0;
#X connect 58 0 60 1;
#X connect 59 0 58 1;
#X connect 60 0 56 0;
#X connect 61 1 62 0;
#X connect 62 0 58 0;
#X connect 64 0 65 0;
#X connect 64 0 66 1;
#X connect 65 0 64 1;
#X connect 66 0 63 0;
#X connect 67 1 68 0;
#X connect 68 0 64 0;
#X connect 70 0 9 0;
#X connect 70 1 39 0;
#X connect 70 2 31 0;
#X connect 70 3 66 0;
#X connect 70 4 60 0;
#X connect 71 0 10 0;
#X connect 72 0 74 1;
#X connect 73 0 77 0;
#X connect 74 0 72 0;
#X connect 74 0 73 1;
#X connect 75 0 79 0;
#X connect 76 0 78 0;
#X connect 77 0 75 0;
#X connect 77 1 76 0;
#X connect 78 0 75 1;
#X connect 81 0 84 0;
#X connect 82 0 5 0;
#X connect 82 1 81 0;
#X connect 82 2 3 0;
#X connect 83 0 73 0;
#X connect 83 1 70 0;
#X connect 83 2 7 0;
#X connect 83 3 6 0;
#X connect 83 4 12 0;
#X connect 83 5 18 0;
#X connect 84 0 85 0;
#X connect 85 0 74 0;
#X connect 87 0 54 0;
#X connect 87 1 32 0;
#X connect 87 2 61 0;
#X connect 88 0 40 0;
#X connect 88 1 52 0;
#X connect 88 2 67 0;
#X connect 89 0 64 1;
#X connect 90 0 58 1;
#X connect 91 0 60 1;
#X connect 91 0 66 1;
#X connect 92 0 74 1;
#X connect 92 1 10 1;
#X connect 92 2 40 1;
#X connect 92 3 32 1;
#X connect 92 4 89 0;
#X connect 92 5 90 0;
#X connect 92 6 91 0;
#X connect 94 0 95 0;
#X restore 125 112 pd cooked_salience;
#X obj 188 135 l2s;
#X symbolatom 306 115 40 0 0 0 - - -;
#X obj 167 153 l2s;
#X symbolatom 306 133 40 0 0 0 - - -;
#X obj 146 172 l2s;
#X symbolatom 306 151 40 0 0 0 - - -;
#X obj 306 54 l2s;
#X symbolatom 306 96 40 0 0 0 - - -;
#X obj 98 69 list;
#X msg 145 70 bang;
#X text 348 162 |;
#X text 397 162 |;
#X text 445 162 |;
#X text 494 162 |;
#X text 549 94 all;
#X text 549 113 syncopations;
#X text 547 131 reinforcements;
#X text 551 151 nothing;
#X obj 309 266 l2s;
#X symbolatom 309 286 40 0 0 0 - - -;
#X text 350 269 |;
#X text 399 269 |;
#X text 447 269 |;
#X text 496 269 |;
#X text 551 285 order syncopations and next silences;
#X text 348 79 |;
#X text 397 79 |;
#X text 445 79 |;
#X text 494 79 |;
#N canvas 263 155 817 634 order-syncopations 0;
#X obj 333 32 inlet;
#X obj 498 106 list split 1;
#X obj 498 136 t b f;
#X obj 530 161 list;
#X obj 57 518 outlet;
#X obj 490 181 sel 0;
#X obj 518 202 list prepend;
#X obj 599 201 list;
#X obj 442 219 list;
#X obj 479 84 t b a b;
#X msg 587 174 bang;
#X obj 468 288 list split 1;
#X obj 468 318 t b f;
#X obj 500 343 list;
#X obj 474 383 list prepend;
#X obj 555 382 list;
#X obj 443 411 list;
#X obj 443 261 t b a b;
#X msg 543 355 bang;
#X obj 465 361 change;
#X obj 174 278 list split 1;
#X obj 174 308 t b f;
#X obj 206 333 list;
#X obj 135 477 list prepend;
#X obj 216 476 list;
#X obj 59 494 list;
#X msg 204 449 bang;
#X obj 416 485 list length;
#X obj 416 437 t a a;
#X obj 247 397 until;
#X obj 259 356 f;
#X obj 261 424 f;
#X obj 289 423 + 1;
#X msg 287 396 0;
#X obj 259 376 t f b;
#X obj 259 331 t b f;
#X obj 250 488 ==;
#X obj 261 442 t f f;
#X obj 250 510 sel 1;
#X obj 246 548 f;
#X obj 166 375 sel 0;
#X msg 158 410 0;
#X obj 187 162 t b a b b;
#X obj 336 339 f;
#X obj 442 239 sort -1;
#X obj 235 571 + 1;
#X floatatom 430 531 5 0 0 0 - - -;
#X obj 333 52 t a a b;
#X obj 428 14 f \$0;
#X obj 515 454 tabset \$0-sort1;
#X obj 250 468 tabread \$0-sort1;
#X msg 484 44 \; \$1-sort1 const 0;
#X obj 595 335 table \$0-sort1 32;
#X connect 0 0 47 0;
#X connect 1 0 2 0;
#X connect 1 1 3 1;
#X connect 2 0 3 0;
#X connect 2 1 5 0;
#X connect 3 0 1 0;
#X connect 5 1 6 0;
#X connect 6 0 7 0;
#X connect 6 0 8 1;
#X connect 7 0 6 1;
#X connect 8 0 44 0;
#X connect 9 0 8 0;
#X connect 9 1 1 0;
#X connect 9 2 10 0;
#X connect 10 0 6 1;
#X connect 11 0 12 0;
#X connect 11 1 13 1;
#X connect 12 0 13 0;
#X connect 12 1 19 0;
#X connect 13 0 11 0;
#X connect 14 0 15 0;
#X connect 14 0 16 1;
#X connect 15 0 14 1;
#X connect 16 0 28 0;
#X connect 17 0 16 0;
#X connect 17 1 11 0;
#X connect 17 2 18 0;
#X connect 18 0 14 1;
#X connect 19 0 14 0;
#X connect 20 0 21 0;
#X connect 20 1 22 1;
#X connect 21 0 22 0;
#X connect 21 1 40 0;
#X connect 22 0 20 0;
#X connect 23 0 24 0;
#X connect 23 0 25 1;
#X connect 24 0 23 1;
#X connect 25 0 4 0;
#X connect 26 0 23 1;
#X connect 27 0 43 1;
#X connect 27 0 46 0;
#X connect 28 0 27 0;
#X connect 28 1 49 0;
#X connect 29 0 31 0;
#X connect 30 0 34 0;
#X connect 31 0 32 0;
#X connect 31 0 37 0;
#X connect 32 0 31 1;
#X connect 33 0 31 1;
#X connect 34 0 29 0;
#X connect 34 1 33 0;
#X connect 35 0 30 0;
#X connect 35 1 36 1;
#X connect 36 0 38 0;
#X connect 37 0 50 0;
#X connect 37 1 39 1;
#X connect 38 0 39 0;
#X connect 39 0 45 0;
#X connect 40 0 41 0;
#X connect 40 1 35 0;
#X connect 41 0 23 0;
#X connect 42 0 25 0;
#X connect 42 1 20 0;
#X connect 42 2 26 0;
#X connect 42 3 43 0;
#X connect 43 0 30 1;
#X connect 44 0 17 0;
#X connect 45 0 23 0;
#X connect 47 0 42 0;
#X connect 47 1 9 0;
#X connect 47 2 48 0;
#X connect 48 0 51 0;
#X connect 50 0 36 0;
#X restore 309 226 pd order-syncopations;
#X text 350 347 |;
#X text 399 347 |;
#X text 447 347 |;
#X text 496 347 |;
#N canvas 38 129 817 634 order-reinforcements-after-syncopations 0
;
#X obj 333 32 inlet;
#X obj 498 106 list split 1;
#X obj 498 136 t b f;
#X obj 530 161 list;
#X obj 57 518 outlet;
#X obj 490 181 sel 0;
#X obj 518 202 list prepend;
#X obj 599 201 list;
#X obj 442 219 list;
#X obj 479 84 t b a b;
#X msg 587 174 bang;
#X obj 468 288 list split 1;
#X obj 468 318 t b f;
#X obj 500 343 list;
#X obj 474 383 list prepend;
#X obj 555 382 list;
#X obj 443 411 list;
#X obj 443 261 t b a b;
#X msg 543 355 bang;
#X obj 465 361 change;
#X obj 174 278 list split 1;
#X obj 174 308 t b f;
#X obj 206 333 list;
#X obj 135 477 list prepend;
#X obj 216 476 list;
#X obj 59 494 list;
#X msg 204 449 bang;
#X obj 416 485 list length;
#X obj 416 437 t a a;
#X obj 247 397 until;
#X obj 259 356 f;
#X obj 261 424 f;
#X obj 289 423 + 1;
#X msg 287 396 0;
#X obj 259 376 t f b;
#X obj 259 331 t b f;
#X obj 250 488 ==;
#X obj 261 442 t f f;
#X obj 250 510 sel 1;
#X obj 246 548 f;
#X obj 166 375 sel 0;
#X msg 158 410 0;
#X obj 187 162 t b a b b;
#X obj 336 339 f;
#X obj 442 239 sort -1;
#X obj 235 571 + 1;
#X floatatom 417 510 5 0 0 0 - - -;
#X obj 697 547 inlet;
#X text 629 528 how many syncopations we have;
#X obj 235 593 +;
#X obj 333 52 t a a b;
#X obj 438 24 f \$0;
#X obj 516 454 tabset \$0-sort2;
#X obj 250 469 tabread \$0-sort2;
#X msg 483 47 \; \$1-sort2 const 0;
#X obj 517 472 table \$0-sort2 32;
#X connect 0 0 50 0;
#X connect 1 0 2 0;
#X connect 1 1 3 1;
#X connect 2 0 3 0;
#X connect 2 1 5 0;
#X connect 3 0 1 0;
#X connect 5 1 6 0;
#X connect 6 0 7 0;
#X connect 6 0 8 1;
#X connect 7 0 6 1;
#X connect 8 0 44 0;
#X connect 9 0 8 0;
#X connect 9 1 1 0;
#X connect 9 2 10 0;
#X connect 10 0 6 1;
#X connect 11 0 12 0;
#X connect 11 1 13 1;
#X connect 12 0 13 0;
#X connect 12 1 19 0;
#X connect 13 0 11 0;
#X connect 14 0 15 0;
#X connect 14 0 16 1;
#X connect 15 0 14 1;
#X connect 16 0 28 0;
#X connect 17 0 16 0;
#X connect 17 1 11 0;
#X connect 17 2 18 0;
#X connect 18 0 14 1;
#X connect 19 0 14 0;
#X connect 20 0 21 0;
#X connect 20 1 22 1;
#X connect 21 0 22 0;
#X connect 21 1 40 0;
#X connect 22 0 20 0;
#X connect 23 0 24 0;
#X connect 23 0 25 1;
#X connect 24 0 23 1;
#X connect 25 0 4 0;
#X connect 26 0 23 1;
#X connect 27 0 43 1;
#X connect 27 0 46 0;
#X connect 28 0 27 0;
#X connect 28 1 52 0;
#X connect 29 0 31 0;
#X connect 30 0 34 0;
#X connect 31 0 32 0;
#X connect 31 0 37 0;
#X connect 32 0 31 1;
#X connect 33 0 31 1;
#X connect 34 0 29 0;
#X connect 34 1 33 0;
#X connect 35 0 30 0;
#X connect 35 1 36 1;
#X connect 36 0 38 0;
#X connect 37 0 53 0;
#X connect 37 1 39 1;
#X connect 38 0 39 0;
#X connect 39 0 45 0;
#X connect 40 0 41 0;
#X connect 40 1 35 0;
#X connect 41 0 23 0;
#X connect 42 0 25 0;
#X connect 42 1 20 0;
#X connect 42 2 26 0;
#X connect 42 3 43 0;
#X connect 43 0 30 1;
#X connect 44 0 17 0;
#X connect 45 0 49 0;
#X connect 47 0 49 1;
#X connect 49 0 23 0;
#X connect 50 0 42 0;
#X connect 50 1 9 0;
#X connect 50 2 51 0;
#X connect 51 0 54 0;
#X connect 53 0 36 0;
#X restore 309 306 pd order-reinforcements-after-syncopations;
#X text 569 304 order saliences;
#X obj 309 346 l2s;
#X symbolatom 309 363 40 0 0 0 - - -;
#X text 554 361 order reinforcements and next silence;
#X obj 536 387 +;
#N canvas 0 122 817 634 order-othernotes-after-syncadnreinf 0;
#X obj 333 32 inlet;
#X obj 498 106 list split 1;
#X obj 498 136 t b f;
#X obj 530 161 list;
#X obj 57 518 outlet;
#X obj 490 181 sel 0;
#X obj 518 202 list prepend;
#X obj 599 201 list;
#X obj 443 219 list;
#X obj 479 84 t b a b;
#X msg 587 174 bang;
#X obj 468 288 list split 1;
#X obj 468 318 t b f;
#X obj 500 343 list;
#X obj 474 383 list prepend;
#X obj 555 382 list;
#X obj 443 411 list;
#X obj 443 261 t b a b;
#X msg 543 355 bang;
#X obj 465 361 change;
#X obj 174 278 list split 1;
#X obj 174 308 t b f;
#X obj 206 333 list;
#X obj 135 477 list prepend;
#X obj 216 476 list;
#X obj 59 494 list;
#X msg 204 449 bang;
#X obj 443 481 list length;
#X obj 443 433 t a a;
#X obj 247 397 until;
#X obj 259 356 f;
#X obj 261 424 f;
#X obj 289 423 + 1;
#X msg 287 396 0;
#X obj 259 376 t f b;
#X obj 259 331 t b f;
#X obj 250 488 ==;
#X obj 261 442 t f f;
#X obj 250 510 sel 1;
#X obj 246 548 f;
#X obj 166 375 sel 0;
#X msg 158 410 0;
#X obj 187 162 t b a b b;
#X obj 336 339 f;
#X obj 443 239 sort -1;
#X obj 235 571 + 1;
#X obj 697 547 inlet;
#X text 629 528 how many syncopations we have;
#X obj 235 593 +;
#X obj 333 52 t a a b;
#X obj 420 12 f \$0;
#X msg 423 38 \; \$1-sort4 const 0;
#X obj 542 450 tabset \$0-sort4;
#X obj 250 469 tabread \$0-sort4;
#X obj 544 468 table \$0-sort4 32;
#X obj 443 500 t f f;
#X obj 560 588 +;
#X obj 560 608 outlet;
#X text 604 607 syncopations + notes + nothing;
#X connect 0 0 49 0;
#X connect 1 0 2 0;
#X connect 1 1 3 1;
#X connect 2 0 3 0;
#X connect 2 1 5 0;
#X connect 3 0 1 0;
#X connect 5 1 6 0;
#X connect 6 0 7 0;
#X connect 6 0 8 1;
#X connect 7 0 6 1;
#X connect 8 0 44 0;
#X connect 9 0 8 0;
#X connect 9 1 1 0;
#X connect 9 2 10 0;
#X connect 10 0 6 1;
#X connect 11 0 12 0;
#X connect 11 1 13 1;
#X connect 12 0 13 0;
#X connect 12 1 19 0;
#X connect 13 0 11 0;
#X connect 14 0 15 0;
#X connect 14 0 16 1;
#X connect 15 0 14 1;
#X connect 16 0 28 0;
#X connect 17 0 16 0;
#X connect 17 1 11 0;
#X connect 17 2 18 0;
#X connect 18 0 14 1;
#X connect 19 0 14 0;
#X connect 20 0 21 0;
#X connect 20 1 22 1;
#X connect 21 0 22 0;
#X connect 21 1 40 0;
#X connect 22 0 20 0;
#X connect 23 0 24 0;
#X connect 23 0 25 1;
#X connect 24 0 23 1;
#X connect 25 0 4 0;
#X connect 26 0 23 1;
#X connect 27 0 55 0;
#X connect 28 0 27 0;
#X connect 28 1 52 0;
#X connect 29 0 31 0;
#X connect 30 0 34 0;
#X connect 31 0 32 0;
#X connect 31 0 37 0;
#X connect 32 0 31 1;
#X connect 33 0 31 1;
#X connect 34 0 29 0;
#X connect 34 1 33 0;
#X connect 35 0 30 0;
#X connect 35 1 36 1;
#X connect 36 0 38 0;
#X connect 37 0 53 0;
#X connect 37 1 39 1;
#X connect 38 0 39 0;
#X connect 39 0 45 0;
#X connect 40 0 41 0;
#X connect 40 1 35 0;
#X connect 41 0 23 0;
#X connect 42 0 25 0;
#X connect 42 1 20 0;
#X connect 42 2 26 0;
#X connect 42 3 43 0;
#X connect 43 0 30 1;
#X connect 44 0 17 0;
#X connect 45 0 48 0;
#X connect 46 0 48 1;
#X connect 46 0 56 1;
#X connect 48 0 23 0;
#X connect 49 0 42 0;
#X connect 49 1 9 0;
#X connect 49 2 50 0;
#X connect 50 0 51 0;
#X connect 53 0 36 0;
#X connect 55 0 43 1;
#X connect 55 1 56 0;
#X connect 56 0 57 0;
#X restore 311 409 pd order-othernotes-after-syncadnreinf;
#X text 352 427 |;
#X text 401 427 |;
#X text 449 427 |;
#X text 498 427 |;
#X obj 311 426 l2s;
#X symbolatom 311 443 40 0 0 0 - - -;
#X text 554 440 order 'other' notes;
#X obj 125 192 l2s;
#X symbolatom 307 181 40 0 0 0 - - -;
#X text 552 181 weighted silences;
#N canvas 82 380 669 415 eliminate-forbidden-silences 0;
#X obj 17 19 inlet;
#X obj 188 32 inlet;
#X text 141 12 syncopations and silences;
#X text 5 1 weighted silences;
#X obj 32 70 list split 1;
#X obj 32 109 list;
#X obj 435 289 list;
#X obj 17 312 list;
#X msg 512 57 bang;
#X obj 353 288 list prepend;
#X obj 167 57 list;
#X obj 167 76 list split 1;
#X obj 191 106 list;
#X obj 167 178 == 0;
#X obj 122 210 *;
#X obj 17 341 outlet;
#X obj 389 32 inlet;
#X obj 368 57 list;
#X obj 368 76 list split 1;
#X obj 381 106 list;
#X obj 368 178 == 0;
#X text 342 9 reinforcements and silences;
#X obj 17 40 t b a b b b;
#X obj 353 247 *;
#X text 16 359 list with weighted silences that can be used;
#X obj 499 372 outlet;
#X obj 514 278 f;
#X obj 536 278 + 1;
#X msg 541 248 0;
#X obj 32 89 t b b b f f;
#X msg 507 255 bang;
#X text 481 389 how many useful silences?;
#X obj 499 329 f;
#X obj 17 276 t b b;
#X obj 481 212 sel 0;
#X obj 516 302 + 1;
#X connect 0 0 22 0;
#X connect 1 0 10 1;
#X connect 4 0 29 0;
#X connect 4 1 5 1;
#X connect 5 0 4 0;
#X connect 6 0 9 1;
#X connect 7 0 15 0;
#X connect 8 0 9 1;
#X connect 8 0 28 0;
#X connect 9 0 6 0;
#X connect 9 0 7 1;
#X connect 10 0 11 0;
#X connect 11 0 13 0;
#X connect 11 1 12 1;
#X connect 12 0 11 0;
#X connect 13 0 14 1;
#X connect 14 0 23 0;
#X connect 16 0 17 1;
#X connect 17 0 18 0;
#X connect 18 0 20 0;
#X connect 18 1 19 1;
#X connect 19 0 18 0;
#X connect 20 0 23 1;
#X connect 22 0 33 0;
#X connect 22 1 4 0;
#X connect 22 2 10 0;
#X connect 22 3 17 0;
#X connect 22 4 8 0;
#X connect 23 0 9 0;
#X connect 26 0 27 0;
#X connect 26 0 35 0;
#X connect 27 0 26 1;
#X connect 28 0 26 1;
#X connect 29 0 5 0;
#X connect 29 1 12 0;
#X connect 29 2 19 0;
#X connect 29 3 14 0;
#X connect 29 4 34 0;
#X connect 30 0 26 0;
#X connect 32 0 25 0;
#X connect 33 0 7 0;
#X connect 33 1 32 0;
#X connect 34 0 30 0;
#X connect 35 0 32 1;
#X restore 125 466 pd eliminate-forbidden-silences;
#X text 167 501 |;
#X text 216 501 |;
#X text 264 501 |;
#X text 313 501 |;
#X obj 125 500 l2s;
#X symbolatom 125 517 40 0 0 0 - - -;
#X text 371 514 silences that can be used. To be ordered;
#N canvas 273 270 524 497 order-syncopation-and-next-silence 0;
#X obj 100 9 inlet;
#X obj 127 197 list split 1;
#X obj 159 252 list;
#X obj 132 417 list prepend;
#X obj 220 380 list;
#X obj 56 434 list;
#X obj 102 170 t b a b;
#X msg 201 264 bang;
#X obj 56 454 outlet;
#X obj 275 35 t a a;
#X obj 336 52 list length;
#X obj 279 103 list split;
#X obj 336 78 - 1;
#X obj 279 123 list prepend;
#X obj 253 215 list split 1;
#X obj 253 244 list;
#X obj 144 360 +;
#X obj 305 147 l2s;
#X symbolatom 305 174 0 0 0 0 - - -;
#X obj 227 150 t b a;
#X obj 233 22 t a a;
#X obj 170 99 list;
#X obj 127 227 t b b f;
#X obj 203 302 sel 0;
#X msg 163 327 0;
#X obj 284 338 t b f;
#X obj 296 388 -;
#X msg 284 359 17;
#X connect 0 0 20 0;
#X connect 1 0 22 0;
#X connect 1 1 2 1;
#X connect 2 0 1 0;
#X connect 3 0 4 0;
#X connect 3 0 5 1;
#X connect 4 0 3 1;
#X connect 5 0 8 0;
#X connect 6 0 5 0;
#X connect 6 1 1 0;
#X connect 6 2 7 0;
#X connect 7 0 3 1;
#X connect 9 0 11 0;
#X connect 9 1 10 0;
#X connect 10 0 12 0;
#X connect 11 0 13 0;
#X connect 11 1 13 1;
#X connect 12 0 11 1;
#X connect 13 0 17 0;
#X connect 13 0 19 0;
#X connect 14 0 23 0;
#X connect 14 1 15 1;
#X connect 15 0 14 0;
#X connect 16 0 3 0;
#X connect 17 0 18 0;
#X connect 19 0 21 0;
#X connect 19 1 14 0;
#X connect 20 0 9 0;
#X connect 20 1 21 1;
#X connect 21 0 6 0;
#X connect 22 0 2 0;
#X connect 22 1 15 0;
#X connect 22 2 16 0;
#X connect 23 0 24 0;
#X connect 23 1 25 0;
#X connect 24 0 16 1;
#X connect 25 0 27 0;
#X connect 25 1 26 1;
#X connect 26 0 16 1;
#X connect 27 0 26 0;
#X restore 309 246 pd order-syncopation-and-next-silence;
#N canvas 271 275 524 497 order-reinforcement-and-next-silence 0;
#X obj 100 9 inlet;
#X obj 127 197 list split 1;
#X obj 159 252 list;
#X obj 132 417 list prepend;
#X obj 220 380 list;
#X obj 56 434 list;
#X obj 102 170 t b a b;
#X msg 201 264 bang;
#X obj 56 454 outlet;
#X obj 275 35 t a a;
#X obj 336 52 list length;
#X obj 279 103 list split;
#X obj 336 78 - 1;
#X obj 279 123 list prepend;
#X obj 253 215 list split 1;
#X obj 253 244 list;
#X obj 144 360 +;
#X obj 305 147 l2s;
#X symbolatom 305 174 0 0 0 0 - - -;
#X obj 227 150 t b a;
#X obj 233 22 t a a;
#X obj 170 99 list;
#X obj 127 227 t b b f;
#X obj 203 302 sel 0;
#X msg 163 327 0;
#X obj 284 338 t b f;
#X obj 296 388 -;
#X msg 284 359 17;
#X connect 0 0 20 0;
#X connect 1 0 22 0;
#X connect 1 1 2 1;
#X connect 2 0 1 0;
#X connect 3 0 4 0;
#X connect 3 0 5 1;
#X connect 4 0 3 1;
#X connect 5 0 8 0;
#X connect 6 0 5 0;
#X connect 6 1 1 0;
#X connect 6 2 7 0;
#X connect 7 0 3 1;
#X connect 9 0 11 0;
#X connect 9 1 10 0;
#X connect 10 0 12 0;
#X connect 11 0 13 0;
#X connect 11 1 13 1;
#X connect 12 0 11 1;
#X connect 13 0 17 0;
#X connect 13 0 19 0;
#X connect 14 0 23 0;
#X connect 14 1 15 1;
#X connect 15 0 14 0;
#X connect 16 0 3 0;
#X connect 17 0 18 0;
#X connect 19 0 21 0;
#X connect 19 1 14 0;
#X connect 20 0 9 0;
#X connect 20 1 21 1;
#X connect 21 0 6 0;
#X connect 22 0 2 0;
#X connect 22 1 15 0;
#X connect 22 2 16 0;
#X connect 23 0 24 0;
#X connect 23 1 25 0;
#X connect 24 0 16 1;
#X connect 25 0 27 0;
#X connect 25 1 26 1;
#X connect 26 0 16 1;
#X connect 27 0 26 0;
#X restore 309 326 pd order-reinforcement-and-next-silence;
#N canvas 26 159 817 634 order-remaining 0;
#X obj 367 18 inlet;
#X obj 434 95 list split 1;
#X obj 434 125 t b f;
#X obj 466 150 list;
#X obj 57 518 outlet;
#X obj 426 170 sel 0;
#X obj 454 191 list prepend;
#X obj 535 190 list;
#X obj 415 208 list;
#X obj 415 73 t b a b;
#X msg 523 163 bang;
#X obj 441 277 list split 1;
#X obj 441 307 t b f;
#X obj 473 332 list;
#X obj 447 372 list prepend;
#X obj 528 371 list;
#X obj 416 400 list;
#X obj 416 250 t b a b;
#X msg 516 344 bang;
#X obj 438 350 change;
#X obj 174 278 list split 1;
#X obj 174 308 t b f;
#X obj 206 333 list;
#X obj 135 477 list prepend;
#X obj 216 476 list;
#X obj 59 494 list;
#X msg 204 449 bang;
#X obj 416 442 list length;
#X obj 416 419 t a a;
#X obj 247 397 until;
#X obj 259 356 f;
#X obj 261 424 f;
#X obj 289 423 + 1;
#X msg 287 396 0;
#X obj 259 376 t f b;
#X obj 259 331 t b f;
#X obj 250 488 ==;
#X obj 261 442 t f f;
#X obj 250 510 sel 1;
#X obj 250 530 f;
#X obj 166 375 sel 0;
#X msg 158 410 0;
#X obj 187 162 t b a b b;
#X obj 336 339 f;
#X obj 415 228 sort -1;
#X obj 250 550 + 1;
#X floatatom 417 467 5 0 0 0 - - -;
#X obj 697 555 inlet;
#X obj 250 572 +;
#X text 607 530 how many useful silences?;
#X obj 367 38 t a a b;
#X obj 483 29 f \$0;
#X obj 515 436 tabset \$0-sort5;
#X obj 517 454 table \$0-sort5;
#X obj 250 469 tabread \$0-sort5;
#X msg 482 49 \; \$1-sort5 const 0;
#X connect 0 0 50 0;
#X connect 1 0 2 0;
#X connect 1 1 3 1;
#X connect 2 0 3 0;
#X connect 2 1 5 0;
#X connect 3 0 1 0;
#X connect 5 1 6 0;
#X connect 6 0 7 0;
#X connect 6 0 8 1;
#X connect 7 0 6 1;
#X connect 8 0 44 0;
#X connect 9 0 8 0;
#X connect 9 1 1 0;
#X connect 9 2 10 0;
#X connect 10 0 6 1;
#X connect 11 0 12 0;
#X connect 11 1 13 1;
#X connect 12 0 13 0;
#X connect 12 1 19 0;
#X connect 13 0 11 0;
#X connect 14 0 15 0;
#X connect 14 0 16 1;
#X connect 15 0 14 1;
#X connect 16 0 28 0;
#X connect 17 0 16 0;
#X connect 17 1 11 0;
#X connect 17 2 18 0;
#X connect 18 0 14 1;
#X connect 19 0 14 0;
#X connect 20 0 21 0;
#X connect 20 1 22 1;
#X connect 21 0 22 0;
#X connect 21 1 40 0;
#X connect 22 0 20 0;
#X connect 23 0 24 0;
#X connect 23 0 25 1;
#X connect 24 0 23 1;
#X connect 25 0 4 0;
#X connect 26 0 23 1;
#X connect 27 0 43 1;
#X connect 27 0 46 0;
#X connect 28 0 27 0;
#X connect 28 1 52 0;
#X connect 29 0 31 0;
#X connect 30 0 34 0;
#X connect 31 0 32 0;
#X connect 31 0 37 0;
#X connect 32 0 31 1;
#X connect 33 0 31 1;
#X connect 34 0 29 0;
#X connect 34 1 33 0;
#X connect 35 0 30 0;
#X connect 35 1 36 1;
#X connect 36 0 38 0;
#X connect 37 0 54 0;
#X connect 37 1 39 1;
#X connect 38 0 39 0;
#X connect 39 0 45 0;
#X connect 40 0 41 0;
#X connect 40 1 35 0;
#X connect 41 0 23 0;
#X connect 42 0 25 0;
#X connect 42 1 20 0;
#X connect 42 2 26 0;
#X connect 42 3 43 0;
#X connect 43 0 30 1;
#X connect 44 0 17 0;
#X connect 45 0 48 0;
#X connect 47 0 48 1;
#X connect 48 0 23 0;
#X connect 50 0 42 0;
#X connect 50 1 9 0;
#X connect 50 2 51 0;
#X connect 51 0 55 0;
#X connect 54 0 36 0;
#X restore 125 483 pd order-remaining silneces;
#X floatatom 254 95 5 0 0 0 - - -;
#N canvas 168 148 1007 422 add_all 0;
#X obj 52 111 list split 1;
#X obj 65 164 list;
#X obj 35 59 inlet;
#X obj 657 283 list;
#X obj 35 299 list;
#X msg 818 98 bang;
#X obj 35 321 outlet;
#X obj 575 282 list prepend;
#X obj 215 60 inlet;
#X text 30 39 silences;
#X text 204 37 other notes;
#X obj 370 66 inlet;
#X text 300 48 reinforcements plus silences;
#X obj 606 67 inlet;
#X text 536 49 syncopations plus silences;
#X obj 35 81 t b a b b b b;
#X obj 355 117 list split 1;
#X obj 368 149 list;
#X obj 591 118 list split 1;
#X obj 604 149 list;
#X obj 200 117 list split 1;
#X obj 213 149 list;
#X obj 52 132 t b b b b f;
#X obj 200 188 sel 0;
#X obj 355 185 sel 0;
#X obj 591 191 sel 0;
#X obj 115 188 sel 0;
#X obj 200 98 list;
#X obj 355 98 list;
#X obj 591 98 list;
#X connect 0 0 22 0;
#X connect 0 1 1 1;
#X connect 1 0 0 0;
#X connect 2 0 15 0;
#X connect 3 0 7 1;
#X connect 4 0 6 0;
#X connect 5 0 7 1;
#X connect 7 0 3 0;
#X connect 7 0 4 1;
#X connect 8 0 27 1;
#X connect 11 0 28 1;
#X connect 13 0 29 1;
#X connect 15 0 4 0;
#X connect 15 1 0 0;
#X connect 15 2 27 0;
#X connect 15 3 28 0;
#X connect 15 4 29 0;
#X connect 15 5 5 0;
#X connect 16 0 24 0;
#X connect 16 1 17 1;
#X connect 17 0 16 0;
#X connect 18 0 25 0;
#X connect 18 1 19 1;
#X connect 19 0 18 0;
#X connect 20 0 23 0;
#X connect 20 1 21 1;
#X connect 21 0 20 0;
#X connect 22 0 1 0;
#X connect 22 1 21 0;
#X connect 22 2 17 0;
#X connect 22 3 19 0;
#X connect 22 4 26 0;
#X connect 23 1 7 0;
#X connect 24 1 7 0;
#X connect 25 1 7 0;
#X connect 26 1 7 0;
#X connect 27 0 20 0;
#X connect 28 0 16 0;
#X connect 29 0 18 0;
#X restore 125 570 pd add_all;
#X text 411 588 |;
#X text 460 588 |;
#X text 508 588 |;
#X text 557 588 |;
#X obj 370 587 l2s;
#X symbolatom 370 604 40 0 0 0 - - -;
#X text 615 601 ALL STEPS;
#X floatatom 568 406 5 0 0 0 - - -;
#X floatatom 211 86 5 0 0 0 - - -;
#N canvas 571 251 450 446 mayoroigualque 0;
#X obj 158 188 list split 1;
#X obj 171 259 list;
#X obj 286 16 inlet;
#X obj 306 346 list;
#X obj 141 371 list;
#X msg 294 271 bang;
#X obj 141 393 outlet;
#X obj 224 345 list prepend;
#X obj 233 17 inlet;
#X obj 141 158 t b a b b;
#X obj 324 175 f;
#X obj 158 222 t b f;
#X obj 233 122 list;
#X obj 233 84 t b f;
#X obj 286 37 t b a;
#X obj 233 65 f;
#X text 286 1 lista;
#X text 234 0 float;
#X obj 199 286 <=;
#X connect 0 0 11 0;
#X connect 0 1 1 1;
#X connect 1 0 0 0;
#X connect 2 0 14 0;
#X connect 3 0 7 1;
#X connect 4 0 6 0;
#X connect 5 0 7 1;
#X connect 7 0 3 0;
#X connect 7 0 4 1;
#X connect 8 0 15 0;
#X connect 9 0 4 0;
#X connect 9 1 0 0;
#X connect 9 2 10 0;
#X connect 9 3 5 0;
#X connect 10 0 18 1;
#X connect 11 0 1 0;
#X connect 11 1 18 0;
#X connect 12 0 9 0;
#X connect 13 0 12 0;
#X connect 13 1 10 1;
#X connect 14 0 15 0;
#X connect 14 1 12 1;
#X connect 15 0 13 0;
#X connect 18 0 7 0;
#X restore 32 605 pd mayoroigualque;
#X obj 712 618 outlet;
#X text 614 636 how many original notes?;
#X connect 0 1 7 0;
#X connect 1 0 14 0;
#X connect 1 0 16 0;
#X connect 2 0 4 0;
#X connect 4 0 81 0;
#X connect 7 0 56 0;
#X connect 7 0 59 0;
#X connect 7 1 12 0;
#X connect 7 1 48 0;
#X connect 7 2 10 0;
#X connect 7 2 42 0;
#X connect 7 3 8 0;
#X connect 7 3 37 0;
#X connect 7 4 47 0;
#X connect 7 4 80 0;
#X connect 7 5 42 1;
#X connect 7 5 47 1;
#X connect 7 5 70 0;
#X connect 8 0 9 0;
#X connect 10 0 11 0;
#X connect 12 0 13 0;
#X connect 14 0 15 0;
#X connect 16 0 0 0;
#X connect 17 0 16 0;
#X connect 26 0 27 0;
#X connect 37 0 67 0;
#X connect 42 0 68 0;
#X connect 44 0 45 0;
#X connect 47 0 48 1;
#X connect 47 0 79 0;
#X connect 48 0 53 0;
#X connect 48 0 71 1;
#X connect 48 1 82 0;
#X connect 53 0 54 0;
#X connect 56 0 57 0;
#X connect 59 0 69 0;
#X connect 59 1 69 1;
#X connect 64 0 65 0;
#X connect 67 0 26 0;
#X connect 67 0 59 1;
#X connect 67 0 71 3;
#X connect 68 0 44 0;
#X connect 68 0 59 2;
#X connect 68 0 71 2;
#X connect 69 0 64 0;
#X connect 69 0 71 0;
#X connect 71 0 76 0;
#X connect 71 0 81 1;
#X connect 76 0 77 0;
#X connect 81 0 3 0;
