#N canvas 0 69 586 451 10;
#X obj 213 133 +;
#X obj 199 161 +;
#X obj 188 185 +;
#X obj 159 62 unpack f f f f;
#X obj 188 204 sel 0 1 2 3 4 5 6 7 8 9 10 11 12 13 14 15;
#X msg 58 241 a;
#X msg 86 241 b;
#X msg 113 242 c;
#X msg 138 243 d;
#X msg 164 243 e;
#X msg 193 242 f;
#X msg 221 241 g;
#X msg 248 241 h;
#X msg 276 240 i;
#X msg 305 241 j;
#X msg 332 241 k;
#X msg 360 242 l;
#X msg 387 242 m;
#X msg 412 243 n;
#X msg 440 243 o;
#X msg 466 243 p;
#X msg 493 242 q;
#X obj 159 44 inlet;
#X obj 396 294 symbol;
#X obj 395 324 outlet;
#X obj 159 151 * 1;
#X obj 178 128 * 2;
#X obj 196 109 * 4;
#X obj 215 90 * 8;
#X text 249 90 convert a bunary 4 element pattern to a symbol;
#X connect 0 0 1 1;
#X connect 1 0 2 1;
#X connect 2 0 4 0;
#X connect 3 0 25 0;
#X connect 3 1 26 0;
#X connect 3 2 27 0;
#X connect 3 3 28 0;
#X connect 4 0 5 0;
#X connect 4 1 6 0;
#X connect 4 2 7 0;
#X connect 4 3 8 0;
#X connect 4 4 9 0;
#X connect 4 5 10 0;
#X connect 4 6 11 0;
#X connect 4 7 12 0;
#X connect 4 8 13 0;
#X connect 4 9 14 0;
#X connect 4 10 15 0;
#X connect 4 11 16 0;
#X connect 4 12 17 0;
#X connect 4 13 18 0;
#X connect 4 14 20 0;
#X connect 4 15 21 0;
#X connect 5 0 23 0;
#X connect 6 0 23 0;
#X connect 7 0 23 0;
#X connect 8 0 23 0;
#X connect 9 0 23 0;
#X connect 10 0 23 0;
#X connect 11 0 23 0;
#X connect 12 0 23 0;
#X connect 13 0 23 0;
#X connect 14 0 23 0;
#X connect 15 0 23 0;
#X connect 16 0 23 0;
#X connect 17 0 23 0;
#X connect 18 0 23 0;
#X connect 19 0 23 0;
#X connect 20 0 23 0;
#X connect 21 0 23 0;
#X connect 22 0 3 0;
#X connect 23 0 24 0;
#X connect 25 0 2 0;
#X connect 26 0 1 0;
#X connect 27 0 0 0;
#X connect 28 0 0 1;
