#N canvas 423 328 534 300 10;
#X obj 24 40 inlet;
#X obj 48 108 list split 1;
#X obj 129 108 list split 1;
#X obj 161 44 inlet;
#X obj 79 142 t b b f;
#X obj 90 169 list;
#X obj 182 165 list;
#X obj 118 211 tabwrite \$0-temp;
#X obj 264 176 table \$0-temp;
#X msg 349 176 \; \$1-temp resize \$2;
#X obj 322 80 list length;
#X obj 303 128 f \$0;
#X obj 322 100 t b f;
#X obj 349 146 pack;
#X obj 24 237 tabdump \$0-temp;
#X obj 24 260 outlet;
#X obj 122 58 list;
#X obj 24 63 t b a b a;
#X connect 0 0 17 0;
#X connect 1 0 4 0;
#X connect 1 1 5 1;
#X connect 2 0 7 1;
#X connect 2 1 6 1;
#X connect 3 0 2 0;
#X connect 3 0 16 1;
#X connect 4 0 5 0;
#X connect 4 1 6 0;
#X connect 4 2 7 0;
#X connect 5 0 1 0;
#X connect 6 0 2 0;
#X connect 10 0 12 0;
#X connect 11 0 13 0;
#X connect 12 0 11 0;
#X connect 12 1 13 1;
#X connect 13 0 9 0;
#X connect 14 0 15 0;
#X connect 16 0 2 0;
#X connect 17 0 14 0;
#X connect 17 1 1 0;
#X connect 17 2 16 0;
#X connect 17 3 10 0;
