#N canvas 66 162 703 498 10;
#X obj 82 425 outlet the unique list;
#X obj 468 271 coll \$0-unique;
#C restore;
#X obj 449 149 list split 1;
#X obj 460 197 list;
#X obj 449 174 t b a b;
#X obj 513 199 f;
#X obj 542 198 + 1;
#X msg 528 149 0;
#X msg 468 244 \$2 \$1;
#X obj 468 224 pack s f;
#X msg 399 224 sort -1 2;
#X text 344 186 order by element;
#X msg 341 224 renumber;
#X obj 341 202 t b b;
#X msg 341 173 bang;
#X obj 240 172 list length;
#N canvas 576 315 450 300 iterate 0;
#X obj 27 8 inlet;
#X obj 27 27 t f b;
#X obj 29 114 f;
#X obj 58 113 + 1;
#X msg 44 93 0;
#X obj 29 62 until;
#X obj 27 139 outlet;
#X connect 0 0 1 0;
#X connect 1 0 5 0;
#X connect 1 1 4 0;
#X connect 2 0 3 0;
#X connect 2 0 6 0;
#X connect 3 0 2 1;
#X connect 4 0 2 1;
#X connect 5 0 2 0;
#X restore 240 211 pd iterate;
#X obj 240 249 coll \$0-unique;
#C restore;
#N canvas 576 315 450 300 iterate 0;
#X obj 27 8 inlet;
#X obj 27 27 t f b;
#X obj 29 114 f;
#X obj 58 113 + 1;
#X msg 44 93 0;
#X obj 29 62 until;
#X obj 27 139 outlet;
#X connect 0 0 1 0;
#X connect 1 0 5 0;
#X connect 1 1 4 0;
#X connect 2 0 3 0;
#X connect 2 0 6 0;
#X connect 3 0 2 1;
#X connect 4 0 2 1;
#X connect 5 0 2 0;
#X restore 240 310 pd iterate;
#X obj 255 385 coll \$0-unique;
#C restore;
#X obj 240 290 f;
#X obj 240 269 t b a;
#X obj 255 406 sel x;
#X obj 240 329 t f f;
#X obj 328 432 f;
#X obj 240 357 sel;
#X text 290 355 <- dont compare to itself;
#X obj 240 192 t f f;
#X obj 240 230 t f f;
#X msg 327 451 remove \$1;
#X obj 327 470 coll \$0-unique;
#C restore;
#X obj 103 275 coll \$0-unique;
#C restore;
#X msg 103 254 dump;
#X obj 103 324 list prepend;
#X obj 185 325 list;
#X obj 82 359 list;
#X msg 82 158 bang;
#X obj 184 13 inlet;
#X text 525 435 daniel.gomez@upf.edu 2015;
#X obj 518 92 coll \$0-unique;
#C restore;
#X obj 184 33 t b b b a b a b b;
#X msg 464 57 clear;
#X connect 2 0 4 0;
#X connect 2 1 3 1;
#X connect 3 0 2 0;
#X connect 4 0 3 0;
#X connect 4 1 9 0;
#X connect 4 2 5 0;
#X connect 5 0 6 0;
#X connect 5 0 9 1;
#X connect 6 0 5 1;
#X connect 7 0 5 1;
#X connect 8 0 1 0;
#X connect 9 0 8 0;
#X connect 10 0 1 0;
#X connect 12 0 1 0;
#X connect 13 0 12 0;
#X connect 13 1 10 0;
#X connect 14 0 13 0;
#X connect 15 0 27 0;
#X connect 16 0 28 0;
#X connect 17 0 21 0;
#X connect 18 0 23 0;
#X connect 19 0 22 0;
#X connect 20 0 18 0;
#X connect 21 0 20 0;
#X connect 21 1 22 1;
#X connect 22 0 24 0;
#X connect 23 0 25 0;
#X connect 23 1 24 1;
#X connect 24 0 29 0;
#X connect 25 1 19 0;
#X connect 27 0 16 0;
#X connect 27 1 20 1;
#X connect 28 0 17 0;
#X connect 28 1 25 1;
#X connect 29 0 30 0;
#X connect 31 0 33 0;
#X connect 32 0 31 0;
#X connect 33 0 34 0;
#X connect 33 0 35 1;
#X connect 34 0 33 1;
#X connect 35 0 0 0;
#X connect 36 0 35 0;
#X connect 37 0 40 0;
#X connect 40 0 36 0;
#X connect 40 1 32 0;
#X connect 40 2 33 1;
#X connect 40 3 15 0;
#X connect 40 4 14 0;
#X connect 40 5 2 0;
#X connect 40 6 7 0;
#X connect 40 7 41 0;
#X connect 41 0 39 0;
