#N canvas 102 134 660 225 10;
#X obj 50 14 inlet;
#X obj 50 133 f;
#X obj 50 156 outlet;
#X obj 50 36 symbol;
#X obj 50 57 sel a b c d e f g h i j k l m n o p;
#X msg 50 95 0;
#X msg 78 95 1;
#X msg 105 96 2;
#X msg 130 97 3;
#X msg 156 97 4;
#X msg 185 96 5;
#X msg 213 95 6;
#X msg 240 95 7;
#X msg 268 94 8;
#X msg 297 95 9;
#X msg 324 95 10;
#X msg 353 96 11;
#X msg 379 96 12;
#X msg 404 97 13;
#X msg 433 97 14;
#X msg 459 97 15;
#X connect 0 0 3 0;
#X connect 1 0 2 0;
#X connect 3 0 4 0;
#X connect 4 0 5 0;
#X connect 4 1 6 0;
#X connect 4 2 7 0;
#X connect 4 3 8 0;
#X connect 4 4 9 0;
#X connect 4 5 10 0;
#X connect 4 6 11 0;
#X connect 4 7 12 0;
#X connect 4 8 13 0;
#X connect 4 9 14 0;
#X connect 4 10 15 0;
#X connect 4 11 16 0;
#X connect 4 12 17 0;
#X connect 4 13 18 0;
#X connect 4 14 19 0;
#X connect 4 15 20 0;
#X connect 5 0 1 0;
#X connect 6 0 1 0;
#X connect 7 0 1 0;
#X connect 8 0 1 0;
#X connect 9 0 1 0;
#X connect 10 0 1 0;
#X connect 11 0 1 0;
#X connect 12 0 1 0;
#X connect 13 0 1 0;
#X connect 14 0 1 0;
#X connect 15 0 1 0;
#X connect 16 0 1 0;
#X connect 17 0 1 0;
#X connect 18 0 1 0;
#X connect 19 0 1 0;
#X connect 20 0 1 0;
