#N canvas 169 69 591 453 10;
#X obj 59 41 inlet;
#X obj 85 175 t f f f f b;
#X obj 223 270 list;
#X obj 58 315 list;
#X obj 111 275 list append;
#X obj 111 246 > 0;
#X obj 58 342 outlet;
#X obj 58 60 t b s;
#X obj 85 156 f;
#X msg 85 118 0;
#X msg 113 118 1;
#X msg 140 119 2;
#X msg 165 120 3;
#X msg 191 120 4;
#X msg 220 119 5;
#X msg 248 118 6;
#X msg 275 118 7;
#X msg 303 117 8;
#X msg 332 118 9;
#X msg 359 118 10;
#X msg 388 119 11;
#X msg 414 119 12;
#X msg 439 120 13;
#X msg 467 120 14;
#X msg 494 120 15;
#X obj 85 204 & 1;
#X obj 109 204 & 2;
#X obj 134 204 & 4;
#X obj 159 204 & 8;
#X text 199 30 a b c f d g i l e h j m k n o p;
#X obj 85 80 sel a b c f d g i l e h j m k n o p;
#X connect 0 0 7 0;
#X connect 1 0 25 0;
#X connect 1 1 26 0;
#X connect 1 2 27 0;
#X connect 1 3 28 0;
#X connect 1 4 4 1;
#X connect 2 0 4 1;
#X connect 3 0 6 0;
#X connect 4 0 2 0;
#X connect 4 0 3 1;
#X connect 5 0 4 0;
#X connect 7 0 3 0;
#X connect 7 1 30 0;
#X connect 8 0 1 0;
#X connect 9 0 8 0;
#X connect 10 0 8 0;
#X connect 11 0 8 0;
#X connect 12 0 8 0;
#X connect 13 0 8 0;
#X connect 14 0 8 0;
#X connect 15 0 8 0;
#X connect 16 0 8 0;
#X connect 17 0 8 0;
#X connect 18 0 8 0;
#X connect 19 0 8 0;
#X connect 20 0 8 0;
#X connect 21 0 8 0;
#X connect 22 0 8 0;
#X connect 23 0 8 0;
#X connect 24 0 8 0;
#X connect 25 0 5 0;
#X connect 26 0 5 0;
#X connect 27 0 5 0;
#X connect 28 0 5 0;
#X connect 30 0 9 0;
#X connect 30 1 10 0;
#X connect 30 2 11 0;
#X connect 30 3 12 0;
#X connect 30 4 13 0;
#X connect 30 5 14 0;
#X connect 30 6 15 0;
#X connect 30 7 16 0;
#X connect 30 8 17 0;
#X connect 30 9 18 0;
#X connect 30 10 19 0;
#X connect 30 11 20 0;
#X connect 30 12 21 0;
#X connect 30 13 22 0;
#X connect 30 14 23 0;
#X connect 30 15 24 0;
