#N canvas 66 139 930 476 10;
#X obj 36 16 inlet two letter word;
#X obj 442 438 outlet float;
#X obj 512 237 sel a b c d e f g h i j k l m n o p;
#X obj 633 361 f;
#X msg 468 300 0;
#X msg 496 300 1;
#X msg 523 301 2;
#X msg 548 302 3;
#X msg 574 302 4;
#X msg 603 301 5;
#X msg 631 300 6;
#X msg 658 300 7;
#X msg 686 299 8;
#X msg 715 300 9;
#X msg 742 300 10;
#X msg 771 301 11;
#X msg 797 301 12;
#X msg 822 302 13;
#X msg 850 302 14;
#X msg 877 302 15;
#X obj 251 74 s2l;
#X obj 266 36 loadbang;
#X obj 137 225 sel a b c d e f g h i j k l m n o p;
#X obj 193 358 f;
#X msg 28 297 0;
#X msg 56 297 1;
#X msg 83 298 2;
#X msg 108 299 3;
#X msg 134 299 4;
#X msg 163 298 5;
#X msg 191 297 6;
#X msg 218 297 7;
#X msg 246 296 8;
#X msg 275 297 9;
#X msg 302 297 10;
#X msg 331 298 11;
#X msg 357 298 12;
#X msg 382 299 13;
#X msg 410 299 14;
#X msg 437 299 15;
#X obj 457 396 * 16;
#X obj 442 415 +;
#X text 445 53 convert a two letter word into a float;
#X obj 211 53 symbol;
#X msg 266 55 symbol;
#X obj 251 121 list split 1;
#X connect 0 0 43 0;
#X connect 2 0 4 0;
#X connect 2 1 5 0;
#X connect 2 2 6 0;
#X connect 2 3 7 0;
#X connect 2 4 8 0;
#X connect 2 5 9 0;
#X connect 2 6 10 0;
#X connect 2 7 11 0;
#X connect 2 8 12 0;
#X connect 2 9 13 0;
#X connect 2 10 14 0;
#X connect 2 11 15 0;
#X connect 2 12 16 0;
#X connect 2 13 17 0;
#X connect 2 14 18 0;
#X connect 2 15 19 0;
#X connect 3 0 40 0;
#X connect 4 0 3 0;
#X connect 5 0 3 0;
#X connect 6 0 3 0;
#X connect 7 0 3 0;
#X connect 8 0 3 0;
#X connect 9 0 3 0;
#X connect 10 0 3 0;
#X connect 11 0 3 0;
#X connect 12 0 3 0;
#X connect 13 0 3 0;
#X connect 14 0 3 0;
#X connect 15 0 3 0;
#X connect 16 0 3 0;
#X connect 17 0 3 0;
#X connect 18 0 3 0;
#X connect 19 0 3 0;
#X connect 20 0 45 0;
#X connect 21 0 44 0;
#X connect 22 0 24 0;
#X connect 22 1 25 0;
#X connect 22 2 26 0;
#X connect 22 3 27 0;
#X connect 22 4 28 0;
#X connect 22 5 29 0;
#X connect 22 6 30 0;
#X connect 22 7 31 0;
#X connect 22 8 32 0;
#X connect 22 9 33 0;
#X connect 22 10 34 0;
#X connect 22 11 35 0;
#X connect 22 12 36 0;
#X connect 22 13 37 0;
#X connect 22 14 38 0;
#X connect 22 15 39 0;
#X connect 23 0 41 0;
#X connect 24 0 23 0;
#X connect 25 0 23 0;
#X connect 26 0 23 0;
#X connect 27 0 23 0;
#X connect 28 0 23 0;
#X connect 29 0 23 0;
#X connect 30 0 23 0;
#X connect 31 0 23 0;
#X connect 32 0 23 0;
#X connect 33 0 23 0;
#X connect 34 0 23 0;
#X connect 35 0 23 0;
#X connect 36 0 23 0;
#X connect 37 0 23 0;
#X connect 38 0 23 0;
#X connect 39 0 23 0;
#X connect 40 0 41 1;
#X connect 41 0 1 0;
#X connect 43 0 20 0;
#X connect 44 0 20 1;
#X connect 45 0 22 0;
#X connect 45 1 2 0;
