#N canvas 0 69 450 300 10;
#X obj 101 102 s2l;
#X msg 152 85 symbol;
#X obj 152 65 loadbang;
#X obj 80 57 symbol;
#N canvas 0 69 1345 699 s2p4 0;
#X obj 262 75 inlet;
#X obj 321 138 sel a b c d e f g h i j k l m n o p;
#X obj 552 304 & 1;
#X obj 527 304 & 2;
#X obj 502 304 & 4;
#X obj 478 304 & 8;
#X obj 522 272 t f f f f b;
#X obj 615 370 list;
#X obj 525 617 list;
#X obj 503 375 list append;
#X obj 504 346 > 0;
#X obj 519 643 outlet;
#X obj 221 113 t b s;
#X obj 522 253 f;
#X msg 357 192 0;
#X msg 385 192 1;
#X msg 412 193 2;
#X msg 437 194 3;
#X msg 463 194 4;
#X msg 492 193 5;
#X msg 520 192 6;
#X msg 547 192 7;
#X msg 575 191 8;
#X msg 604 192 9;
#X msg 631 192 10;
#X msg 660 193 11;
#X msg 686 193 12;
#X msg 711 194 13;
#X msg 739 194 14;
#X msg 766 194 15;
#X connect 0 0 12 0;
#X connect 1 0 14 0;
#X connect 1 1 15 0;
#X connect 1 2 16 0;
#X connect 1 3 17 0;
#X connect 1 4 18 0;
#X connect 1 5 19 0;
#X connect 1 6 20 0;
#X connect 1 7 21 0;
#X connect 1 8 22 0;
#X connect 1 9 23 0;
#X connect 1 10 24 0;
#X connect 1 11 25 0;
#X connect 1 12 26 0;
#X connect 1 13 27 0;
#X connect 1 14 28 0;
#X connect 1 15 29 0;
#X connect 2 0 10 0;
#X connect 3 0 10 0;
#X connect 4 0 10 0;
#X connect 5 0 10 0;
#X connect 6 0 5 0;
#X connect 6 1 4 0;
#X connect 6 2 3 0;
#X connect 6 3 2 0;
#X connect 6 4 9 1;
#X connect 7 0 9 1;
#X connect 8 0 11 0;
#X connect 9 0 7 0;
#X connect 9 0 8 1;
#X connect 10 0 9 0;
#X connect 12 0 8 0;
#X connect 12 1 1 0;
#X connect 13 0 6 0;
#X connect 14 0 13 0;
#X connect 15 0 13 0;
#X connect 16 0 13 0;
#X connect 17 0 13 0;
#X connect 18 0 13 0;
#X connect 19 0 13 0;
#X connect 20 0 13 0;
#X connect 21 0 13 0;
#X connect 22 0 13 0;
#X connect 23 0 13 0;
#X connect 24 0 13 0;
#X connect 25 0 13 0;
#X connect 26 0 13 0;
#X connect 27 0 13 0;
#X connect 28 0 13 0;
#X connect 29 0 13 0;
#X restore 91 148 pd s2p4;
#N canvas 0 69 1345 699 s2p4 0;
#X obj 262 75 inlet;
#X obj 321 138 sel a b c d e f g h i j k l m n o p;
#X obj 552 304 & 1;
#X obj 527 304 & 2;
#X obj 502 304 & 4;
#X obj 478 304 & 8;
#X obj 522 272 t f f f f b;
#X obj 615 370 list;
#X obj 525 617 list;
#X obj 503 375 list append;
#X obj 504 346 > 0;
#X obj 519 643 outlet;
#X obj 221 113 t b s;
#X obj 522 253 f;
#X msg 357 192 0;
#X msg 385 192 1;
#X msg 412 193 2;
#X msg 437 194 3;
#X msg 463 194 4;
#X msg 492 193 5;
#X msg 520 192 6;
#X msg 547 192 7;
#X msg 575 191 8;
#X msg 604 192 9;
#X msg 631 192 10;
#X msg 660 193 11;
#X msg 686 193 12;
#X msg 711 194 13;
#X msg 739 194 14;
#X msg 766 194 15;
#X connect 0 0 12 0;
#X connect 1 0 14 0;
#X connect 1 1 15 0;
#X connect 1 2 16 0;
#X connect 1 3 17 0;
#X connect 1 4 18 0;
#X connect 1 5 19 0;
#X connect 1 6 20 0;
#X connect 1 7 21 0;
#X connect 1 8 22 0;
#X connect 1 9 23 0;
#X connect 1 10 24 0;
#X connect 1 11 25 0;
#X connect 1 12 26 0;
#X connect 1 13 27 0;
#X connect 1 14 28 0;
#X connect 1 15 29 0;
#X connect 2 0 10 0;
#X connect 3 0 10 0;
#X connect 4 0 10 0;
#X connect 5 0 10 0;
#X connect 6 0 5 0;
#X connect 6 1 4 0;
#X connect 6 2 3 0;
#X connect 6 3 2 0;
#X connect 6 4 9 1;
#X connect 7 0 9 1;
#X connect 8 0 11 0;
#X connect 9 0 7 0;
#X connect 9 0 8 1;
#X connect 10 0 9 0;
#X connect 12 0 8 0;
#X connect 12 1 1 0;
#X connect 13 0 6 0;
#X connect 14 0 13 0;
#X connect 15 0 13 0;
#X connect 16 0 13 0;
#X connect 17 0 13 0;
#X connect 18 0 13 0;
#X connect 19 0 13 0;
#X connect 20 0 13 0;
#X connect 21 0 13 0;
#X connect 22 0 13 0;
#X connect 23 0 13 0;
#X connect 24 0 13 0;
#X connect 25 0 13 0;
#X connect 26 0 13 0;
#X connect 27 0 13 0;
#X connect 28 0 13 0;
#X connect 29 0 13 0;
#X restore 141 148 pd s2p4;
#X obj 101 121 unpack s s s s;
#N canvas 0 69 1345 699 s2p4 0;
#X obj 262 75 inlet;
#X obj 321 138 sel a b c d e f g h i j k l m n o p;
#X obj 552 304 & 1;
#X obj 527 304 & 2;
#X obj 502 304 & 4;
#X obj 478 304 & 8;
#X obj 522 272 t f f f f b;
#X obj 615 370 list;
#X obj 525 617 list;
#X obj 503 375 list append;
#X obj 504 346 > 0;
#X obj 519 643 outlet;
#X obj 221 113 t b s;
#X obj 522 253 f;
#X msg 357 192 0;
#X msg 385 192 1;
#X msg 412 193 2;
#X msg 437 194 3;
#X msg 463 194 4;
#X msg 492 193 5;
#X msg 520 192 6;
#X msg 547 192 7;
#X msg 575 191 8;
#X msg 604 192 9;
#X msg 631 192 10;
#X msg 660 193 11;
#X msg 686 193 12;
#X msg 711 194 13;
#X msg 739 194 14;
#X msg 766 194 15;
#X connect 0 0 12 0;
#X connect 1 0 14 0;
#X connect 1 1 15 0;
#X connect 1 2 16 0;
#X connect 1 3 17 0;
#X connect 1 4 18 0;
#X connect 1 5 19 0;
#X connect 1 6 20 0;
#X connect 1 7 21 0;
#X connect 1 8 22 0;
#X connect 1 9 23 0;
#X connect 1 10 24 0;
#X connect 1 11 25 0;
#X connect 1 12 26 0;
#X connect 1 13 27 0;
#X connect 1 14 28 0;
#X connect 1 15 29 0;
#X connect 2 0 10 0;
#X connect 3 0 10 0;
#X connect 4 0 10 0;
#X connect 5 0 10 0;
#X connect 6 0 5 0;
#X connect 6 1 4 0;
#X connect 6 2 3 0;
#X connect 6 3 2 0;
#X connect 6 4 9 1;
#X connect 7 0 9 1;
#X connect 8 0 11 0;
#X connect 9 0 7 0;
#X connect 9 0 8 1;
#X connect 10 0 9 0;
#X connect 12 0 8 0;
#X connect 12 1 1 0;
#X connect 13 0 6 0;
#X connect 14 0 13 0;
#X connect 15 0 13 0;
#X connect 16 0 13 0;
#X connect 17 0 13 0;
#X connect 18 0 13 0;
#X connect 19 0 13 0;
#X connect 20 0 13 0;
#X connect 21 0 13 0;
#X connect 22 0 13 0;
#X connect 23 0 13 0;
#X connect 24 0 13 0;
#X connect 25 0 13 0;
#X connect 26 0 13 0;
#X connect 27 0 13 0;
#X connect 28 0 13 0;
#X connect 29 0 13 0;
#X restore 190 148 pd s2p4;
#N canvas 0 69 1345 699 s2p4 0;
#X obj 262 75 inlet;
#X obj 321 138 sel a b c d e f g h i j k l m n o p;
#X obj 552 304 & 1;
#X obj 527 304 & 2;
#X obj 502 304 & 4;
#X obj 478 304 & 8;
#X obj 522 272 t f f f f b;
#X obj 615 370 list;
#X obj 525 617 list;
#X obj 503 375 list append;
#X obj 504 346 > 0;
#X obj 519 643 outlet;
#X obj 221 113 t b s;
#X obj 522 253 f;
#X msg 357 192 0;
#X msg 385 192 1;
#X msg 412 193 2;
#X msg 437 194 3;
#X msg 463 194 4;
#X msg 492 193 5;
#X msg 520 192 6;
#X msg 547 192 7;
#X msg 575 191 8;
#X msg 604 192 9;
#X msg 631 192 10;
#X msg 660 193 11;
#X msg 686 193 12;
#X msg 711 194 13;
#X msg 739 194 14;
#X msg 766 194 15;
#X connect 0 0 12 0;
#X connect 1 0 14 0;
#X connect 1 1 15 0;
#X connect 1 2 16 0;
#X connect 1 3 17 0;
#X connect 1 4 18 0;
#X connect 1 5 19 0;
#X connect 1 6 20 0;
#X connect 1 7 21 0;
#X connect 1 8 22 0;
#X connect 1 9 23 0;
#X connect 1 10 24 0;
#X connect 1 11 25 0;
#X connect 1 12 26 0;
#X connect 1 13 27 0;
#X connect 1 14 28 0;
#X connect 1 15 29 0;
#X connect 2 0 10 0;
#X connect 3 0 10 0;
#X connect 4 0 10 0;
#X connect 5 0 10 0;
#X connect 6 0 5 0;
#X connect 6 1 4 0;
#X connect 6 2 3 0;
#X connect 6 3 2 0;
#X connect 6 4 9 1;
#X connect 7 0 9 1;
#X connect 8 0 11 0;
#X connect 9 0 7 0;
#X connect 9 0 8 1;
#X connect 10 0 9 0;
#X connect 12 0 8 0;
#X connect 12 1 1 0;
#X connect 13 0 6 0;
#X connect 14 0 13 0;
#X connect 15 0 13 0;
#X connect 16 0 13 0;
#X connect 17 0 13 0;
#X connect 18 0 13 0;
#X connect 19 0 13 0;
#X connect 20 0 13 0;
#X connect 21 0 13 0;
#X connect 22 0 13 0;
#X connect 23 0 13 0;
#X connect 24 0 13 0;
#X connect 25 0 13 0;
#X connect 26 0 13 0;
#X connect 27 0 13 0;
#X connect 28 0 13 0;
#X connect 29 0 13 0;
#X restore 240 147 pd s2p4;
#X obj 190 167 list;
#X obj 141 184 list;
#X obj 91 202 list;
#X obj 80 35 inlet;
#X obj 91 225 outlet;
#X connect 0 0 6 0;
#X connect 1 0 0 1;
#X connect 2 0 1 0;
#X connect 3 0 0 0;
#X connect 4 0 11 0;
#X connect 5 0 10 0;
#X connect 6 0 4 0;
#X connect 6 1 5 0;
#X connect 6 2 7 0;
#X connect 6 3 8 0;
#X connect 7 0 9 0;
#X connect 8 0 9 1;
#X connect 9 0 10 1;
#X connect 10 0 11 1;
#X connect 11 0 13 0;
#X connect 12 0 3 0;
