#N canvas 1 82 1265 746 10;
#X declare -path abstractions;
#X text 14 174 daniel.gomez@upf.edu;
#N canvas 116 296 1161 403 midi 0;
#X obj 50 19 ctlin 29;
#X obj 50 39 list prepend;
#X obj 50 269 s comm;
#X obj 71 186 s den;
#X obj 92 128 s sync;
#X obj 50 230 * 2;
#X obj 50 249 - 1;
#X obj 50 211 / 127;
#X obj 71 165 / 127;
#X obj 92 108 / 127;
#X floatatom 219 57 5 0 0 0 - - -;
#X floatatom 207 85 5 0 0 0 - - -;
#X floatatom 162 75 5 0 0 0 - - -;
#X obj 193 33 ctlin;
#X floatatom 393 55 5 0 0 0 - - -;
#X floatatom 381 83 5 0 0 0 - - -;
#X floatatom 336 73 5 0 0 0 - - -;
#X obj 367 31 notein;
#X obj 243 144 notein 1;
#X obj 243 165 pack;
#X obj 243 184 route 107;
#X obj 243 238 sel 127;
#X obj 243 260 s st;
#X obj 243 206 change;
#X obj 392 137 notein 1;
#X obj 392 158 pack;
#X obj 392 177 route 111;
#X obj 392 217 sel 127;
#X obj 392 197 change;
#X obj 392 236 s cng;
#X obj 528 32 notein 1;
#X obj 528 51 pack;
#X obj 530 122 sel 127;
#X obj 530 90 change;
#X obj 528 70 route 108;
#X obj 531 179 notein 1;
#X obj 531 198 pack;
#X obj 533 269 sel 127;
#X obj 533 237 change;
#X obj 531 217 route 106;
#X obj 530 149 s prv;
#X obj 533 296 s nxt;
#X obj 50 81 route 1 2 3 4;
#X obj 164 125 / 127;
#X obj 164 148 * 100;
#X obj 164 175 + 60;
#X obj 164 209 s bp;
#X obj 632 164 notein 1;
#X obj 632 183 pack;
#X obj 634 254 sel 127;
#X obj 634 222 change;
#X obj 632 202 route 110;
#X obj 634 281 s tp;
#X obj 773 225 noteout 7;
#X obj 773 201 makenote;
#X msg 773 179 \$1 127 100;
#X msg 734 146 36;
#X text 885 201 to drum machine;
#X obj 737 79 r playk;
#X obj 768 96 r plays;
#X obj 919 92 r playch;
#X obj 977 92 r playoh;
#X obj 865 109 r playcp;
#X obj 800 122 r playrs;
#X msg 796 146 37;
#X msg 774 121 38;
#X msg 859 135 39;
#X msg 884 179 40;
#X msg 912 180 41;
#X msg 930 150 42;
#X msg 956 150 46;
#X connect 0 0 1 0;
#X connect 0 1 1 1;
#X connect 1 0 42 0;
#X connect 5 0 6 0;
#X connect 6 0 2 0;
#X connect 7 0 5 0;
#X connect 8 0 3 0;
#X connect 9 0 4 0;
#X connect 13 0 12 0;
#X connect 13 1 11 0;
#X connect 13 2 10 0;
#X connect 17 0 16 0;
#X connect 17 1 15 0;
#X connect 17 2 14 0;
#X connect 18 0 19 0;
#X connect 18 1 19 1;
#X connect 19 0 20 0;
#X connect 20 0 23 0;
#X connect 21 0 22 0;
#X connect 23 0 21 0;
#X connect 24 0 25 0;
#X connect 24 1 25 1;
#X connect 25 0 26 0;
#X connect 26 0 28 0;
#X connect 27 0 29 0;
#X connect 28 0 27 0;
#X connect 30 0 31 0;
#X connect 30 1 31 1;
#X connect 31 0 34 0;
#X connect 32 0 40 0;
#X connect 33 0 32 0;
#X connect 34 0 33 0;
#X connect 35 0 36 0;
#X connect 35 1 36 1;
#X connect 36 0 39 0;
#X connect 37 0 41 0;
#X connect 38 0 37 0;
#X connect 39 0 38 0;
#X connect 42 0 7 0;
#X connect 42 1 8 0;
#X connect 42 2 9 0;
#X connect 42 3 43 0;
#X connect 43 0 44 0;
#X connect 44 0 45 0;
#X connect 45 0 46 0;
#X connect 47 0 48 0;
#X connect 47 1 48 1;
#X connect 48 0 51 0;
#X connect 49 0 52 0;
#X connect 50 0 49 0;
#X connect 51 0 50 0;
#X connect 54 0 53 0;
#X connect 54 1 53 1;
#X connect 55 0 54 0;
#X connect 56 0 55 0;
#X connect 58 0 56 0;
#X connect 59 0 65 0;
#X connect 60 0 69 0;
#X connect 61 0 70 0;
#X connect 62 0 66 0;
#X connect 63 0 64 0;
#X connect 64 0 55 0;
#X connect 65 0 55 0;
#X connect 66 0 55 0;
#X connect 67 0 55 0;
#X connect 68 0 55 0;
#X connect 69 0 55 0;
#X connect 70 0 55 0;
#X restore 1547 358 pd midi;
#X obj 1619 331 % 32;
#X obj 1619 350 s numberz32;
#X obj 1619 312 r \$0-pulp_beat;
#X msg 1642 715 0;
#X msg 1678 720 0.5;
#X msg 1665 515 0;
#X obj 1678 435 loadbang;
#X obj 1679 471 delay 1000;
#X obj 1668 403 r zero-ag;
#X obj 1695 558 s ag-kick-in;
#X obj 1678 584 s ag-snare-in;
#X obj 1693 613 s ag-ch-in;
#X obj 1690 533 s ag-oh-in;
#X obj 1674 643 s ag-cp-in;
#X obj 1675 662 s ag-rs-in;
#X obj 1636 695 r zero-dws;
#X obj 1643 739 s comm;
#X obj 1642 760 s den;
#X obj 1700 750 s sync;
#X obj 2 2 cnv 15 1440 800 empty \$0-title Markov Drums 5 30 1 60 -128992
-258699 0;
#X obj 528 434 vsl 40 280 -1 1 0 1 param_comm-ui comm commonness -113
-60 1 48 -66577 -258113 -228856 13950 1;
#X obj 578 555 bng 40 250 50 0 zero-dws nor empty 17 7 0 10 -66577
-258113 -258113;
#X obj 930 434 vsl 40 280 -1 1 0 1 param_ag-cp ag-cp-in Cp 1 -20 1
24 -66577 -258113 -228856 13950 1;
#X obj 880 434 vsl 40 280 -1 1 0 1 param_ag-oh ag-oh-in Oh 1 -20 1
24 -66577 -258113 -228856 13950 1;
#X obj 830 434 vsl 40 280 -1 1 0 1 param_ag-ch ag-ch-in Ch 1 -20 1
24 -66577 -258113 -228856 13950 1;
#X obj 780 434 vsl 40 280 -1 1 0 1 param_ag-snare ag-snare-in S 7 -20
1 24 -66577 -258113 -228856 13950 1;
#X obj 730 434 vsl 40 280 -1 1 0 1 param_ag-kick ag-kick-in K 7 -20
1 24 -66577 -258113 -228856 13950 1;
#X obj 980 434 vsl 40 280 -1 1 0 1 param_ag-rs ag-rs-in Rs 1 -20 1
24 -66577 -258113 -228856 13950 1;
#X obj 1041 554 bng 40 250 50 0 zero-ag nor empty 17 7 0 10 -66577
-258113 -258113;
#N canvas 135 100 1084 699 gui 0;
#N canvas 126 103 450 420 samples 0;
#X obj 118 54 loadbang;
#X obj 75 322 soundfiler;
#X msg 118 77 read -resize samples/kick.wav k;
#X obj 185 97 table k;
#X msg 139 122 read -resize samples/snare.wav s;
#X obj 206 142 table s;
#X obj 216 193 table o;
#X msg 149 173 read -resize samples/oh.wav o;
#X msg 174 218 read -resize samples/ch.wav c;
#X obj 241 238 table c;
#X obj 223 297 table cp;
#X msg 156 277 read -resize samples/cp.wav cp;
#X msg 165 328 read -resize samples/rs.wav rs;
#X obj 232 348 table rs;
#X connect 0 0 2 0;
#X connect 0 0 4 0;
#X connect 0 0 7 0;
#X connect 0 0 8 0;
#X connect 0 0 11 0;
#X connect 0 0 12 0;
#X connect 2 0 1 0;
#X connect 4 0 1 0;
#X connect 7 0 1 0;
#X connect 8 0 1 0;
#X connect 11 0 1 0;
#X connect 12 0 1 0;
#X restore 59 628 pd samples;
#X msg 4 647 \; pd dsp 1;
#X obj 4 628 loadbang;
#N canvas 497 69 842 688 search 0;
#X obj 288 195 coll \$0-knowledge;
#C restore;
#N canvas 297 275 562 451 element2list 0;
#X obj 103 145 s2l;
#X msg 118 126 symbol;
#X obj 118 107 loadbang;
#X obj 103 166 list split 2;
#X obj 103 185 t b a;
#X obj 130 260 l2s;
#X obj 145 222 loadbang;
#X msg 145 241 symbol;
#X obj 144 202 list;
#X obj 304 329 list;
#X obj 84 352 list;
#X obj 84 33 t b a b;
#X obj 280 297 list prepend;
#X obj 84 11 inlet;
#X obj 84 387 outlet;
#X text 199 99 Convert a wrapped element of the knowledge database
into its elements.;
#X connect 0 0 3 0;
#X connect 1 0 0 1;
#X connect 2 0 1 0;
#X connect 3 0 4 0;
#X connect 3 1 8 1;
#X connect 4 0 8 0;
#X connect 4 1 5 0;
#X connect 5 0 12 0;
#X connect 6 0 7 0;
#X connect 7 0 5 1;
#X connect 8 0 3 0;
#X connect 9 0 12 1;
#X connect 10 0 14 0;
#X connect 11 0 10 0;
#X connect 11 1 0 0;
#X connect 11 2 12 1;
#X connect 11 2 10 1;
#X connect 12 0 9 0;
#X connect 12 0 10 1;
#X connect 13 0 11 0;
#X restore 288 233 pd element2list;
#N canvas 423 460 450 300 drip 0;
#X obj 32 51 inlet;
#X obj 45 179 outlet;
#X obj 44 90 list split 1;
#X obj 43 116 t b a;
#X obj 83 140 list;
#X connect 0 0 2 0;
#X connect 2 0 3 0;
#X connect 2 1 4 1;
#X connect 3 0 4 0;
#X connect 3 1 1 0;
#X connect 4 0 2 0;
#X restore 288 214 pd drip;
#X obj 107 272 tabread \$0-ran32;
#X obj 201 501 list prepend;
#X obj 409 195 t a a;
#N canvas 487 431 450 300 makelist 0;
#X obj 241 28 inlet values;
#X obj 52 29 inlet bang to output and reset;
#X obj 241 184 list;
#X obj 262 103 loadbang;
#X msg 262 127 bang;
#X obj 272 184 list;
#X obj 79 201 list;
#X obj 52 77 t b b;
#X obj 79 246 outlet;
#X obj 79 223 list trim;
#X connect 0 0 2 0;
#X connect 1 0 7 0;
#X connect 2 0 5 0;
#X connect 2 0 6 1;
#X connect 3 0 4 0;
#X connect 4 0 2 1;
#X connect 4 0 6 1;
#X connect 5 0 2 1;
#X connect 6 0 9 0;
#X connect 7 0 4 0;
#X connect 7 1 6 0;
#X connect 9 0 8 0;
#X restore 225 272 pd makelist;
#X obj 225 395 route bang;
#N canvas 249 72 372 542 probs2element 0;
#X obj 37 352 sum;
#X obj 37 276 list;
#X obj 37 331 list split;
#X obj 37 240 t b b;
#X obj 94 271 f;
#X obj 125 271 + 1;
#X msg 109 243 0;
#X obj 37 210 until;
#X obj 37 162 t a a b;
#X obj 218 455 f;
#X obj 94 311 t f f;
#X obj 218 407 sel 1;
#X obj 37 82 t b f;
#X obj 37 143 list;
#X obj 218 385 >=;
#X obj 218 431 t b b;
#X obj 158 53 inlet probabilities;
#X obj 37 53 inlet random number;
#X obj 218 509 outlet selected class;
#X text 17 8 input a list of probabilities and a random number and
output an element from the list.;
#X obj 94 291 + 1;
#X obj 218 481 - 1;
#X msg 37 186 256;
#X connect 0 0 14 0;
#X connect 1 0 2 0;
#X connect 2 0 0 0;
#X connect 3 0 1 0;
#X connect 3 1 4 0;
#X connect 4 0 5 0;
#X connect 4 0 20 0;
#X connect 5 0 4 1;
#X connect 6 0 4 1;
#X connect 7 0 3 0;
#X connect 8 0 22 0;
#X connect 8 1 1 1;
#X connect 8 2 6 0;
#X connect 9 0 21 0;
#X connect 10 0 2 1;
#X connect 10 1 9 1;
#X connect 11 0 15 0;
#X connect 12 0 13 0;
#X connect 12 1 14 1;
#X connect 13 0 8 0;
#X connect 14 0 11 0;
#X connect 15 0 9 0;
#X connect 15 1 7 1;
#X connect 16 0 13 1;
#X connect 17 0 12 0;
#X connect 20 0 10 0;
#X connect 21 0 18 0;
#X connect 22 0 7 0;
#X restore 107 458 pd probs2element;
#N canvas 576 207 457 400 refine 0;
#X obj 66 237 list split;
#X obj 66 177 t a a;
#X obj 102 197 list length;
#X obj 102 216 - 1;
#X obj 138 263 l2s;
#X obj 156 220 loadbang;
#X msg 156 240 symbol _;
#X msg 138 282 symbol _\$1;
#X obj 66 329 symbol;
#X obj 100 24 inlet list of elements;
#X obj 221 266 inlet past;
#X obj 33 361 outlet;
#X obj 33 24 r \$0-order;
#X obj 31 43 != 0;
#X obj 31 62 + 1;
#X text 122 99 Note: if the order is 0 bypass this object because there
is no past. If the order is higher then use the code below.;
#X obj 66 309 sel xx;
#X obj 221 287 l2s;
#X obj 66 289 l2s;
#X obj 13 95 cyclone/gate 2 1;
#X connect 0 0 4 0;
#X connect 0 0 18 0;
#X connect 0 1 8 1;
#X connect 1 0 0 0;
#X connect 1 1 2 0;
#X connect 2 0 3 0;
#X connect 3 0 0 1;
#X connect 4 0 7 0;
#X connect 5 0 6 0;
#X connect 6 0 4 1;
#X connect 8 0 11 0;
#X connect 9 0 19 1;
#X connect 10 0 17 0;
#X connect 12 0 13 0;
#X connect 13 0 14 0;
#X connect 14 0 19 0;
#X connect 16 0 8 0;
#X connect 17 0 16 1;
#X connect 18 0 16 0;
#X connect 19 0 11 0;
#X connect 19 1 1 0;
#X restore 288 252 pd refine list;
#X obj 482 605 outlet zfs;
#N canvas 403 438 450 300 split 0;
#X obj 130 77 t a a;
#X obj 187 94 list length;
#X obj 130 132 list split;
#X obj 187 113 - 1;
#X obj 130 47 inlet;
#X obj 94 163 list trim;
#X text 164 45 a list with past and now;
#X obj 186 186 outlet now;
#X obj 94 186 outlet past;
#X connect 0 0 2 0;
#X connect 0 1 1 0;
#X connect 1 0 3 0;
#X connect 2 0 5 0;
#X connect 2 1 7 0;
#X connect 3 0 2 1;
#X connect 4 0 0 0;
#X connect 5 0 8 0;
#X restore 201 523 pd split past now;
#N canvas 311 397 450 300 define 0;
#X obj 37 26 inlet previous past;
#X obj 201 27 inlet previous now;
#X obj 71 179 outlet new past;
#X obj 37 89 list split 1;
#X obj 71 123 list;
#X obj 71 150 list trim;
#X connect 0 0 3 0;
#X connect 1 0 4 1;
#X connect 3 1 4 0;
#X connect 4 0 5 0;
#X connect 5 0 2 0;
#X restore 201 562 pd define new past;
#X obj 315 661 outlet now;
#X obj 665 579 t a;
#N canvas 179 159 709 346 generate 0;
#X msg 72 62 32;
#X obj 72 113 until;
#X obj 72 133 random 1000;
#X obj 72 154 * 0.001;
#X obj 161 192 f;
#X obj 188 193 + 1;
#X obj 72 81 t f b;
#X msg 160 105 0;
#X obj 72 175 t f b;
#X obj 72 225 tabwrite \$0-ran32;
#N canvas 0 69 450 300 (subpatch) 0;
#X array \$0-ran32 32 float 0;
#X coords 0 1 31 0 256 50 1 0 0;
#X restore 236 128 graph;
#X obj 88 39 inlet;
#X connect 0 0 6 0;
#X connect 1 0 2 0;
#X connect 2 0 3 0;
#X connect 3 0 8 0;
#X connect 4 0 5 0;
#X connect 4 0 9 1;
#X connect 5 0 4 1;
#X connect 6 0 1 0;
#X connect 6 1 7 0;
#X connect 7 0 4 1;
#X connect 8 0 9 0;
#X connect 8 1 4 0;
#X connect 11 0 0 0;
#X restore 417 56 pd generate new random list;
#N canvas 463 136 783 482 create 0;
#X obj 52 26 inlet;
#N canvas 423 460 450 300 drip 0;
#X obj 32 51 inlet;
#X obj 45 179 outlet;
#X obj 44 90 list split 1;
#X obj 43 116 t b a;
#X obj 83 140 list;
#X connect 0 0 2 0;
#X connect 2 0 3 0;
#X connect 2 1 4 1;
#X connect 3 0 4 0;
#X connect 3 1 1 0;
#X connect 4 0 2 0;
#X restore 71 152 pd drip;
#N canvas 380 300 450 300 packel 0;
#X obj 314 28 inlet list;
#X obj 121 27 inlet element;
#X obj 93 115 list split;
#X obj 121 139 list split 1;
#X obj 121 171 outlet;
#X obj 121 49 - 1;
#X obj 157 69 t b f;
#X obj 157 92 list;
#X connect 0 0 7 1;
#X connect 1 0 5 0;
#X connect 2 1 3 0;
#X connect 3 0 4 0;
#X connect 5 0 2 1;
#X connect 5 0 6 0;
#X connect 6 0 7 0;
#X connect 7 0 2 0;
#X restore 71 299 pd packel;
#N canvas 370 295 644 371 insert 0;
#X obj 180 167 list split;
#X obj 180 129 list;
#X obj 180 102 t b f;
#X obj 21 30 inlet value;
#X obj 425 41 inlet list;
#X obj 197 40 inlet index;
#X obj 208 212 list split 1;
#X obj 221 293 list;
#X msg 209 234 bang;
#X obj 210 261 f;
#X obj 180 316 list;
#X obj 180 342 outlet;
#X obj 21 64 t b f;
#X obj 182 81 f;
#X text 4 13 value that we want to insert;
#X text 184 23 index where we want to insert value;
#X text 429 23 list where we want to transform;
#X connect 0 0 10 0;
#X connect 0 1 6 0;
#X connect 1 0 0 0;
#X connect 2 0 1 0;
#X connect 2 1 0 1;
#X connect 3 0 12 0;
#X connect 4 0 1 1;
#X connect 5 0 13 1;
#X connect 6 0 8 0;
#X connect 6 1 7 1;
#X connect 7 0 10 1;
#X connect 8 0 9 0;
#X connect 9 0 7 0;
#X connect 10 0 11 0;
#X connect 12 0 13 0;
#X connect 12 1 9 1;
#X connect 13 0 2 0;
#X restore 71 386 pd insert in package;
#X obj 161 282 t a a;
#X obj 71 280 t f f;
#X obj 50 459 outlet;
#X obj 50 416 list;
#X obj 23 315 t b b;
#N canvas 440 464 450 300 normalize 0;
#X obj 43 13 inlet list;
#X obj 43 36 t b a a;
#X obj 204 138 sum;
#X obj 68 86 list split 1;
#X obj 120 127 list;
#X obj 68 109 t b f;
#X obj 95 178 /;
#N canvas 544 469 450 300 makelist 0;
#X obj 241 28 inlet values;
#X obj 52 29 inlet bang to output and reset;
#X obj 321 90 loadbang;
#X msg 321 112 bang;
#X obj 175 145 list;
#X obj 74 202 list;
#X obj 69 74 t b b;
#X obj 73 247 outlet;
#X obj 147 115 list prepend;
#X connect 0 0 8 0;
#X connect 1 0 6 0;
#X connect 2 0 3 0;
#X connect 3 0 5 1;
#X connect 3 0 8 1;
#X connect 4 0 8 1;
#X connect 5 0 7 0;
#X connect 6 0 3 0;
#X connect 6 1 5 0;
#X connect 8 0 4 0;
#X connect 8 0 5 1;
#X restore 43 222 pd makelist;
#X obj 46 252 outlet;
#X connect 0 0 1 0;
#X connect 1 0 7 0;
#X connect 1 1 3 0;
#X connect 1 2 2 0;
#X connect 2 0 6 1;
#X connect 3 0 5 0;
#X connect 3 1 4 1;
#X connect 4 0 3 0;
#X connect 5 0 4 0;
#X connect 5 1 6 0;
#X connect 6 0 7 1;
#X connect 7 0 8 0;
#X restore 50 436 pd normalize;
#X text 22 8 list of elements that share a same past;
#X text 100 249 convert dictionary to float (index of the list);
#X obj 71 324 + 1;
#X obj 71 250 w22f;
#X obj 52 47 t b a b a a;
#X text 223 79 here we have 256 zeroes which is 2^(number of instruments)
amount of probabilities;
#N canvas 685 403 450 300 zerolist 0;
#X text 76 16 create a zerolist with a bang and continue exporting
it with another bang;
#X obj 68 85 inlet export;
#X obj 140 88 inlet generate;
#X obj 197 147 until;
#X obj 140 107 route bang;
#X obj 183 199 list;
#X obj 215 201 list;
#X obj 203 125 t f b;
#X obj 162 221 list;
#X obj 163 251 outlet;
#X msg 200 173 0;
#X connect 1 0 8 0;
#X connect 2 0 4 0;
#X connect 3 0 10 0;
#X connect 4 1 7 0;
#X connect 5 0 6 0;
#X connect 5 0 8 1;
#X connect 6 0 5 1;
#X connect 7 0 3 0;
#X connect 7 1 5 1;
#X connect 8 0 9 0;
#X connect 10 0 5 0;
#X restore 161 192 pd zerolist;
#X obj 233 131 loadbang;
#X msg 233 152 42;
#X msg 199 89 256;
#X text 260 148 however they are not completely needed because depending
on the style you only need the amount of elements present in your style.
Despite this \, 42 is the highest amount of space needed to manage
all the possible unique patterns. In other words is the highest index
of the unique patterns of all the styles.;
#X connect 0 0 14 0;
#X connect 1 0 13 0;
#X connect 2 0 12 0;
#X connect 3 0 4 0;
#X connect 3 0 7 1;
#X connect 4 0 2 1;
#X connect 4 1 3 2;
#X connect 5 0 2 0;
#X connect 5 1 3 1;
#X connect 7 0 9 0;
#X connect 8 0 7 1;
#X connect 8 1 7 0;
#X connect 9 0 6 0;
#X connect 12 0 3 0;
#X connect 13 0 5 0;
#X connect 14 0 8 0;
#X connect 14 1 1 0;
#X connect 14 2 16 0;
#X connect 16 0 4 0;
#X connect 17 0 18 0;
#X connect 18 0 16 1;
#X connect 19 0 16 1;
#X restore 225 293 pd create probabilities;
#X text 366 292 <- given the past this is the resulting probabilities
table;
#N canvas 701 459 450 300 zfs 0;
#X obj 9 9 inlet;
#X obj 44 142 outlet;
#N canvas 803 405 450 300 zerolist 0;
#X obj 69 22 inlet;
#X obj 153 89 until;
#X obj 69 43 route bang;
#X obj 153 179 list;
#X obj 185 179 list;
#X obj 126 65 t b f;
#X msg 153 115 0;
#X obj 132 208 list;
#X obj 105 120 t b b;
#X obj 132 229 outlet;
#X connect 0 0 2 0;
#X connect 1 0 6 0;
#X connect 2 1 5 0;
#X connect 3 0 4 0;
#X connect 3 0 7 1;
#X connect 4 0 3 1;
#X connect 5 0 8 0;
#X connect 5 1 1 0;
#X connect 6 0 3 0;
#X connect 7 0 9 0;
#X connect 8 0 3 1;
#X connect 8 1 7 0;
#X restore 20 82 pd zerolist;
#X msg 20 61 256;
#X connect 0 0 3 0;
#X connect 2 0 1 0;
#X connect 3 0 2 0;
#X restore 225 419 pd zfs;
#X obj 56 272 f;
#X obj 56 570 f;
#X obj 312 587 list;
#X text 313 679 step and dictionary hit;
#X obj 409 155 sel 0;
#X obj 216 324 cnv 15 130 60 empty empty empty 20 12 0 14 -260097 -66577
0;
#X text 346 339 <- Here we apply the transfromations for the probabilities
tables;
#X obj 390 18 inlet;
#X obj 145 30 r \$0-apply-transform;
#X obj 390 99 t f f f;
#X obj 550 176 f;
#X obj 306 543 t s s;
#N canvas 83 282 564 374 first 0;
#X text 118 86 INDEX;
#X obj 92 142 t f f;
#X obj 233 159 tabread \$0-ran32;
#X obj 92 162 coll \$0-knowledge;
#C restore;
#N canvas 484 454 579 300 random 0;
#X obj 33 28 inlet lista;
#X obj 195 22 inlet random number;
#X obj 61 247 outlet;
#X obj 33 50 t a a;
#X obj 60 71 list length;
#X obj 90 135 *;
#X obj 90 154 int;
#X obj 33 198 list split;
#X obj 61 220 list split 1;
#X obj 90 175 - 1;
#X obj 60 92 + 1.25;
#X text 179 129 great object! see where the random numebr fits within
all the possible elements of the list. the random number is nomalized
to the total number of elements of the list;
#X connect 0 0 3 0;
#X connect 1 0 5 1;
#X connect 3 0 7 0;
#X connect 3 1 4 0;
#X connect 4 0 10 0;
#X connect 5 0 6 0;
#X connect 6 0 9 0;
#X connect 7 1 8 0;
#X connect 8 0 2 0;
#X connect 9 0 7 1;
#X connect 10 0 5 0;
#X restore 92 182 pd random list 2 element;
#N canvas 434 460 450 300 split 0;
#X obj 130 77 t a a;
#X obj 187 94 list length;
#X obj 130 132 list split;
#X obj 187 113 - 1;
#X obj 130 57 inlet;
#X obj 130 233 outlet;
#X obj 158 173 outlet;
#X obj 130 210 list trim;
#X obj 158 154 s2l;
#X connect 0 0 2 0;
#X connect 0 1 1 0;
#X connect 1 0 3 0;
#X connect 2 0 7 0;
#X connect 2 1 8 0;
#X connect 3 0 2 1;
#X connect 4 0 0 0;
#X connect 7 0 5 0;
#X connect 8 0 6 0;
#X restore 92 293 pd split past now;
#N canvas 306 281 562 451 element2list 0;
#X obj 103 125 s2l;
#X msg 118 106 symbol;
#X obj 118 87 loadbang;
#X obj 103 166 list split 2;
#X obj 103 185 t b a;
#X obj 130 260 l2s;
#X obj 145 222 loadbang;
#X msg 145 241 symbol;
#X obj 144 202 list;
#X obj 304 329 list;
#X obj 84 352 list;
#X obj 84 33 t b a b;
#X obj 280 297 list prepend;
#X obj 84 11 inlet;
#X obj 84 387 outlet;
#X text 162 30 Convert a wrapped element of the knowledge database
into its elements.;
#X text 190 101 expand the elements (insert spaces inbetween letters)
;
#X text 194 164 make groups of two letters (each two letters are a
pattern);
#X text 209 225 pack them up again;
#X text 124 356 ouput a list with all the pairs;
#X connect 0 0 3 0;
#X connect 1 0 0 1;
#X connect 2 0 1 0;
#X connect 3 0 4 0;
#X connect 3 1 8 1;
#X connect 4 0 8 0;
#X connect 4 1 5 0;
#X connect 5 0 12 0;
#X connect 6 0 7 0;
#X connect 7 0 5 1;
#X connect 8 0 3 0;
#X connect 9 0 12 1;
#X connect 10 0 14 0;
#X connect 11 0 10 0;
#X connect 11 1 0 0;
#X connect 11 2 12 1;
#X connect 11 2 10 1;
#X connect 12 0 9 0;
#X connect 12 0 10 1;
#X connect 13 0 11 0;
#X restore 92 226 pd element2list;
#X text 196 209 this is an element of the "index" step. It defines
the now element at the index and the past which length is the markov
order.;
#X obj 92 67 inlet bang;
#X msg 92 87 0;
#X obj 92 331 outlet;
#X text 133 331 outlet the past that generates a starting element;
#X text 206 293 extract the possible pasts;
#X connect 1 0 3 0;
#X connect 1 1 2 0;
#X connect 2 0 4 1;
#X connect 3 0 4 0;
#X connect 4 0 6 0;
#X connect 5 0 10 0;
#X connect 6 0 5 0;
#X connect 8 0 9 0;
#X connect 9 0 1 0;
#X restore 409 174 pd first past;
#X obj 191 139 t f f b f;
#N canvas 141 148 1118 389 transformations 0;
#X obj 57 162 inlet;
#X obj 541 352 outlet;
#X obj 116 161 r \$0-commonness;
#N canvas 772 263 475 491 commonness 0;
#N canvas 715 412 389 266 normalize 0;
#X obj 167 49 inlet;
#X obj 167 70 t b a a;
#X obj 209 102 sum;
#N canvas 850 273 450 300 drip 0;
#X obj 30 20 inlet;
#X obj 39 76 list split 1;
#X obj 79 124 list;
#X obj 40 98 t b f;
#X obj 52 201 outlet;
#X connect 0 0 1 0;
#X connect 1 0 3 0;
#X connect 1 1 2 1;
#X connect 2 0 1 0;
#X connect 3 0 2 0;
#X connect 3 1 4 0;
#X restore 186 120 pd drip;
#X obj 186 145 /;
#N canvas 760 464 450 300 makelist 0;
#X obj 46 162 outlet;
#X obj 158 144 list;
#X obj 47 139 list;
#X obj 48 38 t b b;
#X obj 101 36 inlet;
#X obj 54 13 inlet;
#X obj 68 115 list prepend;
#X connect 1 0 6 1;
#X connect 2 0 0 0;
#X connect 3 0 1 1;
#X connect 3 0 6 1;
#X connect 3 1 2 0;
#X connect 4 0 6 0;
#X connect 5 0 3 0;
#X connect 6 0 1 0;
#X connect 6 0 2 1;
#X restore 123 187 pd makelist;
#X obj 124 212 outlet;
#X connect 0 0 1 0;
#X connect 1 0 5 0;
#X connect 1 1 3 0;
#X connect 1 2 2 0;
#X connect 2 0 4 1;
#X connect 3 0 4 0;
#X connect 4 0 5 1;
#X connect 5 0 6 0;
#X restore 128 408 pd normalize;
#N canvas 844 269 450 300 drip 0;
#X obj 30 20 inlet;
#X obj 46 49 list split 1;
#X obj 90 143 list;
#X obj 40 98 t b f;
#X obj 52 201 outlet;
#X connect 0 0 1 0;
#X connect 1 0 3 0;
#X connect 1 1 2 1;
#X connect 2 0 1 0;
#X connect 3 0 2 0;
#X connect 3 1 4 0;
#X restore 191 293 pd drip;
#N canvas 758 469 450 300 makelist 0;
#X obj 46 162 outlet;
#X obj 158 144 list;
#X obj 47 139 list;
#X obj 48 38 t b b;
#X obj 101 36 inlet;
#X obj 54 13 inlet;
#X obj 68 115 list prepend;
#X connect 1 0 6 1;
#X connect 2 0 0 0;
#X connect 3 0 1 1;
#X connect 3 0 6 1;
#X connect 3 1 2 0;
#X connect 4 0 6 0;
#X connect 5 0 3 0;
#X connect 6 0 1 0;
#X connect 6 0 2 1;
#X restore 128 387 pd makelist;
#X obj 264 208 t b f;
#X obj 134 244 list;
#X obj 128 108 t a a;
#X obj 246 153 * 10;
#X obj 191 344 expr pow($f1 \, $f2);
#X obj 128 79 inlet lista;
#X obj 246 35 inlet commonnness value;
#X obj 128 432 outlet;
#X obj 285 153 * 45;
#X obj 246 134 * -1;
#X obj 246 96 abs;
#X obj 285 134 pow 3;
#X obj 246 115 pow 3;
#X obj 296 292 f;
#X obj 128 267 t b a b;
#X obj 191 365 clip 0 100;
#X obj 246 76 moses 0;
#X obj 245 56 + 0.01;
#X connect 0 0 10 0;
#X connect 1 0 7 0;
#X connect 2 0 0 0;
#X connect 3 0 4 0;
#X connect 3 1 16 0;
#X connect 4 0 17 0;
#X connect 5 0 17 0;
#X connect 5 1 4 1;
#X connect 6 0 3 0;
#X connect 7 0 18 0;
#X connect 8 0 5 0;
#X connect 9 0 20 0;
#X connect 11 0 3 0;
#X connect 12 0 6 0;
#X connect 13 0 15 0;
#X connect 14 0 11 0;
#X connect 15 0 12 0;
#X connect 16 0 7 1;
#X connect 17 0 2 0;
#X connect 17 1 1 0;
#X connect 17 2 16 0;
#X connect 18 0 2 1;
#X connect 19 0 13 0;
#X connect 19 1 14 0;
#X connect 20 0 19 0;
#X restore 39 334 pd commonness b;
#X obj 116 180 t b f;
#X text 153 179 first update the commonness value and then generate
the new pattern.;
#N canvas 661 337 450 420 density 0;
#X obj 48 17 inlet;
#X obj 318 40 inlet;
#X text 44 2 list;
#X text 310 23 density value;
#X obj 148 302 outlet;
#X text 151 320 density value;
#X obj 174 55 list split 1;
#N canvas 715 412 389 266 normalize 0;
#X obj 167 49 inlet;
#X obj 167 70 t b a a;
#X obj 209 102 sum;
#N canvas 850 273 450 300 drip 0;
#X obj 30 20 inlet;
#X obj 39 76 list split 1;
#X obj 79 124 list;
#X obj 40 98 t b f;
#X obj 52 201 outlet;
#X connect 0 0 1 0;
#X connect 1 0 3 0;
#X connect 1 1 2 1;
#X connect 2 0 1 0;
#X connect 3 0 2 0;
#X connect 3 1 4 0;
#X restore 186 120 pd drip;
#X obj 186 145 /;
#N canvas 760 464 450 300 makelist 0;
#X obj 46 162 outlet;
#X obj 158 144 list;
#X obj 47 139 list;
#X obj 48 38 t b b;
#X obj 101 36 inlet;
#X obj 54 13 inlet;
#X obj 68 115 list prepend;
#X connect 1 0 6 1;
#X connect 2 0 0 0;
#X connect 3 0 1 1;
#X connect 3 0 6 1;
#X connect 3 1 2 0;
#X connect 4 0 6 0;
#X connect 5 0 3 0;
#X connect 6 0 1 0;
#X connect 6 0 2 1;
#X restore 123 187 pd makelist;
#X obj 124 212 outlet;
#X connect 0 0 1 0;
#X connect 1 0 5 0;
#X connect 1 1 3 0;
#X connect 1 2 2 0;
#X connect 2 0 4 1;
#X connect 3 0 4 0;
#X connect 4 0 5 1;
#X connect 5 0 6 0;
#X restore 148 256 pd normalize;
#N canvas 844 269 450 300 drip 0;
#X obj 30 20 inlet;
#X obj 46 49 list split 1;
#X obj 90 143 list;
#X obj 40 98 t b f;
#X obj 52 201 outlet;
#X connect 0 0 1 0;
#X connect 1 0 3 0;
#X connect 1 1 2 1;
#X connect 2 0 1 0;
#X connect 3 0 2 0;
#X connect 3 1 4 0;
#X restore 251 82 pd drip;
#N canvas 756 474 450 300 makelist 0;
#X obj 46 162 outlet;
#X obj 158 144 list;
#X obj 47 139 list;
#X obj 48 38 t b b;
#X obj 101 36 inlet;
#X obj 54 13 inlet;
#X obj 68 115 list prepend;
#X connect 1 0 6 1;
#X connect 2 0 0 0;
#X connect 3 0 1 1;
#X connect 3 0 6 1;
#X connect 3 1 2 0;
#X connect 4 0 6 0;
#X connect 5 0 3 0;
#X connect 6 0 1 0;
#X connect 6 0 2 1;
#X restore 194 161 pd makelist;
#X obj 251 118 *;
#X obj 148 232 list append;
#X obj 122 34 t b b a;
#X obj 148 160 f;
#X obj 163 132 *;
#X obj 313 133 abs;
#X obj 313 113 - 1;
#X obj 313 85 f;
#X connect 0 0 12 0;
#X connect 1 0 17 0;
#X connect 6 0 14 0;
#X connect 6 1 8 0;
#X connect 7 0 4 0;
#X connect 8 0 10 0;
#X connect 9 0 11 1;
#X connect 10 0 9 1;
#X connect 11 0 7 0;
#X connect 12 0 13 0;
#X connect 12 1 9 0;
#X connect 12 2 6 0;
#X connect 13 0 11 0;
#X connect 14 0 13 1;
#X connect 15 0 14 1;
#X connect 16 0 15 0;
#X connect 17 0 16 0;
#X connect 17 0 10 1;
#X restore 773 313 pd density a;
#X obj 574 108 r \$0-density;
#X obj 598 143 t b f;
#X obj 25 200 s \$0-apply-transform;
#X obj 506 163 s \$0-apply-transform;
#X text 637 146 first update the density value and then generate the
new pattern;
#N canvas 375 423 450 294 density 0;
#X obj 93 193 abstractions/sigmoid;
#N canvas 657 309 450 420 density 0;
#X obj 48 17 inlet;
#X obj 313 40 inlet;
#X text 44 2 list;
#X text 305 23 density value;
#X obj 146 302 outlet;
#X text 149 320 density value;
#X obj 161 56 list split 1;
#N canvas 715 412 389 266 normalize 0;
#X obj 167 49 inlet;
#X obj 167 70 t b a a;
#X obj 209 102 sum;
#N canvas 850 273 450 300 drip 0;
#X obj 30 20 inlet;
#X obj 39 76 list split 1;
#X obj 79 124 list;
#X obj 40 98 t b f;
#X obj 52 201 outlet;
#X connect 0 0 1 0;
#X connect 1 0 3 0;
#X connect 1 1 2 1;
#X connect 2 0 1 0;
#X connect 3 0 2 0;
#X connect 3 1 4 0;
#X restore 186 120 pd drip;
#X obj 186 145 /;
#N canvas 760 464 450 300 makelist 0;
#X obj 46 162 outlet;
#X obj 158 144 list;
#X obj 47 139 list;
#X obj 48 38 t b b;
#X obj 101 36 inlet;
#X obj 54 13 inlet;
#X obj 68 115 list prepend;
#X connect 1 0 6 1;
#X connect 2 0 0 0;
#X connect 3 0 1 1;
#X connect 3 0 6 1;
#X connect 3 1 2 0;
#X connect 4 0 6 0;
#X connect 5 0 3 0;
#X connect 6 0 1 0;
#X connect 6 0 2 1;
#X restore 123 187 pd makelist;
#X obj 124 212 outlet;
#X connect 0 0 1 0;
#X connect 1 0 5 0;
#X connect 1 1 3 0;
#X connect 1 2 2 0;
#X connect 2 0 4 1;
#X connect 3 0 4 0;
#X connect 4 0 5 1;
#X connect 5 0 6 0;
#X restore 146 256 pd normalize;
#N canvas 844 269 450 300 drip 0;
#X obj 30 20 inlet;
#X obj 46 49 list split 1;
#X obj 90 143 list;
#X obj 40 98 t b f;
#X obj 52 201 outlet;
#X connect 0 0 1 0;
#X connect 1 0 3 0;
#X connect 1 1 2 1;
#X connect 2 0 1 0;
#X connect 3 0 2 0;
#X connect 3 1 4 0;
#X restore 255 82 pd drip;
#N canvas 756 474 450 300 makelist 0;
#X obj 46 162 outlet;
#X obj 158 144 list;
#X obj 47 139 list;
#X obj 48 38 t b b;
#X obj 101 36 inlet;
#X obj 54 13 inlet;
#X obj 68 115 list prepend;
#X connect 1 0 6 1;
#X connect 2 0 0 0;
#X connect 3 0 1 1;
#X connect 3 0 6 1;
#X connect 3 1 2 0;
#X connect 4 0 6 0;
#X connect 5 0 3 0;
#X connect 6 0 1 0;
#X connect 6 0 2 1;
#X restore 192 161 pd makelist;
#X obj 255 118 *;
#X obj 146 232 list append;
#X obj 122 34 t b b a;
#X obj 146 160 f;
#X obj 161 132 *;
#X obj 313 133 abs;
#X obj 313 113 - 1;
#X obj 313 85 f;
#X connect 0 0 12 0;
#X connect 1 0 17 0;
#X connect 6 0 14 0;
#X connect 6 1 8 0;
#X connect 7 0 4 0;
#X connect 8 0 10 0;
#X connect 9 0 11 1;
#X connect 10 0 9 1;
#X connect 11 0 7 0;
#X connect 12 0 13 0;
#X connect 12 1 9 0;
#X connect 12 2 6 0;
#X connect 13 0 11 0;
#X connect 14 0 13 1;
#X connect 15 0 14 1;
#X connect 16 0 15 0;
#X connect 17 0 16 0;
#X connect 17 0 10 1;
#X restore 93 212 pd density a;
#X obj 93 154 - 0.5;
#X obj 93 173 * 2;
#X obj 93 235 outlet;
#X obj 93 71 inlet probs;
#X obj 93 135 f;
#X obj 93 92 t b a;
#X obj 280 94 t f f;
#X obj 280 75 inlet density value;
#X connect 0 0 1 0;
#X connect 1 0 4 0;
#X connect 2 0 3 0;
#X connect 3 0 0 0;
#X connect 5 0 7 0;
#X connect 6 0 2 0;
#X connect 7 0 6 0;
#X connect 7 1 0 1;
#X connect 8 0 6 1;
#X connect 8 1 1 1;
#X connect 9 0 8 0;
#X restore 851 313 pd density b;
#N canvas 314 173 450 493 syncopation 0;
#X obj 72 238 until;
#X msg 72 218 32;
#X obj 72 198 t b b;
#X obj 72 259 f;
#X obj 96 259 + 1;
#X msg 110 238 0;
#X obj 72 181 bng 15 250 50 0 empty empty empty 17 7 0 10 -262144 -1
-1;
#N canvas 0 22 450 300 (subpatch) 0;
#X array \$0-syncd-a 32 float 2;
#X coords 0 1 32 0 200 50 1 0 0;
#X restore 232 361 graph;
#X obj 72 278 t f f;
#X obj 72 297 % 2;
#X obj 199 156 t b f;
#X obj 72 336 f;
#X obj 115 338 f;
#X obj 277 274 - 1;
#X obj 276 293 abs;
#X obj 226 204 moses 0.5;
#X obj 226 255 * 2;
#X obj 276 316 * 2;
#X msg 230 290 1;
#X msg 238 312 1;
#X obj 72 316 sel 1 0;
#X obj 199 136 inlet syncopation value;
#X obj 95 361 tabwrite \$0-syncd-a;
#X connect 0 0 3 0;
#X connect 1 0 0 0;
#X connect 2 0 1 0;
#X connect 2 1 5 0;
#X connect 3 0 4 0;
#X connect 3 0 8 0;
#X connect 4 0 3 1;
#X connect 5 0 3 1;
#X connect 6 0 2 0;
#X connect 8 0 9 0;
#X connect 8 1 22 1;
#X connect 9 0 20 0;
#X connect 10 0 6 0;
#X connect 10 1 15 0;
#X connect 11 0 22 0;
#X connect 12 0 22 0;
#X connect 13 0 14 0;
#X connect 14 0 17 0;
#X connect 15 0 16 0;
#X connect 15 1 13 0;
#X connect 16 0 11 1;
#X connect 16 0 18 0;
#X connect 17 0 12 1;
#X connect 17 0 19 0;
#X connect 18 0 12 1;
#X connect 19 0 11 1;
#X connect 20 0 11 0;
#X connect 20 1 12 0;
#X connect 21 0 10 0;
#X restore 628 67 pd syncopation a;
#X obj 604 11 r \$0-syncopation;
#X text 703 38 syncopation is written in a table called \$0-syncd which
should be multiplied step by step with the density;
#X obj 610 229 inlet step;
#X text 705 210 multiply the density value on the syncoipation table
with the density that comes from the slider;
#X obj 611 270 *;
#X obj 601 48 t b f;
#X obj 601 86 s \$0-apply-transform;
#X obj 610 248 tabread \$0-syncd-a;
#N canvas 715 412 389 266 normalize 0;
#X obj 167 49 inlet;
#X obj 167 70 t b a a;
#X obj 209 102 sum;
#N canvas 850 273 450 300 drip 0;
#X obj 30 20 inlet;
#X obj 39 76 list split 1;
#X obj 79 124 list;
#X obj 40 98 t b f;
#X obj 52 201 outlet;
#X connect 0 0 1 0;
#X connect 1 0 3 0;
#X connect 1 1 2 1;
#X connect 2 0 1 0;
#X connect 3 0 2 0;
#X connect 3 1 4 0;
#X restore 186 120 pd drip;
#X obj 186 145 /;
#N canvas 760 464 450 300 makelist 0;
#X obj 46 162 outlet;
#X obj 158 144 list;
#X obj 47 139 list;
#X obj 48 38 t b b;
#X obj 101 36 inlet;
#X obj 54 13 inlet;
#X obj 68 115 list prepend;
#X connect 1 0 6 1;
#X connect 2 0 0 0;
#X connect 3 0 1 1;
#X connect 3 0 6 1;
#X connect 3 1 2 0;
#X connect 4 0 6 0;
#X connect 5 0 3 0;
#X connect 6 0 1 0;
#X connect 6 0 2 1;
#X restore 123 187 pd makelist;
#X obj 124 212 outlet;
#X connect 0 0 1 0;
#X connect 1 0 5 0;
#X connect 1 1 3 0;
#X connect 1 2 2 0;
#X connect 2 0 4 1;
#X connect 3 0 4 0;
#X connect 4 0 5 1;
#X connect 5 0 6 0;
#X restore 541 330 pd normalize;
#N canvas 25 179 772 589 density 0;
#X obj 397 153 t b a b;
#X obj 375 360 pow;
#X obj 272 310 - 1;
#X obj 272 330 abs;
#X obj 453 401 list;
#X obj 354 423 list;
#X obj 375 401 list prepend;
#X obj 166 113 list split 1;
#X msg 479 288 1;
#X obj 479 231 sel 0 4 10;
#X obj 416 329 *;
#X msg 535 288 1;
#X text 562 289 change this value progressively;
#X obj 166 482 list;
#X obj 139 85 t b a;
#X obj 139 505 list;
#X obj 139 525 outlet;
#X obj 139 66 inlet lista;
#N canvas 631 285 450 300 listdrip 0;
#X obj 260 227 outlet f;
#X obj 91 76 list split 1;
#X obj 60 191 list;
#X obj 77 155 t b f b;
#X obj 144 117 f;
#X obj 170 117 + 1;
#X msg 190 68 0;
#X obj 80 30 inlet list;
#X obj 80 51 t a b;
#X obj 89 229 outlet element;
#X connect 1 0 3 0;
#X connect 1 1 2 1;
#X connect 2 0 1 0;
#X connect 3 0 2 0;
#X connect 3 1 9 0;
#X connect 3 2 4 0;
#X connect 4 0 5 0;
#X connect 4 0 0 0;
#X connect 5 0 4 1;
#X connect 6 0 4 1;
#X connect 7 0 8 0;
#X connect 8 0 1 0;
#X connect 8 1 6 0;
#X restore 416 179 pd listdrip;
#N canvas 583 401 450 300 dens2silence 0;
#X obj 310 23 inlet density;
#X obj 84 16 inlet probabilty of silence;
#X obj 156 250 outlet new silence probability;
#X obj 135 152 - 1;
#X obj 135 171 abs;
#X obj 120 220 +;
#X obj 120 197 *;
#X obj 61 153 * -1;
#X obj 61 131 moses 0;
#X obj 171 200 +;
#X obj 162 175 *;
#X obj 133 130 t f f f f;
#X obj 102 157 * -1;
#X obj 61 75 f;
#X obj 84 45 t b f;
#X connect 0 0 13 1;
#X connect 1 0 14 0;
#X connect 3 0 4 0;
#X connect 4 0 6 1;
#X connect 5 0 2 0;
#X connect 6 0 5 0;
#X connect 7 0 6 0;
#X connect 8 0 7 0;
#X connect 8 1 12 0;
#X connect 9 0 2 0;
#X connect 10 0 9 0;
#X connect 11 0 3 0;
#X connect 11 1 5 1;
#X connect 11 2 10 1;
#X connect 11 3 9 1;
#X connect 12 0 10 0;
#X connect 13 0 8 0;
#X connect 14 0 13 0;
#X connect 14 1 11 0;
#X restore 166 330 pd dens2silence;
#X obj 253 192 t f f f;
#X obj 479 312 +;
#X obj 507 312 +;
#X obj 535 312 +;
#X obj 293 227 moses 0;
#X obj 293 283 * 1;
#X obj 317 284 * 3;
#X obj 352 285 * 6;
#X obj 253 83 inlet valor de density;
#X obj 253 104 moses 0;
#X obj 253 123 abs;
#X obj 253 162 * -1;
#X obj 253 142 pow 3;
#X obj 306 151 * 0.25;
#X msg 507 288 1;
#X obj 552 251 clip 0 0.3;
#X obj 623 248 clip 0 0.6;
#X obj 686 233 clip 0 1;
#X obj 552 271 * 1;
#X obj 623 269 * 10;
#X obj 687 265 * 50;
#X connect 0 0 5 0;
#X connect 0 1 18 0;
#X connect 0 2 6 1;
#X connect 1 0 6 0;
#X connect 2 0 3 0;
#X connect 3 0 1 1;
#X connect 4 0 6 1;
#X connect 5 0 13 1;
#X connect 6 0 4 0;
#X connect 6 0 5 1;
#X connect 7 0 19 0;
#X connect 7 1 0 0;
#X connect 8 0 21 0;
#X connect 9 0 8 0;
#X connect 9 1 34 0;
#X connect 9 2 11 0;
#X connect 10 0 1 0;
#X connect 11 0 23 0;
#X connect 13 0 15 1;
#X connect 14 0 15 0;
#X connect 14 1 7 0;
#X connect 15 0 16 0;
#X connect 17 0 14 0;
#X connect 18 0 10 0;
#X connect 18 1 9 0;
#X connect 19 0 13 0;
#X connect 20 0 19 1;
#X connect 20 1 2 0;
#X connect 20 2 24 0;
#X connect 21 0 10 1;
#X connect 22 0 10 1;
#X connect 23 0 10 1;
#X connect 24 0 25 0;
#X connect 24 0 26 0;
#X connect 24 0 27 0;
#X connect 24 1 35 0;
#X connect 24 1 36 0;
#X connect 24 1 37 0;
#X connect 25 0 21 1;
#X connect 26 0 22 1;
#X connect 27 0 23 1;
#X connect 28 0 29 0;
#X connect 29 0 30 0;
#X connect 29 1 33 0;
#X connect 30 0 32 0;
#X connect 31 0 20 0;
#X connect 32 0 31 0;
#X connect 33 0 20 0;
#X connect 34 0 22 0;
#X connect 35 0 38 0;
#X connect 36 0 39 0;
#X connect 37 0 40 0;
#X connect 38 0 21 1;
#X connect 39 0 22 1;
#X connect 40 0 23 1;
#X restore 539 294 pd density c;
#N canvas 294 277 475 491 commonness 0;
#N canvas 715 412 389 266 normalize 0;
#X obj 167 49 inlet;
#X obj 167 70 t b a a;
#X obj 209 102 sum;
#N canvas 850 273 450 300 drip 0;
#X obj 30 20 inlet;
#X obj 39 76 list split 1;
#X obj 79 124 list;
#X obj 40 98 t b f;
#X obj 52 201 outlet;
#X connect 0 0 1 0;
#X connect 1 0 3 0;
#X connect 1 1 2 1;
#X connect 2 0 1 0;
#X connect 3 0 2 0;
#X connect 3 1 4 0;
#X restore 186 120 pd drip;
#X obj 186 145 /;
#N canvas 760 464 450 300 makelist 0;
#X obj 46 162 outlet;
#X obj 158 144 list;
#X obj 47 139 list;
#X obj 48 38 t b b;
#X obj 101 36 inlet;
#X obj 54 13 inlet;
#X obj 68 115 list prepend;
#X connect 1 0 6 1;
#X connect 2 0 0 0;
#X connect 3 0 1 1;
#X connect 3 0 6 1;
#X connect 3 1 2 0;
#X connect 4 0 6 0;
#X connect 5 0 3 0;
#X connect 6 0 1 0;
#X connect 6 0 2 1;
#X restore 123 187 pd makelist;
#X obj 124 212 outlet;
#X connect 0 0 1 0;
#X connect 1 0 5 0;
#X connect 1 1 3 0;
#X connect 1 2 2 0;
#X connect 2 0 4 1;
#X connect 3 0 4 0;
#X connect 4 0 5 1;
#X connect 5 0 6 0;
#X restore 128 408 pd normalize;
#N canvas 844 269 450 300 drip 0;
#X obj 30 20 inlet;
#X obj 46 49 list split 1;
#X obj 90 143 list;
#X obj 40 98 t b f;
#X obj 52 201 outlet;
#X connect 0 0 1 0;
#X connect 1 0 3 0;
#X connect 1 1 2 1;
#X connect 2 0 1 0;
#X connect 3 0 2 0;
#X connect 3 1 4 0;
#X restore 182 295 pd drip;
#N canvas 758 469 450 300 makelist 0;
#X obj 46 162 outlet;
#X obj 158 144 list;
#X obj 47 139 list;
#X obj 48 38 t b b;
#X obj 101 36 inlet;
#X obj 54 13 inlet;
#X obj 68 115 list prepend;
#X connect 1 0 6 1;
#X connect 2 0 0 0;
#X connect 3 0 1 1;
#X connect 3 0 6 1;
#X connect 3 1 2 0;
#X connect 4 0 6 0;
#X connect 5 0 3 0;
#X connect 6 0 1 0;
#X connect 6 0 2 1;
#X restore 128 387 pd makelist;
#X obj 264 208 t b f;
#X obj 134 244 list;
#X obj 228 373 expr pow($f1 \, $f2);
#X obj 130 12 inlet lista;
#X obj 246 35 inlet commonnness value;
#X obj 128 432 outlet;
#X obj 296 292 f;
#X obj 128 267 t b a b;
#X obj 252 66 moses 0;
#X obj 170 143 minmax;
#X obj 185 315 / 1;
#X obj 128 108 t a a a;
#X obj 299 186 + 1;
#X obj 299 163 * 45;
#X obj 297 142 pow 3;
#X obj 252 113 + 1;
#X msg 410 296 0;
#X obj 291 90 t f f;
#X obj 252 88 t f f;
#X obj 230 353 expr if($f1<$f2 && $f1!=0 \, $f2 \, $f1);
#X msg 358 306 0.01;
#X obj 166 69 nbx 5 14 -1e+37 1e+37 0 0 empty empty empty 0 -8 0 10
-262144 -1 -1 0 256;
#X obj 187 335 sel 0;
#X msg 189 359 0;
#X obj 255 164 pow 3;
#X connect 0 0 8 0;
#X connect 1 0 13 0;
#X connect 2 0 0 0;
#X connect 3 0 4 0;
#X connect 3 1 9 0;
#X connect 4 0 10 0;
#X connect 5 0 2 1;
#X connect 6 0 14 0;
#X connect 7 0 11 0;
#X connect 9 0 5 1;
#X connect 10 0 2 0;
#X connect 10 1 1 0;
#X connect 10 2 9 0;
#X connect 11 0 21 0;
#X connect 11 1 20 0;
#X connect 12 1 13 1;
#X connect 13 0 25 0;
#X connect 14 0 10 0;
#X connect 14 1 4 1;
#X connect 14 2 12 0;
#X connect 15 0 3 0;
#X connect 16 0 15 0;
#X connect 17 0 16 0;
#X connect 18 0 27 0;
#X connect 19 0 22 1;
#X connect 20 0 17 0;
#X connect 20 1 19 0;
#X connect 21 0 18 0;
#X connect 21 1 23 0;
#X connect 22 0 5 0;
#X connect 23 0 22 1;
#X connect 24 0 11 0;
#X connect 25 0 26 0;
#X connect 25 1 22 0;
#X connect 26 0 2 1;
#X connect 27 0 3 0;
#X restore 57 227 pd commonness c;
#X connect 0 0 24 0;
#X connect 2 0 4 0;
#X connect 4 0 9 0;
#X connect 4 1 24 1;
#X connect 8 0 10 0;
#X connect 8 1 18 1;
#X connect 16 0 21 0;
#X connect 18 0 23 1;
#X connect 19 0 20 0;
#X connect 19 1 13 0;
#X connect 21 0 18 0;
#X connect 22 0 1 0;
#X connect 24 0 22 0;
#X restore 225 346 pd transformations;
#N canvas 873 414 450 300 iterate32 0;
#X obj 58 18 inlet bang;
#X obj 57 155 outlet float;
#X obj -42 76 until;
#X msg -42 57 32;
#X obj -42 95 f;
#X obj -18 95 + 1;
#X msg 2 69 0;
#X obj -42 38 t b b;
#X obj 178 84 moses 0;
#X obj 147 65 + 1;
#X obj 240 22 bng 15 250 50 0 empty empty empty 17 7 0 10 -262144 -1
-1;
#X obj 135 88 f;
#X msg 237 64 32;
#X msg 182 57 0;
#X obj 169 39 t b b;
#X obj 190 113 t b;
#X obj 190 138 del 2;
#X connect 0 0 7 0;
#X connect 2 0 4 0;
#X connect 3 0 2 0;
#X connect 4 0 5 0;
#X connect 4 0 1 0;
#X connect 5 0 4 1;
#X connect 6 0 4 1;
#X connect 7 0 3 0;
#X connect 7 1 6 0;
#X connect 8 0 9 0;
#X connect 8 0 1 0;
#X connect 8 0 15 0;
#X connect 9 0 11 1;
#X connect 10 0 14 0;
#X connect 11 0 8 0;
#X connect 12 0 8 1;
#X connect 13 0 8 0;
#X connect 14 0 13 0;
#X connect 14 1 12 0;
#X connect 15 0 16 0;
#X connect 16 0 11 0;
#X restore 390 78 pd iterate32;
#X obj 201 480 f2w2;
#X obj 390 37 t b b;
#X msg 341 20 bang;
#X msg 309 169 0;
#X msg 504 107 0;
#X text 229 478 convert float to word;
#X text 511 552 Feedback the past to;
#X text 512 561 generate new elements;
#X obj 249 235 print;
#X obj 361 617 t l l;
#X obj 656 641 sel 31;
#X obj 418 641 unpack 0 s;
#X obj 640 671 outlet end;
#X connect 0 0 2 0;
#X connect 1 0 9 0;
#X connect 2 0 1 0;
#X connect 3 0 8 0;
#X connect 4 0 11 0;
#X connect 5 0 9 1;
#X connect 5 1 4 1;
#X connect 6 0 16 0;
#X connect 7 0 18 0;
#X connect 7 0 10 0;
#X connect 7 1 8 1;
#X connect 8 0 35 0;
#X connect 9 0 6 1;
#X connect 11 0 12 0;
#X connect 11 1 30 0;
#X connect 12 0 14 0;
#X connect 14 0 5 0;
#X connect 16 0 33 0;
#X connect 18 0 8 1;
#X connect 19 0 20 0;
#X connect 20 0 21 0;
#X connect 21 0 44 0;
#X connect 23 0 31 0;
#X connect 26 0 36 0;
#X connect 27 0 34 0;
#X connect 28 0 32 0;
#X connect 28 1 23 0;
#X connect 28 2 29 0;
#X connect 29 0 33 1;
#X connect 30 0 12 1;
#X connect 30 1 21 1;
#X connect 31 0 5 0;
#X connect 32 0 19 0;
#X connect 32 1 3 0;
#X connect 32 2 6 0;
#X connect 32 3 0 0;
#X connect 33 0 7 0;
#X connect 34 0 28 0;
#X connect 35 0 4 0;
#X connect 36 0 34 0;
#X connect 36 1 15 0;
#X connect 37 0 36 0;
#X connect 38 0 0 0;
#X connect 39 0 28 0;
#X connect 44 0 46 0;
#X connect 44 1 13 0;
#X connect 45 0 47 0;
#X connect 46 0 45 0;
#X restore 26 398 pd search next now;
#X obj 78 441 print ZFS;
#X obj 78 420 bng 15 250 50 0 nos nor empty 17 7 0 10 -262144 -1 -1
;
#X obj 301 101 cnv 15 258 328 empty \$0-style select a style 14 20
1 48 -128992 -262144 0;
#N canvas 518 91 643 300 pace 0;
#X obj 111 -127 f;
#X obj 155 -126 + 1;
#X obj 111 -180 t f f;
#X obj 171 -163 sel 1;
#X msg 171 -144 0;
#X obj 111 -160 metro 100;
#X obj 234 -231 bpm;
#X obj 33 -42 s numberz16;
#X obj 33 -60 % 16;
#X obj 111 -263 r start-drumz;
#X obj 234 -251 r bpm;
#X obj 111 -103 t f f;
#X obj 316 -140 t b f;
#X obj 234 -195 + 0;
#X obj 397 -178 t f f;
#X obj 423 -144 * -1;
#X obj 316 -227 % 8;
#X obj 316 -200 moses 4;
#X obj 361 -180 - 4;
#X obj 316 -168 *;
#X obj 361 -161 *;
#X obj 111 -77 % 32;
#X obj 111 -25 outlet;
#X obj 397 -201 inlet;
#X obj 154 -25 s numberz32;
#X obj 111 -58 t f f;
#X connect 0 0 1 0;
#X connect 0 0 11 0;
#X connect 1 0 0 1;
#X connect 2 0 5 0;
#X connect 2 1 3 0;
#X connect 3 0 4 0;
#X connect 4 0 0 1;
#X connect 5 0 0 0;
#X connect 6 0 13 0;
#X connect 8 0 7 0;
#X connect 9 0 2 0;
#X connect 10 0 6 0;
#X connect 11 0 8 0;
#X connect 11 0 21 0;
#X connect 11 1 16 0;
#X connect 12 0 13 0;
#X connect 12 1 13 1;
#X connect 13 0 5 1;
#X connect 14 0 20 1;
#X connect 14 1 15 0;
#X connect 15 0 19 1;
#X connect 16 0 17 0;
#X connect 17 0 19 0;
#X connect 17 1 18 0;
#X connect 18 0 20 0;
#X connect 19 0 12 0;
#X connect 20 0 12 0;
#X connect 21 0 25 0;
#X connect 23 0 14 0;
#X connect 25 0 22 0;
#X connect 25 1 24 0;
#X restore 361 660 pd pace;
#X obj 361 159 cnv 15 90 20 empty empty motown 0 12 1 28 -128992 -228856
0;
#X obj 361 203 cnv 15 90 20 empty empty jamesBrown 0 12 1 28 -128992
-228856 0;
#X obj 361 244 cnv 15 90 20 empty empty clyde1 0 12 1 28 -128992 -228856
0;
#X obj 361 282 cnv 15 90 20 empty empty funkyfresh 0 12 1 28 -128992
-228856 0;
#N canvas 116 457 916 300 setup 0;
#X obj 72 176 f \$0;
#X obj 87 198 list;
#X obj 540 179 f \$0;
#X obj 562 204 list;
#X msg 562 227 \; \$1-style label \$2;
#X obj 540 157 t b a;
#X obj 541 132 l2s;
#X obj 72 154 t b a;
#X msg 86 217 \; \$1-style vis_size \$2 \$3;
#X obj 223 171 f \$0;
#X obj 238 193 list;
#X obj 223 149 t b a;
#X obj 378 167 f \$0;
#X obj 393 189 list;
#X obj 378 145 t b a;
#X msg 396 213 \; \$1-style label_font \$2 \$3;
#X msg 238 214 \; \$1-style label_pos \$2 \$3;
#X obj 168 94 loadbang;
#X msg 541 111 select a style;
#X obj 670 153 f \$0;
#X obj 692 178 list;
#X obj 670 131 t b a;
#X msg 692 201 \; \$1-style color \$2 \$3;
#X msg 72 135 258 328;
#X msg 223 130 14 20;
#X msg 378 126 1 48;
#X text 710 106 11 13;
#X msg 670 112 11 0;
#X connect 0 0 1 0;
#X connect 1 0 8 0;
#X connect 2 0 3 0;
#X connect 3 0 4 0;
#X connect 5 0 2 0;
#X connect 5 1 3 1;
#X connect 6 0 5 0;
#X connect 7 0 0 0;
#X connect 7 1 1 1;
#X connect 9 0 10 0;
#X connect 10 0 16 0;
#X connect 11 0 9 0;
#X connect 11 1 10 1;
#X connect 12 0 13 0;
#X connect 13 0 15 0;
#X connect 14 0 12 0;
#X connect 14 1 13 1;
#X connect 17 0 23 0;
#X connect 17 0 24 0;
#X connect 17 0 25 0;
#X connect 17 0 18 0;
#X connect 17 0 27 0;
#X connect 18 0 6 0;
#X connect 19 0 20 0;
#X connect 20 0 22 0;
#X connect 21 0 19 0;
#X connect 21 1 20 1;
#X connect 23 0 7 0;
#X connect 24 0 11 0;
#X connect 25 0 14 0;
#X connect 27 0 21 0;
#X restore 126 628 pd setup;
#N canvas 93 209 1043 549 patt2sound 0;
#X obj 89 167 tabplay~ k;
#X obj 89 134 sel 1;
#X obj 169 150 sel 1;
#X obj 169 170 tabplay~ s;
#X obj 253 150 sel 1;
#X obj 253 196 tabplay~ c;
#X obj 343 149 sel 1;
#X obj 343 192 tabplay~ o;
#X obj 169 190 *~ 0.8;
#X obj 253 216 *~ 0.7;
#X obj 343 212 *~ 0.5;
#X obj 343 169 t b b;
#X obj 253 170 t b b;
#X msg 416 190 0;
#X obj 343 330 throw~ drums;
#X obj 239 410 catch~ drums;
#X obj 245 520 dac~;
#X obj 344 306 *~;
#X obj 253 328 throw~ drums;
#X obj 254 306 *~;
#X obj 167 336 throw~ drums;
#X obj 168 306 *~;
#X obj 88 337 throw~ drums;
#X obj 89 306 *~;
#X obj 729 62 t b b b b;
#X obj 699 176 random 100;
#X obj 699 197 / 100;
#X obj 699 219 - 1;
#X obj 698 240 abs;
#X obj 768 176 random 100;
#X obj 768 197 / 100;
#X obj 768 219 - 1;
#X obj 767 240 abs;
#X obj 841 174 random 100;
#X obj 841 195 / 100;
#X obj 841 217 - 1;
#X obj 840 238 abs;
#X obj 910 174 random 100;
#X obj 910 195 / 100;
#X obj 910 217 - 1;
#X obj 909 238 abs;
#X obj 900 21 vsl 15 128 0 100 0 1 empty empty empty 0 -9 0 10 -262144
-1 -1 2600 1;
#X obj 228 489 freeverb~;
#X msg 401 450 dry 1;
#X obj 412 412 loadbang;
#X obj 236 452 *~ 0.7;
#X msg 501 450 damping 1;
#X obj 698 267 pack f 2;
#X obj 698 288 line~;
#X obj 767 267 pack f 2;
#X obj 767 289 line~;
#X obj 838 262 pack f 2;
#X obj 838 289 line~;
#X obj 907 262 pack f 2;
#X obj 907 289 line~;
#X text 675 12 randomize hit strength->;
#X obj 89 114 tabread kick;
#X obj 169 114 tabread snare;
#X obj 253 114 tabread chihat;
#X obj 343 114 tabread ohihat;
#X obj 293 15 inlet;
#X obj 9 171 s playk;
#X obj 10 192 s plays;
#X obj 14 217 s playch;
#X obj 14 244 s playoh;
#X obj 479 147 sel 1;
#X obj 479 328 throw~ drums;
#X obj 418 62 t f f f f f f f f;
#X obj 479 190 tabplay~ cp;
#X obj 479 112 tabread clap;
#X obj 559 147 sel 1;
#X obj 559 210 *~ 0.5;
#X obj 559 167 t b b;
#X obj 559 328 throw~ drums;
#X obj 559 112 tabread rimshot;
#X obj 559 190 tabplay~ rs;
#X msg 445 449 wet 0.01;
#X msg 314 454 roomsize 0.8;
#X obj 479 211 *~ 0.55;
#X msg 479 168 0 15000;
#X obj 154 412 r \$0-volume;
#X obj 170 452 *~;
#X obj 23 283 s playcp;
#X obj 24 310 s playrs;
#X msg 446 189 0.4;
#X connect 0 0 23 0;
#X connect 1 0 0 0;
#X connect 1 0 61 0;
#X connect 2 0 3 0;
#X connect 2 0 62 0;
#X connect 3 0 8 0;
#X connect 4 0 12 0;
#X connect 4 0 63 0;
#X connect 5 0 9 0;
#X connect 6 0 11 0;
#X connect 6 0 64 0;
#X connect 7 0 10 0;
#X connect 8 0 21 0;
#X connect 9 0 19 0;
#X connect 10 0 17 0;
#X connect 11 0 7 0;
#X connect 11 1 84 0;
#X connect 12 0 5 0;
#X connect 12 1 13 0;
#X connect 13 0 10 1;
#X connect 15 0 81 0;
#X connect 17 0 14 0;
#X connect 19 0 18 0;
#X connect 21 0 20 0;
#X connect 23 0 22 0;
#X connect 24 0 25 0;
#X connect 24 1 29 0;
#X connect 24 2 33 0;
#X connect 24 3 37 0;
#X connect 25 0 26 0;
#X connect 26 0 27 0;
#X connect 27 0 28 0;
#X connect 28 0 47 0;
#X connect 29 0 30 0;
#X connect 30 0 31 0;
#X connect 31 0 32 0;
#X connect 32 0 49 0;
#X connect 33 0 34 0;
#X connect 34 0 35 0;
#X connect 35 0 36 0;
#X connect 36 0 51 0;
#X connect 37 0 38 0;
#X connect 38 0 39 0;
#X connect 39 0 40 0;
#X connect 40 0 53 0;
#X connect 41 0 25 1;
#X connect 41 0 29 1;
#X connect 41 0 37 1;
#X connect 42 0 16 0;
#X connect 42 1 16 1;
#X connect 43 0 42 0;
#X connect 44 0 77 0;
#X connect 44 0 43 0;
#X connect 44 0 76 0;
#X connect 44 0 46 0;
#X connect 45 0 42 0;
#X connect 45 0 42 1;
#X connect 46 0 42 0;
#X connect 47 0 48 0;
#X connect 48 0 23 1;
#X connect 49 0 50 0;
#X connect 50 0 21 1;
#X connect 51 0 52 0;
#X connect 52 0 19 1;
#X connect 53 0 54 0;
#X connect 54 0 17 1;
#X connect 56 0 1 0;
#X connect 57 0 2 0;
#X connect 58 0 4 0;
#X connect 59 0 6 0;
#X connect 60 0 24 0;
#X connect 60 0 67 0;
#X connect 65 0 79 0;
#X connect 65 0 82 0;
#X connect 67 0 56 0;
#X connect 67 1 57 0;
#X connect 67 2 58 0;
#X connect 67 3 59 0;
#X connect 67 4 69 0;
#X connect 67 5 74 0;
#X connect 68 0 78 0;
#X connect 69 0 65 0;
#X connect 70 0 72 0;
#X connect 70 0 83 0;
#X connect 71 0 73 0;
#X connect 72 0 75 0;
#X connect 74 0 70 0;
#X connect 75 0 71 0;
#X connect 76 0 42 0;
#X connect 77 0 42 0;
#X connect 78 0 66 0;
#X connect 79 0 68 0;
#X connect 80 0 81 1;
#X connect 81 0 45 0;
#X connect 84 0 10 1;
#X restore 276 660 pd patt2sound;
#N canvas 562 557 450 157 mouseup 0;
#X obj 178 18 inlet;
#X msg 194 68 stop;
#X obj 185 134 outlet;
#X obj 185 115 f;
#X obj 178 39 t b b b f;
#X obj 178 90 delay 100;
#X connect 0 0 4 0;
#X connect 1 0 5 0;
#X connect 3 0 2 0;
#X connect 4 0 5 0;
#X connect 4 1 1 0;
#X connect 4 2 5 0;
#X connect 4 3 3 1;
#X connect 5 0 3 0;
#X restore 425 44 pd mouseup;
#X obj 425 63 s \$0-commonness;
#X obj 276 641 r numberz32;
#X obj 543 62 s \$0-density;
#N canvas 565 559 450 157 mouseup 0;
#X obj 178 18 inlet;
#X msg 194 68 stop;
#X obj 185 134 outlet;
#X obj 185 115 f;
#X obj 178 39 t b b b f;
#X obj 178 90 delay 300;
#X connect 0 0 4 0;
#X connect 1 0 5 0;
#X connect 3 0 2 0;
#X connect 4 0 5 0;
#X connect 4 1 1 0;
#X connect 4 2 5 0;
#X connect 4 3 3 1;
#X connect 5 0 3 0;
#X restore 543 43 pd mouseup;
#N canvas 565 559 450 157 mouseup 0;
#X obj 178 18 inlet;
#X msg 194 68 stop;
#X obj 185 134 outlet;
#X obj 185 115 f;
#X obj 178 39 t b b b f;
#X obj 178 90 delay 300;
#X connect 0 0 4 0;
#X connect 1 0 5 0;
#X connect 3 0 2 0;
#X connect 4 0 5 0;
#X connect 4 1 1 0;
#X connect 4 2 5 0;
#X connect 4 3 3 1;
#X connect 5 0 3 0;
#X restore 626 414 pd mouseup;
#X obj 626 433 s \$0-syncopation;
#X obj 114 232 tgl 40 0 start-drumz nor start 0 19 0 14 -262144 -1
-1 0 1;
#X obj 755 270 nbx 4 18 0 200 0 1 bpm tap-bpm BPM 0 -8 1 20 -262144
-1 -1 121.399 256;
#N canvas 343 219 785 500 tap 0;
#X obj 244 55 timer;
#X obj 323 113 list;
#X msg 313 90 bang;
#X obj 244 113 list prepend;
#X obj 244 134 list split 1;
#X obj 278 155 route bang;
#X obj 501 315 list length;
#X obj 352 265 list split 1;
#X obj 352 305 list;
#X obj 352 285 t b f;
#X obj 433 314 +;
#X obj 335 370 f;
#X obj 433 333 /;
#X obj 458 313 f;
#X msg 448 251 0;
#X obj 335 176 t b a a b;
#X obj 244 26 t b b b b;
#X msg 320 48 stop;
#X obj 335 391 t b f;
#X msg 333 415 60000;
#X obj 344 443 /;
#X obj 244 7 inlet bang;
#X obj 347 470 outlet bpm;
#X obj 320 71 delay 2000;
#X connect 0 0 3 0;
#X connect 1 0 3 1;
#X connect 2 0 3 1;
#X connect 3 0 1 0;
#X connect 3 0 4 0;
#X connect 4 1 5 0;
#X connect 5 1 15 0;
#X connect 6 0 12 1;
#X connect 7 0 9 0;
#X connect 7 1 8 1;
#X connect 8 0 7 0;
#X connect 9 0 8 0;
#X connect 9 1 10 0;
#X connect 10 0 12 0;
#X connect 10 0 13 0;
#X connect 11 0 18 0;
#X connect 12 0 11 1;
#X connect 13 0 10 1;
#X connect 14 0 10 1;
#X connect 15 0 11 0;
#X connect 15 1 7 0;
#X connect 15 2 6 0;
#X connect 15 3 14 0;
#X connect 16 0 0 0;
#X connect 16 1 0 1;
#X connect 16 2 23 0;
#X connect 16 3 17 0;
#X connect 17 0 23 0;
#X connect 18 0 19 0;
#X connect 18 1 20 1;
#X connect 19 0 20 0;
#X connect 20 0 22 0;
#X connect 21 0 16 0;
#X connect 23 0 2 0;
#X restore 58 281 pd tap;
#X obj 58 234 bng 40 250 50 0 empty empty tap 6 18 1 20 -33289 -261234
-262144;
#X obj 58 300 s tap-bpm;
#X obj 309 424 bng 40 250 50 0 \$0-generate-drumz empty new pattern
55 18 1 28 -258699 -66577 -233017;
#X obj 103 175 r st;
#X obj 687 194 r cng;
#X obj 303 14 r prv;
#X obj 343 14 r nxt;
#X obj 303 56 +;
#X obj 337 56 f;
#X msg 303 34 1;
#X msg 336 34 -1;
#X obj 687 213 s \$0-generate-drumz;
#X obj 687 232 r bp;
#X obj 687 253 int;
#X obj 71 175 r tp;
#X obj 360 323 cnv 15 90 20 empty empty daftpunk 0 12 1 28 -128992
-228856 0;
#X obj 360 361 cnv 15 90 20 empty empty garageHouse 0 12 1 28 -128992
-228856 0;
#X obj 303 76 % 6;
#X obj 60 652 declare -path abstractions;
#X obj 64 101 hsl 128 15 0 1 0 1 vol-ui nor volume 33 8 1 12 -1 -262144
-262144 10000 1;
#X obj 138 142 s \$0-volume;
#N canvas 652 325 613 300 load 0;
#X obj 107 43 inlet;
#X obj 198 184 symbol;
#X msg 461 144 hiphop;
#X obj 107 63 sel 0 1 2 3 4 5;
#X msg 198 203 read drumstyles/\$1;
#X obj 198 222 coll \$0-knowledge;
#C restore;
#X msg 20 147 motown_2;
#X msg 78 147 jamesbrown_2;
#X msg 160 146 clyde1_2;
#X msg 218 145 funkyfresh_2;
#X msg 373 144 garagehouse_2;
#X msg 301 144 daftpunk_3;
#X connect 0 0 3 0;
#X connect 1 0 4 0;
#X connect 2 0 1 0;
#X connect 3 0 6 0;
#X connect 3 1 7 0;
#X connect 3 2 8 0;
#X connect 3 3 9 0;
#X connect 3 4 11 0;
#X connect 3 5 10 0;
#X connect 4 0 5 0;
#X connect 6 0 1 0;
#X connect 7 0 1 0;
#X connect 8 0 1 0;
#X connect 9 0 1 0;
#X connect 10 0 1 0;
#X connect 11 0 1 0;
#X restore 620 173 pd load a style to the coll;
#X obj 593 154 t b f;
#X obj 26 379 r \$0-generate-drumz;
#X obj 593 135 r \$0-stylenumber;
#X text 274 615 Playback;
#X text 372 699 ____________________________________________________________
;
#X obj 364 642 hsl 70 15 0 5 0 0 empty empty groove 15 7 0 10 -262144
-1 -1 0 1;
#X msg 239 547 kick \$1;
#X msg 337 544 snare \$1;
#X msg 450 545 ch \$1;
#X msg 529 546 oh \$1;
#X msg 624 551 cp \$1;
#X msg 723 551 rs \$1;
#X obj 425 25 r param_comm-ui;
#X obj 672 493 hradio 18 1 1 8 \$0-order nor empty 0 -8 0 10 -262144
-1 -1 2;
#X obj 309 154 vradio 40 1 1 6 \$0-stylenumber nor empty 0 -8 0 10
-66577 -258113 -1 0;
#X obj 543 24 r param_den-ui;
#X obj 626 394 r param_sync-ui;
#X obj 139 121 r vol-ui;
#X obj 237 526 r param_ag-kick;
#X obj 336 526 r param_ag-snare;
#X obj 442 527 r param_ag-ch;
#X obj 529 527 r param_ag-oh;
#X obj 622 528 r param_ag-cp;
#X obj 720 531 r param_ag-rs;
#N canvas 16 131 1169 473 patt2sequencer 0;
#X obj 131 28 inlet;
#X obj 158 205 pack;
#X obj 188 205 pack;
#X obj 218 262 pack;
#X obj 299 265 pack;
#X obj 158 66 list split 1;
#X obj 158 102 list;
#X obj 158 121 unpack f f f f f f f f f;
#X obj 345 206 pack;
#X obj 378 206 pack;
#X obj 410 205 pack;
#X obj 410 244 s loconga-allocate;
#X obj 441 205 pack;
#X obj 441 225 s hiconga-allocate;
#N canvas 801 440 450 332 avoid 0;
#X obj 159 16 inlet;
#X obj 200 20 inlet;
#X obj 172 293 outlet;
#X obj 230 292 outlet;
#X obj 244 73 &;
#X obj 244 93 - 1;
#X obj 244 113 abs;
#X obj 214 44 t f f;
#X obj 157 165 spigot;
#X obj 214 165 spigot;
#X msg 244 239 0;
#X msg 271 239 1;
#X floatatom 281 160 5 0 0 0 - - -;
#X obj 244 133 t f f f;
#X obj 244 193 sel 0;
#X obj 244 213 t b b;
#X floatatom 282 74 5 0 0 0 - - -;
#X obj 157 44 t f b f;
#X obj 197 114 f;
#X connect 0 0 17 0;
#X connect 1 0 7 0;
#X connect 4 0 5 0;
#X connect 4 0 16 0;
#X connect 5 0 6 0;
#X connect 6 0 13 0;
#X connect 7 0 18 1;
#X connect 7 1 4 1;
#X connect 8 0 2 0;
#X connect 9 0 3 0;
#X connect 10 0 2 0;
#X connect 11 0 3 0;
#X connect 13 0 14 0;
#X connect 13 1 8 1;
#X connect 13 2 9 1;
#X connect 13 2 12 0;
#X connect 14 0 15 0;
#X connect 15 0 10 0;
#X connect 15 1 11 0;
#X connect 17 0 8 0;
#X connect 17 1 18 0;
#X connect 17 2 4 0;
#X connect 18 0 9 0;
#X restore 239 241 pd avoid ch&oh;
#X obj 192 85 w22l;
#X obj 158 431 table kickpattern 32;
#X obj 158 412 tabwrite kickpattern;
#X msg 158 322 \$2 \$1;
#X msg 317 338 \$2 \$1;
#X obj 317 430 table snarepattern 32;
#X obj 317 411 tabwrite snarepattern;
#X msg 481 363 \$2 \$1;
#X obj 479 404 tabwrite chpattern;
#X obj 479 422 table chpattern 32;
#X msg 637 370 \$2 \$1;
#X obj 637 407 tabwrite ohpattern;
#X obj 637 426 table ohpattern 32;
#X msg 781 371 \$2 \$1;
#X obj 781 409 tabwrite cppattern;
#X obj 781 428 table cppattern 32;
#X msg 939 372 \$2 \$1;
#X obj 939 409 tabwrite rspattern;
#X obj 939 428 table rspattern 32;
#X obj 155 299 s kick-allocate;
#X obj 217 324 s snare-allocate;
#X obj 400 339 s chihat-allocate;
#X obj 341 279 s ohihat-allocate;
#X obj 490 293 s clap-allocate;
#X obj 606 287 s rimshot-allocate;
#X obj 131 47 t b a;
#X obj 96 104 outlet;
#X connect 0 0 40 0;
#X connect 1 0 18 0;
#X connect 1 0 34 0;
#X connect 2 0 19 0;
#X connect 2 0 35 0;
#X connect 3 0 22 0;
#X connect 3 0 36 0;
#X connect 4 0 25 0;
#X connect 4 0 37 0;
#X connect 5 0 6 0;
#X connect 5 1 15 0;
#X connect 6 0 7 0;
#X connect 7 0 1 0;
#X connect 7 0 2 0;
#X connect 7 0 3 0;
#X connect 7 0 4 0;
#X connect 7 0 8 0;
#X connect 7 0 9 0;
#X connect 7 0 10 0;
#X connect 7 0 12 0;
#X connect 7 1 1 1;
#X connect 7 2 2 1;
#X connect 7 3 14 0;
#X connect 7 4 14 1;
#X connect 7 5 8 1;
#X connect 7 6 9 1;
#X connect 7 7 10 1;
#X connect 7 8 12 1;
#X connect 8 0 28 0;
#X connect 8 0 38 0;
#X connect 9 0 31 0;
#X connect 9 0 39 0;
#X connect 10 0 11 0;
#X connect 12 0 13 0;
#X connect 14 0 3 1;
#X connect 14 1 4 1;
#X connect 15 0 6 1;
#X connect 18 0 17 0;
#X connect 19 0 21 0;
#X connect 22 0 23 0;
#X connect 25 0 26 0;
#X connect 28 0 29 0;
#X connect 31 0 32 0;
#X connect 40 0 41 0;
#X connect 40 1 5 0;
#X restore 26 464 pd patt2sequencer;
#N canvas 667 245 1181 599 agnostic-density 0;
#X obj 48 187 tabdump kickpattern;
#X obj 51 342 s kick-string;
#X obj 63 242 sum;
#X obj 44 263 +;
#X obj 296 -139 * 16;
#X obj 365 -203 inlet;
#X obj 200 237 sum;
#X obj 185 258 +;
#X obj 186 156 tabdump snarepattern;
#X obj 186 296 s snare-string;
#X obj 341 195 sum;
#X obj 326 216 +;
#X obj 326 153 tabdump chpattern;
#X obj 326 254 s chihat-string;
#X obj 467 201 sum;
#X obj 452 222 +;
#X obj 452 260 s ohihat-string;
#X obj 464 144 tabdump ohpattern;
#X obj 597 204 sum;
#X obj 582 225 +;
#X obj 597 144 tabdump cppattern;
#X obj 582 263 s clap-string;
#X obj 728 203 sum;
#X obj 713 224 +;
#X obj 726 144 tabdump rspattern;
#X obj 713 262 s rimshot-string;
#X obj 365 -184 route kick snare ch oh cp rs;
#X obj 48 206 t b a a;
#X obj 186 175 t b a a;
#X obj 326 172 t b a a;
#X obj 464 163 t b a a;
#X obj 597 163 t b a a;
#X obj 726 163 t b a a;
#X obj 91 2 inlet;
#X obj 28 64 f;
#X obj 47 138 t b f f;
#X obj 28 84 sel 0;
#X obj 193 68 f;
#X obj 186 131 t b f f;
#X obj 193 88 sel 0;
#X obj 91 21 t b b b b b b b b;
#X obj 333 68 f;
#X obj 326 131 t b f f;
#X obj 333 88 sel 0;
#X obj 437 68 f;
#X obj 464 125 t b f f;
#X obj 437 87 sel 0;
#X obj 570 68 f;
#X obj 597 125 t b f f;
#X obj 570 87 sel 0;
#X obj 699 68 f;
#X obj 726 125 t b f f;
#X obj 699 87 sel 0;
#X msg 55 104 \$1;
#X msg 220 108 \$1;
#X msg 360 108 \$1;
#X msg 465 106 \$1;
#X msg 597 106 \$1;
#X msg 726 106 \$1;
#X obj 294 -104 change;
#X obj 296 -121 int;
#X obj 356 -138 * 16;
#X obj 354 -103 change;
#X obj 356 -120 int;
#X obj 184 216 f;
#X obj 44 224 f;
#X obj 406 -92 change;
#X obj 408 -113 int;
#X obj 408 -131 * 24;
#X obj 317 194 f;
#X obj 465 -84 change;
#X obj 467 -105 int;
#X obj 467 -123 * 16;
#X obj 443 199 f;
#X obj 509 -87 change;
#X obj 511 -108 int;
#X obj 511 -126 * 16;
#X obj 584 -88 change;
#X obj 586 -109 int;
#X obj 586 -127 * 16;
#X obj 574 207 f;
#X obj 707 203 f;
#X obj 185 277 populate_rhythm;
#X obj 45 288 populate_rhythm;
#X obj 326 235 populate_rhythm;
#X obj 452 241 populate_rhythm;
#X obj 582 244 populate_rhythm;
#X obj 713 243 populate_rhythm;
#X connect 0 0 27 0;
#X connect 2 0 3 1;
#X connect 3 0 83 0;
#X connect 4 0 60 0;
#X connect 5 0 26 0;
#X connect 6 0 7 1;
#X connect 7 0 82 0;
#X connect 8 0 28 0;
#X connect 10 0 11 1;
#X connect 11 0 84 0;
#X connect 12 0 29 0;
#X connect 14 0 15 1;
#X connect 15 0 85 0;
#X connect 17 0 30 0;
#X connect 18 0 19 1;
#X connect 19 0 86 0;
#X connect 20 0 31 0;
#X connect 22 0 23 1;
#X connect 23 0 87 0;
#X connect 24 0 32 0;
#X connect 26 0 4 0;
#X connect 26 1 61 0;
#X connect 26 2 68 0;
#X connect 26 3 72 0;
#X connect 26 4 76 0;
#X connect 26 5 79 0;
#X connect 27 0 65 0;
#X connect 27 1 2 0;
#X connect 27 2 83 1;
#X connect 28 0 64 0;
#X connect 28 1 6 0;
#X connect 28 2 82 1;
#X connect 29 0 69 0;
#X connect 29 1 10 0;
#X connect 29 2 84 1;
#X connect 30 0 73 0;
#X connect 30 1 14 0;
#X connect 30 2 85 1;
#X connect 31 0 80 0;
#X connect 31 1 18 0;
#X connect 31 2 86 1;
#X connect 32 0 81 0;
#X connect 32 1 22 0;
#X connect 32 2 87 1;
#X connect 33 0 40 0;
#X connect 34 0 36 0;
#X connect 35 0 0 0;
#X connect 35 1 65 1;
#X connect 35 2 34 1;
#X connect 36 1 53 0;
#X connect 37 0 39 0;
#X connect 38 0 8 0;
#X connect 38 1 64 1;
#X connect 38 2 37 1;
#X connect 39 1 54 0;
#X connect 40 0 34 0;
#X connect 40 1 37 0;
#X connect 40 2 41 0;
#X connect 40 3 44 0;
#X connect 40 4 47 0;
#X connect 40 5 50 0;
#X connect 41 0 43 0;
#X connect 42 0 12 0;
#X connect 42 1 69 1;
#X connect 42 2 41 1;
#X connect 43 1 55 0;
#X connect 44 0 46 0;
#X connect 45 0 17 0;
#X connect 45 1 73 1;
#X connect 45 2 44 1;
#X connect 46 1 56 0;
#X connect 47 0 49 0;
#X connect 48 0 20 0;
#X connect 48 1 80 1;
#X connect 48 2 47 1;
#X connect 49 1 57 0;
#X connect 50 0 52 0;
#X connect 51 0 24 0;
#X connect 51 1 81 1;
#X connect 51 2 50 1;
#X connect 52 1 58 0;
#X connect 53 0 35 0;
#X connect 54 0 38 0;
#X connect 55 0 42 0;
#X connect 56 0 45 0;
#X connect 57 0 48 0;
#X connect 58 0 51 0;
#X connect 59 0 35 0;
#X connect 60 0 59 0;
#X connect 61 0 63 0;
#X connect 62 0 38 0;
#X connect 63 0 62 0;
#X connect 64 0 7 0;
#X connect 65 0 3 0;
#X connect 66 0 42 0;
#X connect 67 0 66 0;
#X connect 68 0 67 0;
#X connect 69 0 11 0;
#X connect 70 0 45 0;
#X connect 71 0 70 0;
#X connect 72 0 71 0;
#X connect 73 0 15 0;
#X connect 74 0 48 0;
#X connect 75 0 74 0;
#X connect 76 0 75 0;
#X connect 77 0 51 0;
#X connect 78 0 77 0;
#X connect 79 0 78 0;
#X connect 80 0 19 0;
#X connect 81 0 23 0;
#X connect 82 0 9 0;
#X connect 83 0 1 0;
#X connect 84 0 13 0;
#X connect 85 0 16 0;
#X connect 86 0 21 0;
#X connect 87 0 25 0;
#X restore 131 572 pd agnostic-density;
#X msg 604 353 label \$1;
#X msg 604 315 new pattern;
#X obj 604 334 l2s;
#X obj 684 298 loadbang;
#X msg 821 183 bang;
#X msg 684 338 color 13 2 10 \, size 40 \, label_pos 55 18 \, label_font
1 28;
#X connect 2 0 1 0;
#X connect 3 0 70 0;
#X connect 3 1 5 0;
#X connect 3 2 71 0;
#X connect 5 0 4 0;
#X connect 14 0 15 0;
#X connect 16 0 13 0;
#X connect 18 0 17 0;
#X connect 19 0 20 0;
#X connect 23 0 25 0;
#X connect 24 0 23 0;
#X connect 26 0 3 0;
#X connect 27 0 21 0;
#X connect 28 0 35 0;
#X connect 29 0 33 0;
#X connect 30 0 34 0;
#X connect 31 0 32 0;
#X connect 31 0 41 0;
#X connect 32 0 31 1;
#X connect 33 0 31 0;
#X connect 34 0 31 0;
#X connect 36 0 37 0;
#X connect 37 0 22 0;
#X connect 38 0 24 0;
#X connect 46 0 26 0;
#X connect 46 1 45 0;
#X connect 47 0 3 0;
#X connect 48 0 46 0;
#X connect 51 0 7 0;
#X connect 52 0 71 1;
#X connect 53 0 71 1;
#X connect 54 0 71 1;
#X connect 55 0 71 1;
#X connect 56 0 71 1;
#X connect 57 0 71 1;
#X connect 58 0 14 0;
#X connect 61 0 18 0;
#X connect 62 0 19 0;
#X connect 63 0 44 0;
#X connect 64 0 52 0;
#X connect 65 0 53 0;
#X connect 66 0 54 0;
#X connect 67 0 55 0;
#X connect 68 0 56 0;
#X connect 69 0 57 0;
#X connect 72 0 26 0;
#X connect 73 0 74 0;
#X connect 74 0 72 0;
#X connect 75 0 77 0;
#X connect 75 0 73 0;
#X connect 76 0 35 0;
#X connect 77 0 26 0;
#X coords 0 -1 1 1 300 380 2 300 100;
#X restore 62 353 pd gui;
#X obj 62 302 hradio 40 1 0 32 nos numberz32 empty 0 -8 0 10 -128992
-258113 -1 0;
#X obj 1520 486 f \$0;
#X obj 1520 506 list;
#X obj 1520 467 t b a;
#X obj 1520 448 l2s;
#X msg 1521 525 \; \$1-title label \$2;
#X obj 1483 542 f \$0;
#X msg 1483 523 bang;
#X msg 1520 428 Markov Drums;
#X obj 1483 405 loadbang;
#X msg 1483 643 \; \$1-title color 11 13;
#X obj 2 62 onset32_2 rimshot;
#X obj 2 142 onset32_2 clap;
#X obj 2 102 onset32_2 ohihat;
#X obj 2 182 onset32_2 chihat;
#X obj 2 222 onset32_2 snare;
#X obj 2 262 onset32_2 kick;
#X msg 1483 577 \; \$1-title label_font 1 60;
#X msg 1483 610 \; \$1-title vis_size 1440 800;
#X msg 1483 683 \; \$1-title label_pos 5 30;
#X obj 796 363 cnv 15 100 25 empty empty density 0 12 1 48 -128992
-228856 0;
#X connect 2 0 3 0;
#X connect 4 0 2 0;
#X connect 5 0 6 0;
#X connect 5 0 18 0;
#X connect 5 0 19 0;
#X connect 6 0 20 0;
#X connect 7 0 11 0;
#X connect 7 0 12 0;
#X connect 7 0 13 0;
#X connect 7 0 14 0;
#X connect 7 0 15 0;
#X connect 7 0 16 0;
#X connect 8 0 9 0;
#X connect 9 0 7 0;
#X connect 10 0 7 0;
#X connect 17 0 5 0;
#X connect 33 0 34 0;
#X connect 34 0 37 0;
#X connect 35 0 33 0;
#X connect 35 1 34 1;
#X connect 36 0 35 0;
#X connect 38 0 49 0;
#X connect 38 0 50 0;
#X connect 38 0 42 0;
#X connect 38 0 51 0;
#X connect 39 0 38 0;
#X connect 40 0 36 0;
#X connect 41 0 39 0;
#X connect 41 0 40 0;
