#N canvas 429 69 800 552 10;
#X declare -path abstractions;
#X obj 100 506 declare -path abstractions;
#X text 130 30 *****STYLE GENERATOR*****;
#X text 21 30 ____________________________________________________________
;
#X obj 435 176 cnv 15 300 90 empty empty empty 20 12 0 14 -260097 -66577
0;
#N canvas 98 87 728 607 knowledge 0;
#X obj 171 38 inlet index value;
#X obj 365 30 inlet elements;
#X obj 171 213 coll \$0-stream;
#C restore;
#X obj 487 31 inlet reset;
#X msg 487 174 clear;
#X obj 171 57 t a a;
#X obj 171 170 list append;
#X obj 296 119 nbx 5 14 -1e+37 1e+37 0 1 empty empty empty 0 -8 0 10
-262144 -1 -1 32 256;
#X obj 228 133 %;
#N canvas 577 271 450 300 round 0;
#X msg 118 28 length;
#X obj 118 80 %;
#X obj 118 202 coll \$0-stream;
#C restore;
#X obj 118 47 coll \$0-stream;
#C restore;
#X obj 118 102 until;
#X msg 118 123 length;
#X obj 118 142 coll \$0-stream;
#C restore;
#X msg 118 180 delete \$1;
#X obj 118 161 - 1;
#X obj 118 8 inlet bang to delete;
#X obj 258 63 inlet size in 16th note;
#X connect 0 0 3 0;
#X connect 1 0 4 0;
#X connect 3 0 1 0;
#X connect 4 0 5 0;
#X connect 5 0 6 0;
#X connect 6 0 8 0;
#X connect 7 0 2 0;
#X connect 8 0 7 0;
#X connect 9 0 0 0;
#X connect 10 0 1 1;
#X restore 146 256 pd round up the coll;
#X obj 18 38 inlet bang when finished;
#X obj 18 239 t b b;
#X text 295 100 length of analysis 16th note;
#X msg 18 395 bang;
#N canvas 234 216 639 504 create 0;
#X obj 430 90 nbx 5 14 -1e+37 1e+37 0 1 empty empty empty 0 -8 0 10
-262144 -1 -1 7 256;
#X obj 214 279 coll \$0-stream;
#C restore;
#X obj 214 299 list split 1;
#X obj 213 346 list split;
#X obj 430 189 + 1;
#X msg 452 273 bang;
#X obj 214 325 list append;
#N canvas 796 499 450 300 list 0;
#X obj 31 34 inlet list;
#X obj 62 237 outlet list;
#X obj 89 105 list split 1;
#X obj 220 155 list;
#X msg 208 87 bang;
#X obj 88 126 t b a;
#X obj 131 127 list;
#X obj 37 179 list;
#X obj 88 76 t b a b;
#X obj 105 156 list append;
#X connect 0 0 8 0;
#X connect 2 0 5 0;
#X connect 2 1 6 1;
#X connect 3 0 9 1;
#X connect 4 0 9 1;
#X connect 5 0 6 0;
#X connect 5 1 9 0;
#X connect 6 0 2 0;
#X connect 7 0 1 0;
#X connect 8 0 7 0;
#X connect 8 1 2 0;
#X connect 8 2 4 0;
#X connect 9 0 3 0;
#X connect 9 0 7 1;
#X restore 213 378 pd list reverse;
#X obj 156 109 coll \$0-stream;
#C restore;
#X msg 156 68 length;
#X obj 232 174 -;
#X obj 214 260 %;
#X obj 156 173 until;
#X obj 156 128 t f f f b;
#X obj 156 207 f;
#X obj 183 207 + 1;
#X msg 229 148 0;
#X obj 214 238 +;
#X obj 156 88 t a b;
#X obj 156 153 +;
#X obj 156 40 inlet bang;
#X obj 213 404 list prepend;
#X obj 213 425 list prepend;
#X obj 276 212 t f f;
#X obj 321 235 -;
#X obj 213 446 outlet general-index index-within-pattern n-plets;
#X obj 429 69 r \$0-order;
#X connect 0 0 4 0;
#X connect 0 0 10 1;
#X connect 0 0 19 1;
#X connect 0 0 24 1;
#X connect 1 0 2 0;
#X connect 2 0 6 0;
#X connect 2 1 21 1;
#X connect 3 0 6 1;
#X connect 3 0 7 0;
#X connect 3 2 6 1;
#X connect 4 0 3 1;
#X connect 5 0 6 1;
#X connect 6 0 3 0;
#X connect 7 0 21 0;
#X connect 8 0 13 0;
#X connect 9 0 18 0;
#X connect 10 0 17 1;
#X connect 11 0 1 0;
#X connect 12 0 14 0;
#X connect 13 0 19 0;
#X connect 13 1 10 0;
#X connect 13 2 11 1;
#X connect 13 3 16 0;
#X connect 14 0 15 0;
#X connect 14 0 23 0;
#X connect 15 0 14 1;
#X connect 16 0 14 1;
#X connect 17 0 11 0;
#X connect 18 0 8 0;
#X connect 18 1 5 0;
#X connect 19 0 12 0;
#X connect 20 0 9 0;
#X connect 21 0 22 0;
#X connect 22 0 25 0;
#X connect 23 0 17 0;
#X connect 23 1 24 0;
#X connect 24 0 22 1;
#X connect 26 0 0 0;
#X restore 18 416 pd create all markov n-plets;
#X obj 359 119 cnv 15 15 15 empty empty empty 20 12 0 14 -258113 -66577
0;
#X text 327 450 (1) \$0-stream has all notes in order. the abstraction
[pd round up the coll] is in charge of rounding up the elements in
the coll so it has a fixed duration of 16 or 32 steps.;
#X text 326 432 two colls are created:;
#X obj 18 456 coll \$0-knowledge;
#C restore;
#X text 327 498 (2) The second coll \$0-knowledge has the Markov matrix
(aka the knowledge). This coll is wrapped wround 16 or 32 steps which
are the indexes. Each aditional column is a complete pattern. Each
element of the column is in the form of precedentEvent \, so the last
item is the event that was actually payed on that step and any previous
information is the preceding elements.;
#N canvas 757 396 450 300 wrap 0;
#X obj 113 173 list;
#X obj 147 156 l2s;
#X obj 163 117 loadbang;
#X msg 113 193 merge \$1 \$2;
#X obj 79 65 list split 1;
#X obj 113 86 list split 1;
#X msg 163 136 symbol;
#X obj 79 30 inlet;
#X obj 113 225 outlet;
#X connect 0 0 3 0;
#X connect 1 0 0 1;
#X connect 2 0 6 0;
#X connect 3 0 8 0;
#X connect 4 1 5 0;
#X connect 5 0 0 0;
#X connect 5 1 1 0;
#X connect 6 0 1 1;
#X connect 7 0 4 0;
#X restore 18 436 pd wrap and compress;
#X obj 228 113 unpack f s;
#X msg 154 494 write;
#X connect 0 0 5 0;
#X connect 3 0 4 0;
#X connect 4 0 2 0;
#X connect 4 0 18 0;
#X connect 5 0 6 0;
#X connect 5 1 21 0;
#X connect 6 0 2 0;
#X connect 7 0 8 1;
#X connect 7 0 9 1;
#X connect 8 0 6 1;
#X connect 10 0 11 0;
#X connect 11 0 13 0;
#X connect 11 1 9 0;
#X connect 13 0 14 0;
#X connect 14 0 20 0;
#X connect 20 0 18 0;
#X connect 21 0 8 0;
#X connect 22 0 18 0;
#X coords 0 0 1 1 200 18 0;
#X restore 611 245 pd knowledge;
#X msg 696 225 bang;
#N canvas 379 226 635 300 makename 0;
#X obj 46 22 inlet;
#X obj 57 273 outlet;
#X msg 284 256 midi/\$1.mid;
#X obj 309 216 symbol;
#X msg 169 168 motown;
#X msg 285 165 clyde1;
#X msg 215 168 jamesbrown;
#X msg 439 207 hiphop;
#X msg 330 168 funkyfresh;
#X obj 260 84 sel 0 1 2 3 4 5;
#X msg 456 167 garagehouse1_snare;
#X msg 399 167 daftpunk;
#X obj 403 253 s analysed-style-name;
#X obj 322 236 t a a;
#X connect 0 0 9 0;
#X connect 2 0 1 0;
#X connect 3 0 13 0;
#X connect 4 0 3 0;
#X connect 5 0 3 0;
#X connect 6 0 3 0;
#X connect 7 0 3 0;
#X connect 8 0 3 0;
#X connect 9 0 4 0;
#X connect 9 1 6 0;
#X connect 9 2 5 0;
#X connect 9 3 8 0;
#X connect 9 4 11 0;
#X connect 9 5 10 0;
#X connect 10 0 3 0;
#X connect 11 0 3 0;
#X connect 13 0 2 0;
#X connect 13 1 12 0;
#X restore 594 182 pd makename;
#N canvas 383 104 816 640 analyse 0;
#X obj 105 23 inlet;
#X text 25 -1 info from file;
#X msg 355 131 read \$1;
#X obj 355 112 symbol;
#X obj 245 159 mrpeach/midifile;
#X msg 245 131 verbose 0;
#X obj 146 111 until;
#X msg 309 131 rewind;
#X obj 338 178 route bang ticks_per_quarternote end;
#X obj 146 135 t b b;
#X obj 409 236 / 4;
#X obj 146 68 t b b b a b;
#X msg 512 126 0;
#X obj 146 274 sel 0;
#N canvas 719 390 450 300 sel 0;
#X obj 22 18 inlet midi stream;
#X obj 272 23 inlet channel number;
#X obj 24 210 outlet onset notes;
#X obj 24 49 route 144 153;
#X text 109 51 <- MIDI channel 1 or 10;
#X text 41 32 only onsets;
#X obj 24 179 list split 1;
#X text 102 178 <- only notes;
#X obj 57 106 == 1;
#X obj 99 106 == 10;
#X obj 24 124 spigot;
#X obj 61 125 spigot;
#X connect 0 0 3 0;
#X connect 1 0 9 0;
#X connect 1 0 8 0;
#X connect 3 0 10 0;
#X connect 3 1 11 0;
#X connect 6 0 2 0;
#X connect 8 0 10 1;
#X connect 9 0 11 1;
#X connect 10 0 6 0;
#X connect 11 0 6 0;
#X restore 245 325 pd sel midi channel;
#X obj 356 309 nbx 5 14 -1e+37 1e+37 0 1 empty empty empty 0 -8 0 10
-262144 -1 -1 10 256;
#X obj 280 283 * 4;
#X obj 280 266 nbx 5 14 -1e+37 1e+37 0 1 empty empty empty 0 -8 0 10
-262144 -1 -1 8 256;
#X obj 105 42 t b a;
#X obj 20 376 f;
#X obj 146 458 list split 1;
#X obj 20 395 -;
#X obj 20 414 abs;
#X obj 53 452 - 1;
#X obj 53 471 until;
#X obj 20 433 sel 32;
#X text 370 291 chanel;
#X text 284 251 beats;
#N canvas 650 468 450 300 mod 0;
#X obj 45 181 outlet;
#X obj 45 115 f;
#X obj 69 115 + 1;
#X obj 45 141 %;
#X obj 45 69 inlet bang;
#X obj 125 68 inlet reset;
#X obj 213 70 inlet modulus;
#X msg 125 88 0;
#X connect 1 0 2 0;
#X connect 1 0 3 0;
#X connect 2 0 1 1;
#X connect 3 0 0 0;
#X connect 4 0 1 0;
#X connect 5 0 7 0;
#X connect 6 0 3 1;
#X connect 7 0 1 1;
#X restore 146 253 pd mod;
#N canvas 47 205 450 300 index 0;
#X obj 149 136 list;
#X obj 181 136 list;
#X obj 128 203 list;
#X obj 47 63 t b f b;
#X obj 47 38 inlet index;
#X obj 149 59 inlet element;
#X obj 128 231 outlet list;
#X connect 0 0 1 0;
#X connect 0 0 2 1;
#X connect 1 0 0 1;
#X connect 2 0 6 0;
#X connect 3 0 2 1;
#X connect 3 1 2 0;
#X connect 3 2 0 1;
#X connect 4 0 3 0;
#X connect 5 0 0 0;
#X restore 146 392 pd index the list;
#X obj 146 432 t a a;
#N canvas 642 488 450 300 mod 0;
#X obj 45 181 outlet;
#X obj 45 115 f;
#X obj 69 115 + 1;
#X obj 45 159 %;
#X obj 45 69 inlet bang;
#X obj 125 68 inlet reset;
#X obj 213 70 inlet modulus;
#X msg 125 88 0;
#X obj 231 180 outlet total counts;
#X obj 44 136 t f f;
#X connect 1 0 2 0;
#X connect 1 0 9 0;
#X connect 2 0 1 1;
#X connect 3 0 0 0;
#X connect 4 0 1 0;
#X connect 5 0 7 0;
#X connect 6 0 3 1;
#X connect 7 0 1 1;
#X connect 9 0 3 0;
#X connect 9 1 8 0;
#X restore 146 300 pd mod;
#X obj 239 469 list split 1;
#X text 306 528 convert the list to dictionary;
#X obj 338 198 t b b;
#X obj 623 461 f;
#X obj 623 484 /;
#X obj 623 503 int;
#X obj 623 524 + 1;
#X text 652 465 rounded size;
#X obj 623 566 *;
#X obj 666 441 t f f;
#X obj 623 544 t f f;
#X obj 623 603 outlet total elements;
#X obj 413 449 t f f;
#X obj 394 592 outlet index dictionary;
#N canvas 590 285 435 143 note 0;
#X obj 159 21 inlet;
#X obj 159 96 outlet;
#X msg 159 72 1;
#X msg 188 72 2;
#X msg 217 72 3;
#X msg 247 72 4;
#X obj 159 45 sel 35 36 38 40 42 46 47;
#X connect 0 0 6 0;
#X connect 2 0 1 0;
#X connect 3 0 1 0;
#X connect 4 0 1 0;
#X connect 5 0 1 0;
#X connect 6 0 2 0;
#X connect 6 1 2 0;
#X connect 6 2 3 0;
#X connect 6 3 3 0;
#X connect 6 4 4 0;
#X connect 6 5 5 0;
#X connect 6 6 5 0;
#X restore 365 358 pd note to hit;
#N canvas 776 440 450 202 if 0;
#X obj 59 28 inlet;
#X obj 72 133 outlet;
#X obj 59 50 list split 1;
#X obj 72 114 list;
#X obj 93 70 route bang;
#X msg 93 89 0;
#X connect 0 0 2 0;
#X connect 2 0 3 0;
#X connect 2 1 4 0;
#X connect 3 0 1 0;
#X connect 4 0 5 0;
#X connect 4 1 3 1;
#X connect 5 0 3 1;
#X restore 239 449 pd if list is empty output 0;
#X msg 394 572 \$2 \$1;
#X text 240 574 mod index dictionary;
#X text 651 560 total patterns;
#N canvas 551 173 584 585 binarize 0;
#X obj 10 67 inlet;
#X obj 44 313 outlet;
#X msg 26 159 1;
#X msg 53 159 1;
#X msg 80 159 1;
#X msg 107 159 1;
#X msg 303 155 0;
#N canvas 825 433 450 300 drip 0;
#X obj 90 75 list split 1;
#X obj 90 96 t b f;
#X obj 127 121 list;
#X obj 90 45 inlet;
#X obj 117 176 outlet;
#X connect 0 0 1 0;
#X connect 0 1 2 1;
#X connect 1 0 2 0;
#X connect 1 1 4 0;
#X connect 2 0 0 0;
#X connect 3 0 0 0;
#X restore 29 107 pd drip;
#X text 30 46 index and list;
#X text 26 13 convert simultaneous patterns into a diccionary;
#X text 25 331 output the id of the pattern;
#X obj 10 86 t b a b;
#X obj 10 287 list split 1;
#X obj 29 127 sel 1 2 3 4 5 6 7 8;
#X obj 10 265 pack f f f f f f f f f;
#X msg 134 159 1;
#X msg 162 159 1;
#X msg 189 159 1;
#X msg 216 159 1;
#X connect 0 0 11 0;
#X connect 2 0 14 1;
#X connect 3 0 14 2;
#X connect 4 0 14 3;
#X connect 5 0 14 4;
#X connect 6 0 14 3;
#X connect 6 0 14 2;
#X connect 6 0 14 1;
#X connect 6 0 14 4;
#X connect 6 0 14 5;
#X connect 6 0 14 6;
#X connect 6 0 14 7;
#X connect 6 0 14 8;
#X connect 7 0 13 0;
#X connect 11 0 14 0;
#X connect 11 1 7 0;
#X connect 11 2 6 0;
#X connect 12 1 1 0;
#X connect 13 0 2 0;
#X connect 13 1 3 0;
#X connect 13 2 4 0;
#X connect 13 3 5 0;
#X connect 13 4 15 0;
#X connect 13 5 16 0;
#X connect 13 6 17 0;
#X connect 13 7 18 0;
#X connect 14 0 12 0;
#X connect 15 0 14 5;
#X connect 16 0 14 6;
#X connect 17 0 14 7;
#X connect 18 0 14 8;
#X restore 273 489 pd binarize;
#X obj 273 530 t s s;
#X obj 393 553 pack s f;
#X obj 239 559 pack f s;
#N canvas 567 352 526 229 note 0;
#X obj 187 47 inlet;
#X obj 355 192 outlet;
#X msg 139 135 1;
#X msg 209 135 2;
#X msg 263 134 3;
#X msg 316 135 4;
#X text 94 16 kick: 35 36 snare: 38 40 ch: 42 oh: 44 46 clap: 39 rimshot
37;
#X text 111 133 kick;
#X text 174 132 snare;
#X text 245 129 ch;
#X text 373 49 sometimes oh in 47;
#X text 372 37 NOTE:::::::;
#X text 297 130 oh;
#X msg 378 133 5;
#X text 350 132 clap;
#X msg 450 132 6;
#X obj 187 73 sel 35 36 38 40 42 46 47 44 39 37;
#X text 403 131 rimshot;
#X connect 0 0 16 0;
#X connect 2 0 1 0;
#X connect 3 0 1 0;
#X connect 4 0 1 0;
#X connect 5 0 1 0;
#X connect 13 0 1 0;
#X connect 15 0 1 0;
#X connect 16 0 2 0;
#X connect 16 1 2 0;
#X connect 16 2 3 0;
#X connect 16 3 3 0;
#X connect 16 4 4 0;
#X connect 16 5 5 0;
#X connect 16 6 5 0;
#X connect 16 7 5 0;
#X connect 16 8 13 0;
#X connect 16 9 15 0;
#X restore 245 351 pd note to hit;
#X obj 273 510 l2w2;
#X connect 0 0 18 0;
#X connect 2 0 4 0;
#X connect 3 0 2 0;
#X connect 4 0 14 0;
#X connect 4 2 8 0;
#X connect 5 0 4 0;
#X connect 6 0 9 0;
#X connect 7 0 4 0;
#X connect 8 0 34 0;
#X connect 8 1 10 0;
#X connect 9 0 28 0;
#X connect 9 1 4 0;
#X connect 10 0 28 2;
#X connect 11 0 6 0;
#X connect 11 1 5 0;
#X connect 11 2 7 0;
#X connect 11 3 3 0;
#X connect 11 4 12 0;
#X connect 12 0 28 1;
#X connect 12 0 31 1;
#X connect 13 0 31 0;
#X connect 14 0 55 0;
#X connect 15 0 14 1;
#X connect 16 0 21 1;
#X connect 16 0 31 2;
#X connect 16 0 41 0;
#X connect 17 0 16 0;
#X connect 18 0 19 0;
#X connect 18 1 11 0;
#X connect 19 0 21 0;
#X connect 20 0 19 1;
#X connect 21 0 22 0;
#X connect 22 0 25 0;
#X connect 23 0 24 0;
#X connect 24 0 31 0;
#X connect 25 1 23 0;
#X connect 28 0 13 0;
#X connect 29 0 30 0;
#X connect 30 0 20 0;
#X connect 30 1 47 0;
#X connect 31 0 29 0;
#X connect 31 1 44 0;
#X connect 32 0 54 0;
#X connect 32 1 51 0;
#X connect 34 0 6 1;
#X connect 34 1 35 0;
#X connect 35 0 36 0;
#X connect 36 0 37 0;
#X connect 37 0 38 0;
#X connect 38 0 42 0;
#X connect 40 0 43 0;
#X connect 41 0 36 1;
#X connect 41 1 40 1;
#X connect 42 0 40 0;
#X connect 44 0 53 1;
#X connect 44 1 35 1;
#X connect 47 0 32 0;
#X connect 48 0 45 0;
#X connect 51 0 56 0;
#X connect 52 0 54 1;
#X connect 52 1 53 0;
#X connect 53 0 48 0;
#X connect 55 0 29 1;
#X connect 56 0 52 0;
#X restore 628 225 pd analyse;
#X obj 594 201 t b b a b;
#X obj 435 54 cnv 15 300 20 empty empty empty 20 12 0 14 -261682 -66577
0;
#X obj 565 55 hradio 18 1 1 8 \$0-order nor empty 0 -8 0 10 -262144
-1 -1 7;
#X text 437 54 Select Markov order;
#X text 22 60 With this patch you automatically generate the transition
tables needed to reproduce a given style at a given order. You generate
one transition table per step. The idea is that you set the markov
order \, then select a style to be analyzed in that order and... that
is it. the 32 tables are generated in the ../newstyles folder. To recall
the files one must search in newstyles/stylename-order-step. The stylename
is gathered from the original MIDI file in the /midi folder (one MIDI
file per style).;
#X text 23 189 Transition tables;
#X text 21 45 Intro;
#X text 23 202 The transition tables are dependent on the order. The
way they are aranged is: the elements of the first column are the possible
pasts at each step \; for each of these elements we get a list of the
possible futures that can follow.;
#X text 22 277 How to work with the tables;
#X text 22 288 First \, load the appropriate table given the style
\, order and step. Then send an appropriate past to the table and you
will get the possible futures (PF) given that style \, order \, step
and past :). With those PF you create a histogram \, apply the transformations
and then select one with a random numnber generator.;
#X text 424 53 1;
#X text 422 121 2;
#X obj 435 75 cnv 15 300 100 empty empty empty 20 12 0 14 -260829 -66577
0;
#X obj 594 80 vradio 15 1 0 6 empty empty empty 0 -8 0 10 -262144 -1
-1 0;
#X text 611 78 motown;
#X text 610 123 funkyfresh;
#X text 610 107 clyde1;
#X text 609 92 jamesbrown;
#X text 611 138 daftpunk;
#X text 611 153 garagehouse;
#X text 423 300 3;
#X text 437 120 select style;
#X obj 435 267 cnv 15 300 90 empty empty empty 20 12 0 14 -206145 -66577
0;
#X text 445 301 Bang!;
#X obj 435 358 cnv 15 300 120 empty empty empty 20 12 0 14 -148353
-66577 0;
#X text 423 391 4;
#X text 445 392 Evaluate;
#N canvas 250 69 889 681 bang 0;
#X obj 362 117 coll \$0-knowledge;
#C restore;
#X obj 417 271 list length;
#X obj 369 136 t a a;
#X obj 664 628 list length;
#X floatatom 664 648 5 0 0 0 - - -;
#X text 399 288 original elements;
#X text 698 647 unique elements;
#X msg 665 112 clear;
#X obj 348 412 coll \$0-knowledge;
#C restore;
#X msg 348 392 nth \$1 \$2;
#X obj 348 287 f;
#X msg 348 373 \$2 \$1;
#X obj 348 352 pack;
#N canvas 38 120 479 392 splitpast 0;
#X obj 48 85 inlet;
#X obj 48 144 s2l;
#X obj 63 104 loadbang;
#X msg 63 124 symbol;
#X obj 48 172 t a a;
#X obj 89 189 list length;
#X obj 48 230 list split;
#X obj 89 208 - 2;
#X obj 63 255 loadbang;
#X obj 48 295 l2s;
#X msg 63 275 symbol;
#X obj 48 314 outlet;
#X text 115 154 separate a input a list of words and separate each
word into present and past. output a new list of only the pasts;
#X obj 175 296 outlet;
#X obj 213 240 loadbang;
#X obj 175 277 l2s;
#X msg 213 260 symbol;
#X connect 0 0 1 0;
#X connect 1 0 4 0;
#X connect 2 0 3 0;
#X connect 3 0 1 1;
#X connect 4 0 6 0;
#X connect 4 1 5 0;
#X connect 5 0 7 0;
#X connect 6 0 9 0;
#X connect 6 1 15 0;
#X connect 7 0 6 1;
#X connect 8 0 10 0;
#X connect 9 0 11 0;
#X connect 10 0 9 1;
#X connect 14 0 16 0;
#X connect 15 0 13 0;
#X connect 16 0 15 1;
#X restore 348 438 pd splitpast;
#N canvas 77 146 620 456 splitpast_l 0;
#X obj 29 25 inlet;
#X obj 48 153 s2l;
#X obj 63 113 loadbang;
#X msg 63 133 symbol;
#N canvas 423 460 450 300 drip 0;
#X obj 32 51 inlet;
#X obj 45 179 outlet;
#X obj 44 90 list split 1;
#X obj 43 116 t b a;
#X obj 83 140 list;
#X connect 0 0 2 0;
#X connect 2 0 3 0;
#X connect 2 1 4 1;
#X connect 3 0 4 0;
#X connect 3 1 1 0;
#X connect 4 0 2 0;
#X restore 48 81 pd drip;
#X obj 48 172 t a a;
#X obj 118 189 list length;
#X obj 48 225 list split;
#X obj 118 208 - 2;
#X obj 90 296 list;
#X obj 29 313 list;
#X obj 120 295 list;
#X obj 128 236 loadbang;
#X obj 90 273 l2s;
#X msg 128 256 symbol;
#X obj 29 48 t b a b;
#X obj 29 335 outlet;
#X text 201 59 separate a input a list of words and separate each word
into present and past. output a new list of only the pasts;
#X connect 0 0 15 0;
#X connect 1 0 5 0;
#X connect 2 0 3 0;
#X connect 3 0 1 1;
#X connect 4 0 1 0;
#X connect 5 0 7 0;
#X connect 5 1 6 0;
#X connect 6 0 8 0;
#X connect 7 0 13 0;
#X connect 8 0 7 1;
#X connect 9 0 11 0;
#X connect 9 0 10 1;
#X connect 10 0 16 0;
#X connect 11 0 9 1;
#X connect 12 0 14 0;
#X connect 13 0 9 0;
#X connect 14 0 13 1;
#X connect 15 0 10 0;
#X connect 15 1 4 0;
#X connect 15 2 9 1;
#X restore 369 155 pd splitpast_l;
#X text 30 159 get all elements in step;
#X obj 348 493 list;
#X obj 348 229 list;
#X obj 348 524 pack s s;
#X msg 348 543 merge \$2 \$1;
#X obj 188 213 f;
#X obj 202 241 r analysed-style-name;
#X obj 202 279 pack s f;
#X obj 188 300 list;
#X msg 188 319 write newstyles/\$2-\$3-\$1;
#X obj 247 260 r \$0-order;
#X obj 510 589 histogram;
#X obj 561 609 print list;
#X obj 510 627 print count;
#N canvas 725 466 450 300 makelist 0;
#X obj 165 103 list prepend;
#X obj 244 104 list;
#X obj 144 133 list;
#X obj 107 82 t b b;
#X obj 236 64 inlet atoms;
#X obj 107 63 inlet bang to output;
#X obj 144 153 outlet list;
#X obj 322 73 loadbang;
#X connect 0 0 1 0;
#X connect 0 0 2 1;
#X connect 1 0 0 1;
#X connect 2 0 6 0;
#X connect 3 0 0 1;
#X connect 3 1 2 0;
#X connect 4 0 0 0;
#X connect 5 0 3 0;
#X connect 7 0 0 1;
#X restore 510 569 pd makelist;
#X text 380 490 <- list all possible futures in a given step for each
unique past;
#X obj 348 562 coll temporal;
#C restore;
#X msg 418 174 merge step \$1;
#X obj 517 191 r \$0-order;
#X msg 502 229 merge order \$1;
#X obj 502 210 f;
#X obj 418 193 t a b;
#N canvas 399 444 450 300 drip 0;
#X obj 32 51 inlet;
#X obj 59 187 outlet;
#X obj 32 79 list split 1;
#X obj 32 107 t b a;
#X obj 91 152 list;
#X connect 0 0 2 0;
#X connect 2 0 3 0;
#X connect 2 1 4 1;
#X connect 3 0 4 0;
#X connect 3 1 1 0;
#X connect 4 0 2 0;
#X restore 348 248 pd drip;
#X obj 512 648 print;
#X obj 149 434 list split 1;
#X obj 183 453 histogram;
#X obj 555 650 print unique;
#X obj 664 611 unique;
#X obj 369 174 unique;
#N canvas 0 69 1345 699 printmaxpfperstep 0;
#X obj 34 12 inlet bang;
#X obj 274 15 inlet reset;
#X obj 102 222 coll temporal;
#C restore;
#X msg 102 203 dump;
#X obj 102 248 list prepend;
#X obj 239 254 list split 1;
#X obj 102 267 list trim;
#X obj 102 286 route step order;
#X obj 273 315 list length;
#X obj 273 277 unique;
#X obj 239 332 list;
#X obj 239 354 list trim;
#X obj 102 305 t b f;
#X obj 372 343 max;
#X obj 396 342 f;
#X msg 387 310 0;
#X obj 83 329 f;
#X obj 83 348 pack f f;
#X obj 83 399 print;
#X msg 83 380 \$2 \$1;
#X obj 83 184 t b b b;
#X obj 303 296 print unique;
#X obj 83 158 spigot;
#X obj 234 101 tgl 15 0 nos nor empty 17 7 0 10 -262144 -1 -1 0 1;
#X connect 0 0 22 0;
#X connect 1 0 15 0;
#X connect 2 0 4 0;
#X connect 2 1 4 1;
#X connect 3 0 2 0;
#X connect 4 0 6 0;
#X connect 5 0 10 0;
#X connect 5 1 9 0;
#X connect 6 0 7 0;
#X connect 7 0 12 0;
#X connect 7 2 5 0;
#X connect 8 0 10 1;
#X connect 8 0 13 0;
#X connect 9 0 8 0;
#X connect 10 0 11 0;
#X connect 12 1 17 1;
#X connect 13 0 14 0;
#X connect 13 0 16 1;
#X connect 14 0 13 1;
#X connect 15 0 13 1;
#X connect 16 0 17 0;
#X connect 17 0 19 0;
#X connect 19 0 18 0;
#X connect 20 0 16 0;
#X connect 20 1 3 0;
#X connect 22 0 20 0;
#X connect 23 0 22 1;
#X coords 0 -1 1 1 150 17 1 100 100;
#X restore 29 192 pd printmaxpfperstep;
#X obj 56 358 coll temporal;
#C restore;
#X msg 56 331 dump;
#X obj 56 396 list trim;
#X obj 56 415 route step order;
#X obj 56 377 list prepend;
#X obj 149 537 list;
#X obj 183 472 list_normalize;
#N canvas 490 444 626 300 listmix 0;
#X obj 53 16 inlet;
#X obj 173 49 inlet;
#X obj 71 83 list split 1;
#X obj 152 104 list split 1;
#X obj 152 83 list;
#X obj 165 156 list;
#X obj 71 109 t b b a;
#X obj 87 146 list;
#X obj 71 261 outlet;
#X text 262 50 mix two lists putting the first element of left list
first and then the first element of right list \, second... third...
;
#X obj 110 180 pack f s;
#X obj 223 211 list;
#X obj 71 234 list;
#X obj 128 209 list prepend;
#X obj 52 40 t b a b b;
#X msg 87 200 \$2 \$1;
#X connect 0 0 14 0;
#X connect 1 0 4 1;
#X connect 2 0 6 0;
#X connect 2 1 7 1;
#X connect 3 0 10 1;
#X connect 3 1 5 1;
#X connect 4 0 3 0;
#X connect 5 0 3 0;
#X connect 6 0 7 0;
#X connect 6 1 5 0;
#X connect 6 2 10 0;
#X connect 7 0 2 0;
#X connect 10 0 15 0;
#X connect 11 0 13 1;
#X connect 12 0 8 0;
#X connect 13 0 11 0;
#X connect 13 0 12 1;
#X connect 14 0 12 0;
#X connect 14 1 2 0;
#X connect 14 2 4 0;
#X connect 14 3 13 1;
#X connect 15 0 13 0;
#X restore 183 491 pd listmix;
#X obj 149 556 list trim;
#X obj 149 575 list split 1;
#X obj 188 652 coll final;
#C restore;
#X obj 418 246 coll final;
#C restore;
#X obj 183 594 l2s;
#X obj 149 614 pack s s;
#X msg 149 633 store \$1 \$2;
#X obj 307 57 count 32;
#X obj 307 76 t f f;
#X obj 379 53 sel 31;
#X obj 307 21 tgl 15 0 empty empty empty 17 7 0 10 -262144 -1 -1 0
1;
#X msg 379 73 0;
#X obj 307 2 inlet;
#X text 24 121 styles are saved to newstyles/style-order-step;
#X obj 348 309 iterate;
#X obj 449 55 inlet;
#X text 614 212 1 clear;
#X text 614 221 2 add description to coll;
#X text 614 231 3 actualize step;
#X obj 307 95 t b b b b f f f f b;
#X text 615 276 6 actualize step;
#X text 610 297 7 use uniques as indexes to fill up coll;
#X text 610 312 8 dump coll and create histogram;
#X text 609 331 9 write file;
#X text 609 238 ____________________;
#X text 614 255 4 get unique pasts;
#X obj 352 175 cnv 15 15 15 empty empty > 0 12 0 14 -261234 -66577
0;
#X obj 165 454 cnv 15 15 15 empty empty > 0 12 0 14 -261234 -66577
0;
#N canvas 882 448 450 300 bangiterate 0;
#X obj 31 13 inlet;
#X obj 31 95 count 32;
#X obj 31 114 t f f;
#X obj 103 91 sel 31;
#X obj 31 59 tgl 15 0 empty empty empty 17 7 0 10 -262144 -1 -1 0 1
;
#X msg 103 111 0;
#X obj 31 76 metro 1;
#X obj 136 63 - 1;
#X obj 31 35 t b f f;
#X obj 32 157 outlet;
#X connect 0 0 8 0;
#X connect 1 0 2 0;
#X connect 2 0 9 0;
#X connect 2 1 3 0;
#X connect 3 0 5 0;
#X connect 4 0 6 0;
#X connect 5 0 4 0;
#X connect 6 0 1 0;
#X connect 7 0 3 1;
#X connect 8 0 4 0;
#X connect 8 1 1 1;
#X connect 8 2 7 0;
#X restore 435 311 pd bangiterate;
#X obj 332 249 cnv 15 15 15 empty empty > 0 12 0 14 -261234 -66577
0;
#X obj 398 310 cnv 15 30 15 empty empty yes 0 12 0 14 -204786 -66577
0;
#X obj 348 267 t b s s s;
#X obj 348 469 sel xx;
#X msg 309 185 bang;
#X text 315 169 1;
#X msg 58 288 bang;
#X text 65 272 2;
#X msg 188 173 bang;
#X text 196 156 3;
#X obj 348 330 + 1;
#X obj 379 333 cnv 15 30 15 empty empty ins_this_it? 0 12 0 14 -258113
-66577 0;
#X obj 307 38 metro 100;
#X connect 0 0 2 0;
#X connect 1 0 10 1;
#X connect 2 0 14 0;
#X connect 2 1 1 0;
#X connect 3 0 4 0;
#X connect 7 0 31 0;
#X connect 7 0 55 0;
#X connect 8 0 13 0;
#X connect 9 0 8 0;
#X connect 10 0 67 0;
#X connect 11 0 9 0;
#X connect 12 0 11 0;
#X connect 13 0 85 0;
#X connect 13 1 16 1;
#X connect 14 0 43 0;
#X connect 16 0 18 0;
#X connect 17 0 37 0;
#X connect 18 0 19 0;
#X connect 19 0 31 0;
#X connect 20 0 23 0;
#X connect 21 0 22 0;
#X connect 22 0 23 1;
#X connect 23 0 24 0;
#X connect 24 0 55 0;
#X connect 25 0 22 1;
#X connect 26 0 28 0;
#X connect 26 1 27 0;
#X connect 29 0 26 0;
#X connect 32 0 36 0;
#X connect 33 0 35 1;
#X connect 34 0 56 0;
#X connect 35 0 34 0;
#X connect 36 0 56 0;
#X connect 36 1 35 0;
#X connect 37 0 84 0;
#X connect 39 0 50 0;
#X connect 39 1 40 0;
#X connect 40 0 51 0;
#X connect 40 1 52 1;
#X connect 42 0 3 0;
#X connect 43 0 17 1;
#X connect 45 0 49 0;
#X connect 45 1 49 1;
#X connect 46 0 45 0;
#X connect 47 0 48 0;
#X connect 48 2 39 0;
#X connect 49 0 47 0;
#X connect 50 0 53 0;
#X connect 51 0 52 0;
#X connect 52 0 50 1;
#X connect 53 0 54 0;
#X connect 54 0 58 0;
#X connect 54 1 57 0;
#X connect 57 0 58 1;
#X connect 58 0 59 0;
#X connect 59 0 55 0;
#X connect 60 0 61 0;
#X connect 61 0 72 0;
#X connect 61 1 62 0;
#X connect 62 0 64 0;
#X connect 63 0 94 0;
#X connect 64 0 63 0;
#X connect 65 0 63 0;
#X connect 67 0 92 0;
#X connect 68 0 72 0;
#X connect 72 1 90 0;
#X connect 72 2 88 0;
#X connect 72 3 86 0;
#X connect 72 4 0 0;
#X connect 72 5 20 1;
#X connect 72 6 12 1;
#X connect 72 7 32 0;
#X connect 72 8 7 0;
#X connect 84 0 10 0;
#X connect 84 2 85 1;
#X connect 84 3 18 1;
#X connect 85 0 16 0;
#X connect 86 0 17 0;
#X connect 88 0 46 0;
#X connect 90 0 20 0;
#X connect 92 0 12 0;
#X connect 94 0 60 0;
#X restore 555 328 pd bang to generate style;
#X obj 555 284 bng 40 250 50 0 nos nor empty 17 7 0 10 -261682 -1 -1
;
#X text 118 440 daniel.gomez@upf.edu 2015;
#X obj 527 422 markovdrums;
#X msg 527 403 bang;
#X msg 570 374 symbol clyde1;
#X floatatom 670 387 5 0 0 0 - - -;
#X obj 590 403 pack s f;
#X obj 527 442 print;
#X connect 5 0 4 3;
#X connect 6 0 8 0;
#X connect 7 0 4 1;
#X connect 7 1 4 2;
#X connect 8 1 4 0;
#X connect 8 2 7 0;
#X connect 8 3 5 0;
#X connect 21 0 6 0;
#X connect 36 0 35 0;
#X connect 38 0 43 0;
#X connect 39 0 38 0;
#X connect 40 0 42 0;
#X connect 41 0 42 1;
#X connect 42 0 38 1;
